<?xml version="1.0" encoding="UTF-8" standalone="no"?>
<!DOCTYPE svg PUBLIC "-//W3C//DTD SVG 1.1//EN"
 "http://www.w3.org/Graphics/SVG/1.1/DTD/svg11.dtd">
<!-- Generated by graphviz version 2.26.3 (20100126.1600)
 -->
<!-- Title: ctload Pages: 1 -->
<svg width="308pt" height="444pt"
 viewBox="0.00 0.00 308.00 444.00" xmlns="http://www.w3.org/2000/svg" xmlns:xlink="http://www.w3.org/1999/xlink">
<g id="graph1" class="graph" transform="scale(1 1) rotate(0) translate(4 440)">
<title>ctload</title>
<polygon fill="white" stroke="white" points="-4,5 -4,-440 305,-440 305,5 -4,5"/>
<g id="graph2" class="cluster"><title>cluster_appservers</title>
<polygon fill="none" stroke="black" points="25,-46 25,-338 129,-338 129,-46 25,-46"/>
<text text-anchor="middle" x="77" y="-321.4" font-family="Times Roman,serif" font-size="14.00">appsevers</text>
</g>
<!-- mdb02 -->
<g id="node1" class="node"><title>mdb02</title>
<a xlink:href="http://tinyurl.com/db-ctload" xlink:title="mdb02.ds.itd">
<ellipse fill="none" stroke="black" cx="77" cy="-364" rx="63.8995" ry="18"/>
<text text-anchor="middle" x="77" y="-359.4" font-family="Times Roman,serif" font-size="14.00">mdb02.ds.itd</text>
</a>
</g>
<!-- pvtnet -->
<g id="node4" class="node"><title>pvtnet</title>
<polygon fill="none" stroke="black" points="300,-252 194,-252 190,-248 190,-216 296,-216 300,-220 300,-252"/>
<polyline fill="none" stroke="black" points="296,-248 190,-248 "/>
<polyline fill="none" stroke="black" points="296,-248 296,-216 "/>
<polyline fill="none" stroke="black" points="296,-248 300,-252 "/>
<text text-anchor="middle" x="245" y="-229.4" font-family="Times Roman,serif" font-size="14.00">private network</text>
</g>
<!-- mdb02&#45;&#45;pvtnet -->
<g id="edge11" class="edge"><title>mdb02&#45;&#45;pvtnet</title>
<path fill="none" stroke="black" d="M129.768,-353.457C138.25,-350.509 146.647,-346.759 154,-342 190.226,-318.552 219.653,-276.298 234.507,-252.179"/>
</g>
<!-- pubosnet -->
<g id="node6" class="node"><title>pubosnet</title>
<ellipse fill="black" stroke="black" cx="245" cy="-172" rx="1.8" ry="1.8"/>
</g>
<!-- mdb02&#45;&#45;pubosnet -->
<g id="edge9" class="edge"><title>mdb02&#45;&#45;pubosnet</title>
<path fill="none" stroke="black" d="M133.792,-355.199C141.306,-352.027 148.349,-347.752 154,-342 197.519,-297.704 153.299,-257.09 190,-207 204.716,-186.915 234.758,-175.503 242.916,-172.69"/>
</g>
<!-- ns1 -->
<g id="node2" class="node"><title>ns1</title>
<a xlink:href="http://tinyurl.com/netscaler-ns1.os" xlink:title="ns1.os.itd">
<ellipse fill="none" stroke="black" cx="77" cy="-18" rx="49.8134" ry="18"/>
<text text-anchor="middle" x="77" y="-13.4" font-family="Times Roman,serif" font-size="14.00">ns1.os.itd</text>
</a>
</g>
<!-- pubseafoodnet -->
<g id="node5" class="node"><title>pubseafoodnet</title>
<ellipse fill="black" stroke="black" cx="245" cy="-138" rx="1.8" ry="1.8"/>
</g>
<!-- ns1&#45;&#45;pubseafoodnet -->
<g id="edge5" class="edge"><title>ns1&#45;&#45;pubseafoodnet</title>
<path fill="none" stroke="black" d="M120.648,-27.3955C132.015,-30.9467 143.898,-35.7067 154,-42 199.221,-70.1712 237.216,-126.126 243.943,-136.37"/>
</g>
<!-- ns1&#45;&#45;pubosnet -->
<g id="edge3" class="edge"><title>ns1&#45;&#45;pubosnet</title>
<path fill="none" stroke="black" d="M123.983,-25.0648C134.94,-28.6252 145.791,-33.9725 154,-42 189.874,-77.0794 155.812,-112.275 190,-149 205.515,-165.666 234.982,-170.673 242.963,-171.752"/>
</g>
<!-- pubvipnet -->
<g id="node7" class="node"><title>pubvipnet</title>
<ellipse fill="black" stroke="black" cx="245" cy="-18" rx="1.8" ry="1.8"/>
</g>
<!-- ns1&#45;&#45;pubvipnet -->
<g id="edge7" class="edge"><title>ns1&#45;&#45;pubvipnet</title>
<path fill="none" stroke="black" d="M127.861,-18C172.286,-18 231.438,-18 242.995,-18"/>
</g>
<!-- caboose -->
<g id="node3" class="node"><title>caboose</title>
<a xlink:href="http://tinyurl.com/netapp-caboose" xlink:title="caboose netapp">
<ellipse fill="none" stroke="black" cx="77" cy="-418" rx="77.1443" ry="18"/>
<text text-anchor="middle" x="77" y="-413.4" font-family="Times Roman,serif" font-size="14.00">caboose netapp</text>
</a>
</g>
<!-- caboose&#45;&#45;pvtnet -->
<g id="edge13" class="edge"><title>caboose&#45;&#45;pvtnet</title>
<path fill="none" stroke="black" d="M130.183,-404.974C138.711,-401.358 147.016,-396.781 154,-391 200.235,-352.734 228.05,-284.48 239.257,-252.059"/>
</g>
<!-- lobster -->
<g id="node8" class="node"><title>lobster</title>
<ellipse fill="none" stroke="black" cx="77" cy="-288" rx="38.9076" ry="18"/>
<text text-anchor="middle" x="77" y="-283.4" font-family="Times Roman,serif" font-size="14.00">lobster</text>
</g>
<!-- lobster&#45;&#45;pvtnet -->
<g id="edge25" class="edge"><title>lobster&#45;&#45;pvtnet</title>
<path fill="none" stroke="black" d="M109.392,-277.588C132.181,-270.263 163.243,-260.279 189.889,-251.714"/>
</g>
<!-- lobster&#45;&#45;pubseafoodnet -->
<g id="edge15" class="edge"><title>lobster&#45;&#45;pubseafoodnet</title>
<path fill="none" stroke="black" d="M113.952,-282.055C128.02,-278.141 143.237,-271.674 154,-261 187.54,-227.738 157.453,-195.234 190,-161 205.689,-144.498 235.031,-139.373 242.974,-138.258"/>
</g>
<!-- clam -->
<g id="node9" class="node"><title>clam</title>
<ellipse fill="none" stroke="black" cx="77" cy="-234" rx="30.8577" ry="18"/>
<text text-anchor="middle" x="77" y="-229.4" font-family="Times Roman,serif" font-size="14.00">clam</text>
</g>
<!-- clam&#45;&#45;pvtnet -->
<g id="edge27" class="edge"><title>clam&#45;&#45;pvtnet</title>
<path fill="none" stroke="black" d="M108.206,-234C131.075,-234 162.723,-234 189.819,-234"/>
</g>
<!-- clam&#45;&#45;pubseafoodnet -->
<g id="edge17" class="edge"><title>clam&#45;&#45;pubseafoodnet</title>
<path fill="none" stroke="black" d="M106.288,-227.93C121.51,-223.782 139.839,-217.152 154,-207 175.099,-191.873 169.355,-176.741 190,-161 208.107,-147.194 235.712,-140.131 243.117,-138.418"/>
</g>
<!-- oyster -->
<g id="node10" class="node"><title>oyster</title>
<ellipse fill="none" stroke="black" cx="77" cy="-180" rx="36.2243" ry="18"/>
<text text-anchor="middle" x="77" y="-175.4" font-family="Times Roman,serif" font-size="14.00">oyster</text>
</g>
<!-- oyster&#45;&#45;pvtnet -->
<g id="edge29" class="edge"><title>oyster&#45;&#45;pvtnet</title>
<path fill="none" stroke="black" d="M107.424,-189.779C130.306,-197.134 162.293,-207.416 189.665,-216.214"/>
</g>
<!-- oyster&#45;&#45;pubseafoodnet -->
<g id="edge19" class="edge"><title>oyster&#45;&#45;pubseafoodnet</title>
<path fill="none" stroke="black" d="M109.392,-171.902C154.016,-160.746 230.364,-141.659 243.156,-138.461"/>
</g>
<!-- octopus -->
<g id="node11" class="node"><title>octopus</title>
<ellipse fill="none" stroke="black" cx="77" cy="-126" rx="43.1021" ry="18"/>
<text text-anchor="middle" x="77" y="-121.4" font-family="Times Roman,serif" font-size="14.00">octopus</text>
</g>
<!-- octopus&#45;&#45;pvtnet -->
<g id="edge31" class="edge"><title>octopus&#45;&#45;pvtnet</title>
<path fill="none" stroke="black" d="M113.943,-135.722C127.086,-140.004 141.672,-145.739 154,-153 161.928,-157.669 201.118,-193.411 225.412,-215.829"/>
</g>
<!-- octopus&#45;&#45;pubseafoodnet -->
<g id="edge21" class="edge"><title>octopus&#45;&#45;pubseafoodnet</title>
<path fill="none" stroke="black" d="M120.264,-129.09C165.375,-132.312 231.167,-137.012 243.106,-137.865"/>
</g>
<!-- scallop -->
<g id="node12" class="node"><title>scallop</title>
<ellipse fill="none" stroke="black" cx="77" cy="-72" rx="40.2492" ry="18"/>
<text text-anchor="middle" x="77" y="-67.4" font-family="Times Roman,serif" font-size="14.00">scallop</text>
</g>
<!-- scallop&#45;&#45;pvtnet -->
<g id="edge33" class="edge"><title>scallop&#45;&#45;pvtnet</title>
<path fill="none" stroke="black" d="M114.422,-78.4991C128.226,-82.4768 143.133,-88.8439 154,-99 183.676,-126.733 166.598,-149.801 190,-183 198.628,-195.24 210.603,-206.775 221.177,-215.768"/>
</g>
<!-- scallop&#45;&#45;pubseafoodnet -->
<g id="edge23" class="edge"><title>scallop&#45;&#45;pubseafoodnet</title>
<path fill="none" stroke="black" d="M109.397,-82.8153C123.219,-87.5698 139.478,-93.3495 154,-99 190.522,-113.211 234.172,-133.044 243.283,-137.212"/>
</g>
</g>
</svg>
