<?xml version="1.0" encoding="UTF-8" standalone="no"?>
<!DOCTYPE svg PUBLIC "-//W3C//DTD SVG 1.1//EN"
 "http://www.w3.org/Graphics/SVG/1.1/DTD/svg11.dtd">
<!-- Generated by graphviz version 2.26.3 (20100126.1600)
 -->
<!-- Title: ctools Pages: 1 -->
<svg width="1960pt" height="316pt"
 viewBox="0.00 0.00 1960.00 316.00" xmlns="http://www.w3.org/2000/svg" xmlns:xlink="http://www.w3.org/1999/xlink">
<g id="graph1" class="graph" transform="scale(1 1) rotate(0) translate(4 312)">
<title>ctools</title>
<polygon fill="white" stroke="white" points="-4,5 -4,-312 1957,-312 1957,5 -4,5"/>
<g id="graph2" class="cluster"><title>cluster_swg</title>
<polygon fill="none" stroke="black" points="622,-116 622,-192 1292,-192 1292,-116 622,-116"/>
<text text-anchor="middle" x="957" y="-175.4" font-family="Times Roman,serif" font-size="14.00">ALDF sw&#45;g</text>
</g>
<g id="graph3" class="cluster"><title>cluster_maccsw12ab</title>
<polygon fill="none" stroke="black" points="1429,-8 1429,-84 1931,-84 1931,-8 1429,-8"/>
<text text-anchor="middle" x="1680" y="-67.4" font-family="Times Roman,serif" font-size="14.00">MACC sw12</text>
</g>
<g id="graph4" class="cluster"><title>cluster_aldf</title>
<polygon fill="none" stroke="black" points="8,-8 8,-300 614,-300 614,-8 8,-8"/>
<text text-anchor="middle" x="311" y="-283.4" font-family="Times Roman,serif" font-size="14.00">ALDF</text>
</g>
<g id="graph5" class="cluster"><title>cluster_macc</title>
<polygon fill="none" stroke="black" points="1300,-116 1300,-192 1944,-192 1944,-116 1300,-116"/>
<text text-anchor="middle" x="1622" y="-175.4" font-family="Times Roman,serif" font-size="14.00">MACC</text>
</g>
<!-- ctoolsdb -->
<g id="node1" class="node"><title>ctoolsdb</title>
<a xlink:href="http://tinyurl.com/db-ctools" xlink:title="CTools DB">
<ellipse fill="none" stroke="black" cx="551" cy="-34" rx="55.1765" ry="18"/>
<text text-anchor="middle" x="551" y="-29.4" font-family="Times Roman,serif" font-size="14.00">CTools DB</text>
</a>
</g>
<!-- pvtnet -->
<g id="node9" class="node"><title>pvtnet</title>
<ellipse fill="none" stroke="black" cx="705" cy="-142" rx="75.1319" ry="18"/>
<text text-anchor="middle" x="705" y="-137.4" font-family="Times Roman,serif" font-size="14.00">10.211.253.0/24</text>
</g>
<!-- ctoolsdb&#45;&#45;pvtnet -->
<g id="edge28" class="edge"><title>ctoolsdb&#45;&#45;pvtnet</title>
<path fill="none" stroke="green" d="M574.28,-50.3259C602.949,-70.4319 651.423,-104.426 680.598,-124.887"/>
</g>
<!-- pubnet -->
<g id="node10" class="node"><title>pubnet</title>
<ellipse fill="none" stroke="black" cx="876" cy="-142" rx="77.9861" ry="18"/>
<text text-anchor="middle" x="876" y="-137.4" font-family="Times Roman,serif" font-size="14.00">141.211.253.0/24</text>
</g>
<!-- ctoolsdb&#45;&#45;pubnet -->
<g id="edge34" class="edge"><title>ctoolsdb&#45;&#45;pubnet</title>
<path fill="none" stroke="purple" d="M589.9,-46.9267C650.603,-67.0988 767.516,-105.95 831.492,-127.21"/>
</g>
<!-- ctoolssecdb -->
<g id="node2" class="node"><title>ctoolssecdb</title>
<a xlink:href="http://tinyurl.com/db-ctools-sec" xlink:title="CTools DB Secondary">
<ellipse fill="none" stroke="black" cx="1834" cy="-142" rx="102.135" ry="18"/>
<text text-anchor="middle" x="1834" y="-137.4" font-family="Times Roman,serif" font-size="14.00">CTools DB Secondary</text>
</a>
</g>
<!-- pvtosnet -->
<g id="node6" class="node"><title>pvtosnet</title>
<ellipse fill="none" stroke="black" cx="1676" cy="-34" rx="75.1319" ry="18"/>
<text text-anchor="middle" x="1676" y="-29.4" font-family="Times Roman,serif" font-size="14.00">10.211.253.0/24</text>
</g>
<!-- ctoolssecdb&#45;&#45;pvtosnet -->
<g id="edge31" class="edge"><title>ctoolssecdb&#45;&#45;pvtosnet</title>
<path fill="none" stroke="green" d="M1808.26,-124.408C1778.62,-104.145 1730.25,-71.0808 1700.94,-51.0501"/>
</g>
<!-- boxcar -->
<g id="node3" class="node"><title>boxcar</title>
<a xlink:href="http://tinyurl.com/netapp-boxcar" xlink:title="boxcar netapp">
<ellipse fill="none" stroke="black" cx="437" cy="-250" rx="69.0945" ry="18"/>
<text text-anchor="middle" x="437" y="-245.4" font-family="Times Roman,serif" font-size="14.00">boxcar netapp</text>
</a>
</g>
<!-- repnet -->
<g id="node13" class="node"><title>repnet</title>
<ellipse fill="none" stroke="black" cx="1045" cy="-142" rx="73.1194" ry="18"/>
<text text-anchor="middle" x="1045" y="-137.4" font-family="Times Roman,serif" font-size="14.00">192.168.248/29</text>
</g>
<!-- boxcar&#45;&#45;repnet -->
<g id="edge40" class="edge"><title>boxcar&#45;&#45;repnet</title>
<path fill="none" stroke="blue" d="M486.732,-237.448C496.08,-235.395 505.805,-233.464 515,-232 712.416,-200.562 773.139,-254.561 963,-192 985.012,-184.747 1007.3,-170.629 1023.07,-159.24"/>
</g>
<!-- flatcar -->
<g id="node4" class="node"><title>flatcar</title>
<a xlink:href="http://tinyurl.com/netapp-flatcar" xlink:title="flatcar netapp">
<ellipse fill="none" stroke="black" cx="1523" cy="-142" rx="67.082" ry="18"/>
<text text-anchor="middle" x="1523" y="-137.4" font-family="Times Roman,serif" font-size="14.00">flatcar netapp</text>
</a>
</g>
<!-- pubosnet -->
<g id="node5" class="node"><title>pubosnet</title>
<ellipse fill="none" stroke="black" cx="1846" cy="-34" rx="77.1443" ry="18"/>
<text text-anchor="middle" x="1846" y="-29.4" font-family="Times Roman,serif" font-size="14.00">141.211.140.0/27</text>
</g>
<!-- pubosnet&#45;&#45;ctoolssecdb -->
<g id="edge38" class="edge"><title>pubosnet&#45;&#45;ctoolssecdb</title>
<path fill="none" stroke="purple" d="M1843.99,-52.0502C1841.79,-71.9231 1838.26,-103.699 1836.04,-123.679"/>
</g>
<!-- pvtosnet&#45;&#45;flatcar -->
<g id="edge32" class="edge"><title>pvtosnet&#45;&#45;flatcar</title>
<path fill="none" stroke="green" d="M1651.76,-51.1129C1623.03,-71.3885 1575.48,-104.954 1546.91,-125.125"/>
</g>
<!-- maccsw -->
<g id="node7" class="node"><title>maccsw</title>
<ellipse fill="none" stroke="black" cx="1661" cy="-142" rx="53.1641" ry="18"/>
<text text-anchor="middle" x="1661" y="-137.4" font-family="Times Roman,serif" font-size="14.00">MACC net</text>
</g>
<!-- maccsw&#45;&#45;pubosnet -->
<g id="edge37" class="edge"><title>maccsw&#45;&#45;pubosnet</title>
<path fill="none" stroke="purple" d="M1687.9,-126.296C1722.37,-106.171 1781.89,-71.425 1817.24,-50.7898"/>
</g>
<!-- reposnet -->
<g id="node15" class="node"><title>reposnet</title>
<ellipse fill="none" stroke="black" cx="1510" cy="-34" rx="73.1194" ry="18"/>
<text text-anchor="middle" x="1510" y="-29.4" font-family="Times Roman,serif" font-size="14.00">192.168.254/29</text>
</g>
<!-- maccsw&#45;&#45;reposnet -->
<g id="edge43" class="edge"><title>maccsw&#45;&#45;reposnet</title>
<path fill="none" stroke="blue" d="M1638.07,-125.597C1609.93,-105.475 1562.47,-71.5258 1533.9,-51.0934"/>
</g>
<!-- aldfsw -->
<g id="node8" class="node"><title>aldfsw</title>
<ellipse fill="none" stroke="black" cx="565" cy="-250" rx="41.0898" ry="18"/>
<text text-anchor="middle" x="565" y="-245.4" font-family="Times Roman,serif" font-size="14.00">aldf net</text>
</g>
<!-- aldfsw&#45;&#45;maccsw -->
<g id="edge36" class="edge"><title>aldfsw&#45;&#45;maccsw</title>
<path fill="none" stroke="purple" d="M606.204,-249.112C786.082,-245.175 1496.77,-227.878 1590,-192 1608.45,-184.898 1625.64,-170.129 1638.78,-158.475"/>
</g>
<!-- aldfsw&#45;&#45;maccsw -->
<g id="edge42" class="edge"><title>aldfsw&#45;&#45;maccsw</title>
<path fill="none" stroke="blue" d="M606.157,-249.24C788.015,-245.562 1513.72,-228.282 1608,-192 1625.55,-185.246 1641.95,-171.557 1652.12,-160.207"/>
</g>
<!-- pvtnet&#45;&#45;boxcar -->
<g id="edge29" class="edge"><title>pvtnet&#45;&#45;boxcar</title>
<path fill="none" stroke="green" d="M666.286,-157.426C646.238,-168.117 622.311,-182.147 600,-192 559.401,-209.929 511.5,-225.029 477.788,-235.323"/>
</g>
<!-- pvtnet&#45;&#45;boxcar -->
<g id="edge7" class="edge"><title>pvtnet&#45;&#45;boxcar</title>
<path fill="none" stroke="black" d="M678.726,-159.054C661.849,-169.51 639.195,-182.64 618,-192 574.684,-211.129 523.057,-227.037 486.047,-237.324"/>
</g>
<!-- pvtnet&#45;&#45;boxcar -->
<g id="edge15" class="edge"><title>pvtnet&#45;&#45;boxcar</title>
<path fill="none" stroke="black" d="M692.885,-160.004C678.488,-170.296 656.558,-182.921 636,-192 589.817,-212.395 534.185,-229.129 493.052,-239.293"/>
</g>
<!-- pubnet&#45;&#45;aldfsw -->
<g id="edge35" class="edge"><title>pubnet&#45;&#45;aldfsw</title>
<path fill="none" stroke="purple" d="M850.282,-159.233C833.437,-169.893 810.613,-183.179 789,-192 726.144,-217.653 648.657,-234.713 603.249,-243.345"/>
</g>
<!-- lbs -->
<g id="node20" class="node"><title>lbs</title>
<ellipse fill="none" stroke="black" cx="565" cy="-142" rx="27" ry="18"/>
<text text-anchor="middle" x="565" y="-137.4" font-family="Times Roman,serif" font-size="14.00">lbs</text>
</g>
<!-- pubnet&#45;&#45;lbs -->
<g id="edge10" class="edge"><title>pubnet&#45;&#45;lbs</title>
<path fill="none" stroke="black" d="M858.863,-159.835C841.034,-176.987 811.379,-201.775 780,-212 715.346,-233.069 689.008,-239.912 627,-212 603.018,-201.205 584.56,-176.041 574.239,-159.016"/>
</g>
<!-- vipnet -->
<g id="node11" class="node"><title>vipnet</title>
<ellipse fill="none" stroke="black" cx="1210" cy="-142" rx="73.7902" ry="18"/>
<text text-anchor="middle" x="1210" y="-137.4" font-family="Times Roman,serif" font-size="14.00">141.211.48.0/27</text>
</g>
<!-- vipnet&#45;&#45;aldfsw -->
<g id="edge2" class="edge"><title>vipnet&#45;&#45;aldfsw</title>
<path fill="none" stroke="black" d="M1187.39,-159.386C1171.42,-170.687 1149.02,-184.642 1127,-192 1030.02,-224.41 718.216,-242.501 605.848,-248.098"/>
</g>
<!-- repnet&#45;&#45;aldfsw -->
<g id="edge41" class="edge"><title>repnet&#45;&#45;aldfsw</title>
<path fill="none" stroke="blue" d="M1022.25,-159.344C1006.46,-170.475 984.488,-184.25 963,-192 897.561,-215.601 692.885,-237.599 605.357,-246.192"/>
</g>
<!-- reposnet&#45;&#45;flatcar -->
<g id="edge44" class="edge"><title>reposnet&#45;&#45;flatcar</title>
<path fill="none" stroke="blue" d="M1512.17,-52.0502C1514.56,-71.9231 1518.39,-103.699 1520.79,-123.679"/>
</g>
<!-- appservers -->
<g id="node17" class="node"><title>appservers</title>
<ellipse fill="none" stroke="black" cx="293" cy="-250" rx="57.0197" ry="18"/>
<text text-anchor="middle" x="293" y="-245.4" font-family="Times Roman,serif" font-size="14.00">appservers</text>
</g>
<!-- appservers&#45;&#45;pvtnet -->
<g id="edge6" class="edge"><title>appservers&#45;&#45;pvtnet</title>
<path fill="none" stroke="black" d="M335.077,-237.763C342.987,-235.679 351.217,-233.657 359,-232 472.923,-207.749 508.092,-230.56 618,-192 640.521,-184.099 663.853,-170.335 680.679,-159.246"/>
</g>
<!-- appservers&#45;&#45;pubnet -->
<g id="edge9" class="edge"><title>appservers&#45;&#45;pubnet</title>
<path fill="none" stroke="black" d="M334.293,-237.56C342.425,-235.445 350.937,-233.463 359,-232 547.852,-197.731 606.049,-250.037 789,-192 812.081,-184.678 835.747,-170.566 852.557,-159.197"/>
</g>
<!-- appservers&#45;&#45;lbs -->
<g id="edge25" class="edge"><title>appservers&#45;&#45;lbs</title>
<path fill="none" stroke="blue" d="M328.559,-235.881C385.152,-213.41 494.171,-170.123 541.791,-151.215"/>
</g>
<!-- lbs&#45;&#45;ctoolsdb -->
<g id="edge26" class="edge"><title>lbs&#45;&#45;ctoolsdb</title>
<path fill="none" stroke="blue" d="M562.625,-123.679C560.035,-103.699 555.916,-71.9231 553.34,-52.0502"/>
</g>
<!-- lbs&#45;&#45;pvtnet -->
<g id="edge17" class="edge"><title>lbs&#45;&#45;pvtnet</title>
<path fill="none" stroke="black" d="M592.07,-142C604.569,-142 617.068,-142 629.566,-142"/>
</g>
<!-- lbs&#45;&#45;pubnet -->
<g id="edge19" class="edge"><title>lbs&#45;&#45;pubnet</title>
<path fill="none" stroke="black" d="M574.239,-159.016C584.56,-176.041 603.018,-201.205 627,-212 689.008,-239.912 715.346,-233.069 780,-212 811.379,-201.775 841.034,-176.987 858.863,-159.835"/>
</g>
<!-- lbs&#45;&#45;vipnet -->
<g id="edge21" class="edge"><title>lbs&#45;&#45;vipnet</title>
<path fill="none" stroke="black" d="M574.239,-159.016C584.56,-176.041 603.018,-201.205 627,-212 676.748,-234.393 1066.3,-229.431 1118,-212 1148.43,-201.74 1176.76,-176.961 1193.73,-159.82"/>
</g>
<!-- searchserver -->
<g id="node21" class="node"><title>searchserver</title>
<ellipse fill="none" stroke="black" cx="153" cy="-250" rx="65.0696" ry="18"/>
<text text-anchor="middle" x="153" y="-245.4" font-family="Times Roman,serif" font-size="14.00">searchserver</text>
</g>
<!-- searchserver&#45;&#45;pvtnet -->
<g id="edge14" class="edge"><title>searchserver&#45;&#45;pvtnet</title>
<path fill="none" stroke="black" d="M200.171,-237.508C209.04,-235.449 218.269,-233.501 227,-232 399.158,-202.399 451.737,-245.586 618,-192 641.048,-184.572 664.716,-170.469 681.536,-159.131"/>
</g>
<!-- AFS -->
<g id="node23" class="node"><title>AFS</title>
<ellipse fill="none" stroke="black" cx="153" cy="-142" rx="30.1869" ry="18"/>
<text text-anchor="middle" x="153" y="-137.4" font-family="Times Roman,serif" font-size="14.00">AFS</text>
</g>
<!-- searchserver&#45;&#45;AFS -->
<g id="edge12" class="edge"><title>searchserver&#45;&#45;AFS</title>
<path fill="none" stroke="black" d="M153,-231.679C153,-211.699 153,-179.923 153,-160.05"/>
</g>
<!-- swg -->
<g id="node29" class="node"><title>swg</title>
<ellipse fill="none" stroke="black" cx="43" cy="-250" rx="27.0036" ry="18"/>
<text text-anchor="middle" x="43" y="-245.4" font-family="Times Roman,serif" font-size="14.00">swg</text>
</g>
<!-- maccsw12ab -->
<g id="node31" class="node"><title>maccsw12ab</title>
<ellipse fill="none" stroke="black" cx="1373" cy="-142" rx="65.0696" ry="18"/>
<text text-anchor="middle" x="1373" y="-137.4" font-family="Times Roman,serif" font-size="14.00">maccsw12ab</text>
</g>
</g>
</svg>
