<?xml version="1.0" encoding="UTF-8" standalone="no"?>
<!DOCTYPE svg PUBLIC "-//W3C//DTD SVG 1.1//EN"
 "http://www.w3.org/Graphics/SVG/1.1/DTD/svg11.dtd">
<!-- Generated by graphviz version 2.26.3 (20100126.1600)
 -->
<!-- Title: ctoolsnonprod Pages: 1 -->
<svg width="911pt" height="698pt"
 viewBox="0.00 0.00 911.00 698.00" xmlns="http://www.w3.org/2000/svg" xmlns:xlink="http://www.w3.org/1999/xlink">
<g id="graph1" class="graph" transform="scale(1 1) rotate(0) translate(4 694)">
<title>ctoolsnonprod</title>
<polygon fill="white" stroke="white" points="-4,5 -4,-694 908,-694 908,5 -4,5"/>
<text text-anchor="middle" x="451.5" y="-5.8" font-family="Times Roman,serif" font-size="8.00">CTools Non&#45;prod Environments</text>
<g id="graph2" class="cluster"><title>cluster_lr</title>
<polygon fill="none" stroke="black" points="370,-563 370,-632 516,-632 516,-563 370,-563"/>
<text text-anchor="middle" x="443" y="-620.8" font-family="Times Roman,serif" font-size="8.00">LR loadgen (RHEL5)</text>
</g>
<g id="graph3" class="cluster"><title>cluster_maisdb</title>
<polygon fill="none" stroke="black" points="525,-383 525,-466 667,-466 667,-383 525,-383"/>
<text text-anchor="middle" x="596" y="-454.8" font-family="Times Roman,serif" font-size="8.00">MAIS DB</text>
</g>
<g id="graph5" class="cluster"><title>cluster_afs</title>
<polygon fill="none" stroke="black" points="363,-205 363,-274 731,-274 731,-205 363,-205"/>
<text text-anchor="middle" x="547" y="-262.8" font-family="Times Roman,serif" font-size="8.00">AFS /afs/umich.edu/group</text>
</g>
<g id="graph6" class="cluster"><title>cluster_netapp</title>
<a xlink:href="http://ctstats.os.itd.umich.edu/stats-bin/drraw.cgi?Mode=view;Dashboard=1202420113.2594" xlink:title="caboose (Netapp 3020)">
<polygon fill="none" stroke="black" points="241,-25 241,-94 477,-94 477,-25 241,-25"/>
<text text-anchor="middle" x="359" y="-82.8" font-family="Times Roman,serif" font-size="8.00">caboose (Netapp 3020)</text>
</a>
</g>
<g id="graph7" class="cluster"><title>cluster_sharkfin</title>
<polygon fill="none" stroke="black" points="261,-108 261,-191 745,-191 745,-108 261,-108"/>
<text text-anchor="middle" x="503" y="-179.8" font-family="Times Roman,serif" font-size="8.00">Oracle 10g CTTEST@sharkfin (RHEL5 x86)</text>
</g>
<g id="graph8" class="cluster"><title>cluster_mdb02</title>
<polygon fill="none" stroke="black" points="76,-108 76,-191 253,-191 253,-108 76,-108"/>
<text text-anchor="middle" x="164.5" y="-179.8" font-family="Times Roman,serif" font-size="8.00">Oracle 10g CTLOAD@mdb02 (Solaris 10 T2)</text>
</g>
<!-- test&#45;users -->
<g id="node1" class="node"><title>test&#45;users</title>
<image xlink:href="icons/cloud.png" width="22px" height="22px" preserveAspectRatio="xMinYMin meet" x="351" y="-517"/>
<polygon fill="none" stroke="black" stroke-width="0" points="398,-524 326,-524 326,-488 398,-488 398,-524"/>
<text text-anchor="middle" x="362" y="-515.9" font-family="Times Roman,serif" font-size="9.00">human testers</text>
</g>
<!-- ns1os -->
<g id="node3" class="node"><title>ns1os</title>
<image xlink:href="icons/gswanson_Citrix_Netscaler_1.png" width="68px" height="30px" preserveAspectRatio="xMinYMin meet" x="369" y="-431"/>
<polygon fill="none" stroke="black" stroke-width="0" points="437,-434 369,-434 369,-398 437,-398 437,-434"/>
<text text-anchor="middle" x="403" y="-399.9" font-family="Times Roman,serif" font-size="9.00">LB ns1.os</text>
</g>
<!-- test&#45;users&#45;&gt;ns1os -->
<g id="edge2" class="edge"><title>test&#45;users&#45;&gt;ns1os</title>
<path fill="none" stroke="black" stroke-dasharray="1,5" d="M372.374,-483.228C378.538,-469.698 386.333,-452.586 392.516,-439.013"/>
<polygon fill="black" stroke="black" points="370.777,-482.512 370.297,-487.787 373.962,-483.963 370.777,-482.512"/>
<polygon fill="black" stroke="black" points="394.235,-439.461 394.715,-434.186 391.05,-438.01 394.235,-439.461"/>
</g>
<!-- ctoolsload -->
<g id="node6" class="node"><title>ctoolsload</title>
<a xlink:href="https://ctoolsload.ds.itd.umich.edu" xlink:title="{CTload|{clam|lobster|octopus|oyster|scallop|shrimp\n(search)}}">
<polygon fill="none" stroke="black" points="-0.5,-297 -0.5,-343 262.5,-343 262.5,-297 -0.5,-297"/>
<text text-anchor="middle" x="131" y="-330.9" font-family="Times Roman,serif" font-size="9.00">CTload</text>
<polyline fill="none" stroke="black" points="-0.5,-325 262.5,-325 "/>
<text text-anchor="middle" x="17.5" y="-307.9" font-family="Times Roman,serif" font-size="9.00">clam</text>
<polyline fill="none" stroke="black" points="35.5,-297 35.5,-325 "/>
<text text-anchor="middle" x="57" y="-307.9" font-family="Times Roman,serif" font-size="9.00">lobster</text>
<polyline fill="none" stroke="black" points="78.5,-297 78.5,-325 "/>
<text text-anchor="middle" x="102.5" y="-307.9" font-family="Times Roman,serif" font-size="9.00">octopus</text>
<polyline fill="none" stroke="black" points="126.5,-297 126.5,-325 "/>
<text text-anchor="middle" x="147" y="-307.9" font-family="Times Roman,serif" font-size="9.00">oyster</text>
<polyline fill="none" stroke="black" points="167.5,-297 167.5,-325 "/>
<text text-anchor="middle" x="190" y="-307.9" font-family="Times Roman,serif" font-size="9.00">scallop</text>
<polyline fill="none" stroke="black" points="212.5,-297 212.5,-325 "/>
<text text-anchor="middle" x="237.5" y="-312.9" font-family="Times Roman,serif" font-size="9.00">shrimp</text>
<text text-anchor="middle" x="237.5" y="-302.9" font-family="Times Roman,serif" font-size="9.00">(search)</text>
</a>
</g>
<!-- ns1os&#45;&gt;ctoolsload -->
<g id="edge36" class="edge"><title>ns1os&#45;&gt;ctoolsload</title>
<path fill="none" stroke="black" d="M364.13,-403.926C320.137,-389.185 247.985,-363.878 195.543,-344.898"/>
<polygon fill="black" stroke="black" points="363.675,-405.619 368.972,-405.544 364.784,-402.299 363.675,-405.619"/>
<polygon fill="black" stroke="black" points="195.829,-343.14 190.531,-343.081 194.636,-346.43 195.829,-343.14"/>
</g>
<!-- ns1os&#45;&gt;ctoolsload -->
<g id="edge5" class="edge"><title>ns1os&#45;&gt;ctoolsload</title>
<path fill="none" stroke="cyan" stroke-dasharray="1,5" d="M364.176,-400.489C323.364,-385.441 258.273,-362.366 207.185,-344.774"/>
<polygon fill="cyan" stroke="cyan" points="363.633,-402.153 368.93,-402.246 364.847,-398.87 363.633,-402.153"/>
<polygon fill="cyan" stroke="cyan" points="207.584,-343.061 202.286,-343.089 206.445,-346.37 207.584,-343.061"/>
</g>
<!-- testctools -->
<g id="node25" class="node"><title>testctools</title>
<a xlink:href="https://testctools.ds.itd.umich.edu" xlink:title="{Testctools (staging)|{&lt;crab&gt; crab|&lt;sstest&gt; mussel\n(search)}}">
<polygon fill="none" stroke="black" points="356,-297 356,-343 450,-343 450,-297 356,-297"/>
<text text-anchor="middle" x="403" y="-330.9" font-family="Times Roman,serif" font-size="9.00">Testctools (staging)</text>
<polyline fill="none" stroke="black" points="356,-325 450,-325 "/>
<text text-anchor="middle" x="375.5" y="-307.9" font-family="Times Roman,serif" font-size="9.00">crab</text>
<polyline fill="none" stroke="black" points="395,-297 395,-325 "/>
<text text-anchor="middle" x="422.5" y="-312.9" font-family="Times Roman,serif" font-size="9.00">mussel</text>
<text text-anchor="middle" x="422.5" y="-302.9" font-family="Times Roman,serif" font-size="9.00">(search)</text>
</a>
</g>
<!-- ns1os&#45;&gt;testctools -->
<g id="edge24" class="edge"><title>ns1os&#45;&gt;testctools</title>
<path fill="none" stroke="black" d="M403,-392.613C403,-379.202 403,-362.278 403,-348.142"/>
<polygon fill="black" stroke="black" points="401.25,-392.943 403,-397.943 404.75,-392.943 401.25,-392.943"/>
<polygon fill="black" stroke="black" points="404.75,-348.073 403,-343.073 401.25,-348.073 404.75,-348.073"/>
</g>
<!-- ctdev -->
<g id="node47" class="node"><title>ctdev</title>
<a xlink:href="https://ctdev.ds.itd.umich.edu" xlink:title="{CTdev|{bbq|kebab}}">
<polygon fill="none" stroke="black" points="521.5,-302 521.5,-338 594.5,-338 594.5,-302 521.5,-302"/>
<text text-anchor="middle" x="558" y="-325.9" font-family="Times Roman,serif" font-size="9.00">CTdev</text>
<polyline fill="none" stroke="black" points="521.5,-320 594.5,-320 "/>
<text text-anchor="middle" x="537.5" y="-307.9" font-family="Times Roman,serif" font-size="9.00">bbq</text>
<polyline fill="none" stroke="black" points="553.5,-302 553.5,-320 "/>
<text text-anchor="middle" x="574" y="-307.9" font-family="Times Roman,serif" font-size="9.00">kebab</text>
</a>
</g>
<!-- ns1os&#45;&gt;ctdev -->
<g id="edge50" class="edge"><title>ns1os&#45;&gt;ctdev</title>
<path fill="none" stroke="black" d="M436.465,-395.274C462.432,-379.19 498.271,-356.993 524.299,-340.873"/>
<polygon fill="black" stroke="black" points="435.484,-393.823 432.154,-397.943 437.327,-396.798 435.484,-393.823"/>
<polygon fill="black" stroke="black" points="525.384,-342.259 528.713,-338.139 523.541,-339.284 525.384,-342.259"/>
</g>
<!-- ctint -->
<g id="node57" class="node"><title>ctint</title>
<a xlink:href="https://ctint.ds.itd.umich.edu" xlink:title="{CTInt|{virtappsrvr01|virtappsrvr02}}">
<polygon fill="none" stroke="black" points="652.5,-302 652.5,-338 791.5,-338 791.5,-302 652.5,-302"/>
<text text-anchor="middle" x="722" y="-325.9" font-family="Times Roman,serif" font-size="9.00">CTInt</text>
<polyline fill="none" stroke="black" points="652.5,-320 791.5,-320 "/>
<text text-anchor="middle" x="687" y="-307.9" font-family="Times Roman,serif" font-size="9.00">virtappsrvr01</text>
<polyline fill="none" stroke="black" points="721.5,-302 721.5,-320 "/>
<text text-anchor="middle" x="756.5" y="-307.9" font-family="Times Roman,serif" font-size="9.00">virtappsrvr02</text>
</a>
</g>
<!-- ns1os&#45;&gt;ctint -->
<g id="edge62" class="edge"><title>ns1os&#45;&gt;ctint</title>
<path fill="none" stroke="black" d="M441.986,-404.267C495.539,-388.151 592.551,-358.957 657.135,-339.52"/>
<polygon fill="black" stroke="black" points="441.422,-402.61 437.139,-405.726 442.431,-405.961 441.422,-402.61"/>
<polygon fill="black" stroke="black" points="657.832,-341.138 662.116,-338.022 656.823,-337.787 657.832,-341.138"/>
</g>
<!-- loadtestvus -->
<g id="node4" class="node"><title>loadtestvus</title>
<image xlink:href="icons/cloud.png" width="22px" height="22px" preserveAspectRatio="xMinYMin meet" x="432" y="-517"/>
<polygon fill="none" stroke="black" stroke-width="0" points="470,-524 416,-524 416,-488 470,-488 470,-524"/>
<text text-anchor="middle" x="443" y="-515.9" font-family="Times Roman,serif" font-size="9.00">LR VUs</text>
</g>
<!-- loadtestvus&#45;&gt;ns1os -->
<g id="edge4" class="edge"><title>loadtestvus&#45;&gt;ns1os</title>
<path fill="none" stroke="cyan" stroke-dasharray="1,5" d="M432.704,-482.834C426.712,-469.352 419.186,-452.419 413.209,-438.97"/>
<polygon fill="cyan" stroke="cyan" points="431.275,-483.929 434.905,-487.787 434.474,-482.507 431.275,-483.929"/>
<polygon fill="cyan" stroke="cyan" points="414.712,-438.044 411.083,-434.186 411.514,-439.466 414.712,-438.044"/>
</g>
<!-- umiacload -->
<g id="node24" class="node"><title>umiacload</title>
<polygon fill="none" stroke="brown" points="218.893,-236.562 178,-249 137.107,-236.562 137.145,-216.438 218.855,-216.438 218.893,-236.562"/>
<text text-anchor="middle" x="178" y="-227.9" font-family="Times Roman,serif" font-size="9.00">umiacload</text>
</g>
<!-- ctoolsload&#45;&gt;umiacload -->
<g id="edge38" class="edge"><title>ctoolsload&#45;&gt;umiacload</title>
<path fill="none" stroke="brown" d="M143.349,-296.616C150.761,-282.58 160.1,-264.896 167.215,-251.423"/>
<polygon fill="brown" stroke="brown" points="168.94,-251.904 169.727,-246.665 165.845,-250.269 168.94,-251.904"/>
</g>
<!-- dbctload -->
<g id="node39" class="node"><title>dbctload</title>
<image xlink:href="icons/db.jpg" width="64px" height="50px" preserveAspectRatio="xMinYMin meet" x="96" y="-166"/>
<polygon fill="none" stroke="black" stroke-width="0" points="168,-166 88,-166 88,-116 168,-116 168,-166"/>
<text text-anchor="middle" x="128" y="-157.9" font-family="Times Roman,serif" font-size="9.00">ctools_convert3</text>
</g>
<!-- ctoolsload&#45;&gt;dbctload -->
<g id="edge40" class="edge"><title>ctoolsload&#45;&gt;dbctload</title>
<path fill="none" stroke="blue" d="M128.846,-291.412C128.493,-285.65 128.184,-279.634 128,-274 126.851,-238.734 127.074,-198.18 127.44,-171.217"/>
<polygon fill="blue" stroke="blue" points="127.113,-291.735 129.179,-296.613 130.606,-291.511 127.113,-291.735"/>
<polygon fill="blue" stroke="blue" points="129.193,-171.036 127.515,-166.011 125.693,-170.985 129.193,-171.036"/>
</g>
<!-- ctfsload -->
<g id="node42" class="node"><title>ctfsload</title>
<image xlink:href="icons/disk_subsystem.png" width="22px" height="22px" preserveAspectRatio="xMinYMin meet" x="265" y="-62"/>
<polygon fill="none" stroke="black" stroke-width="0" points="303,-69 249,-69 249,-33 303,-33 303,-69"/>
<text text-anchor="middle" x="276" y="-60.9" font-family="Times Roman,serif" font-size="9.00">ctfsload</text>
</g>
<!-- ctoolsload&#45;&gt;ctfsload -->
<g id="edge44" class="edge"><title>ctoolsload&#45;&gt;ctfsload</title>
<path fill="none" stroke="red" d="M109.815,-292.798C78.8683,-249.523 29.3782,-164.163 72,-108 92.7399,-80.6708 191.623,-62.899 243.718,-55.2712"/>
<polygon fill="red" stroke="red" points="108.4,-293.827 112.749,-296.853 111.236,-291.776 108.4,-293.827"/>
<polygon fill="red" stroke="red" points="244.216,-56.9675 248.914,-54.5212 243.716,-53.5034 244.216,-56.9675"/>
</g>
<!-- lrc -->
<g id="node7" class="node"><title>lrc</title>
<ellipse fill="none" stroke="black" cx="443" cy="-672" rx="65.8179" ry="18"/>
<text text-anchor="middle" x="443" y="-668.9" font-family="Times Roman,serif" font-size="9.00">LR Controller (Windows)</text>
</g>
<!-- abalone -->
<g id="node9" class="node"><title>abalone</title>
<ellipse fill="none" stroke="black" cx="480" cy="-589" rx="27.7938" ry="18"/>
<text text-anchor="middle" x="480" y="-585.9" font-family="Times Roman,serif" font-size="9.00">abalone</text>
</g>
<!-- lrc&#45;&gt;abalone -->
<g id="edge12" class="edge"><title>lrc&#45;&gt;abalone</title>
<path fill="none" stroke="cyan" d="M453.173,-649.18C458.441,-637.363 464.847,-622.993 470.078,-611.258"/>
<polygon fill="cyan" stroke="cyan" points="451.466,-648.711 451.028,-653.99 454.663,-650.136 451.466,-648.711"/>
<polygon fill="cyan" stroke="cyan" points="471.803,-611.685 472.241,-606.406 468.607,-610.26 471.803,-611.685"/>
</g>
<!-- venison -->
<g id="node10" class="node"><title>venison</title>
<ellipse fill="none" stroke="black" cx="406" cy="-589" rx="27.7938" ry="18"/>
<text text-anchor="middle" x="406" y="-585.9" font-family="Times Roman,serif" font-size="9.00">venison</text>
</g>
<!-- lrc&#45;&gt;venison -->
<g id="edge14" class="edge"><title>lrc&#45;&gt;venison</title>
<path fill="none" stroke="cyan" d="M432.827,-649.18C427.559,-637.363 421.153,-622.993 415.922,-611.258"/>
<polygon fill="cyan" stroke="cyan" points="431.337,-650.136 434.972,-653.99 434.534,-648.711 431.337,-650.136"/>
<polygon fill="cyan" stroke="cyan" points="417.393,-610.26 413.759,-606.406 414.197,-611.685 417.393,-610.26"/>
</g>
<!-- abalone&#45;&gt;loadtestvus -->
<g id="edge8" class="edge"><title>abalone&#45;&gt;loadtestvus</title>
<path fill="none" stroke="cyan" d="M470.04,-566.658C464.846,-555.005 458.5,-540.77 453.262,-529.02"/>
<polygon fill="cyan" stroke="cyan" points="468.519,-567.544 472.153,-571.398 471.716,-566.118 468.519,-567.544"/>
<polygon fill="cyan" stroke="cyan" points="454.725,-528.005 451.091,-524.151 451.529,-529.43 454.725,-528.005"/>
</g>
<!-- venison&#45;&gt;loadtestvus -->
<g id="edge10" class="edge"><title>venison&#45;&gt;loadtestvus</title>
<path fill="none" stroke="cyan" d="M415.96,-566.658C421.154,-555.005 427.5,-540.77 432.738,-529.02"/>
<polygon fill="cyan" stroke="cyan" points="414.284,-566.118 413.847,-571.398 417.481,-567.544 414.284,-566.118"/>
<polygon fill="cyan" stroke="cyan" points="434.471,-529.43 434.909,-524.151 431.275,-528.005 434.471,-529.43"/>
</g>
<!-- HEQA -->
<g id="node15" class="node"><title>HEQA</title>
<image xlink:href="icons/db.jpg" width="54px" height="50px" preserveAspectRatio="xMinYMin meet" x="605" y="-441"/>
<polygon fill="none" stroke="black" stroke-width="0" points="659,-441 605,-441 605,-391 659,-391 659,-441"/>
<text text-anchor="middle" x="632" y="-432.9" font-family="Times Roman,serif" font-size="9.00">HEQA</text>
</g>
<!-- heqaumiac -->
<g id="node19" class="node"><title>heqaumiac</title>
<polygon fill="none" stroke="brown" points="903.032,-236.562 860,-249 816.968,-236.562 817.008,-216.438 902.992,-216.438 903.032,-236.562"/>
<text text-anchor="middle" x="860" y="-227.9" font-family="Times Roman,serif" font-size="9.00">heqaumiac</text>
</g>
<!-- HEQA&#45;&gt;heqaumiac -->
<g id="edge17" class="edge"><title>HEQA&#45;&gt;heqaumiac</title>
<path fill="none" stroke="brown" d="M659.231,-410.305C695.27,-401.552 759.017,-381.707 800,-344 827.584,-318.621 844.873,-277.6 853.455,-252.587"/>
<polygon fill="brown" stroke="brown" points="855.127,-253.104 855.055,-247.807 851.808,-251.992 855.127,-253.104"/>
</g>
<!-- HEODS -->
<g id="node16" class="node"><title>HEODS</title>
<image xlink:href="icons/db.jpg" width="54px" height="50px" preserveAspectRatio="xMinYMin meet" x="533" y="-441"/>
<polygon fill="none" stroke="black" stroke-width="0" points="587,-441 533,-441 533,-391 587,-391 587,-441"/>
<text text-anchor="middle" x="560" y="-432.9" font-family="Times Roman,serif" font-size="9.00">HEODS</text>
</g>
<!-- umiac -->
<g id="node20" class="node"><title>umiac</title>
<polygon fill="none" stroke="brown" points="337.763,-325.562 309,-338 280.237,-325.562 280.263,-305.438 337.737,-305.438 337.763,-325.562"/>
<text text-anchor="middle" x="309" y="-316.9" font-family="Times Roman,serif" font-size="9.00">umiac</text>
</g>
<!-- HEODS&#45;&gt;umiac -->
<g id="edge19" class="edge"><title>HEODS&#45;&gt;umiac</title>
<path fill="none" stroke="brown" d="M539.461,-390.683C536.213,-387.761 532.697,-385.086 529,-383 456.959,-342.337 423.601,-375.237 347,-344 340.782,-341.464 334.45,-337.921 328.783,-334.334"/>
<polygon fill="brown" stroke="brown" points="329.736,-332.867 324.593,-331.599 327.823,-335.797 329.736,-332.867"/>
</g>
<!-- dbheqaumiac -->
<g id="node54" class="node"><title>dbheqaumiac</title>
<image xlink:href="icons/db.jpg" width="60px" height="50px" preserveAspectRatio="xMinYMin meet" x="677" y="-166"/>
<polygon fill="none" stroke="black" stroke-width="0" points="737,-166 677,-166 677,-116 737,-116 737,-166"/>
<text text-anchor="middle" x="707" y="-157.9" font-family="Times Roman,serif" font-size="9.00">heqaumiac</text>
</g>
<!-- heqaumiac&#45;&gt;dbheqaumiac -->
<g id="edge58" class="edge"><title>heqaumiac&#45;&gt;dbheqaumiac</title>
<path fill="none" stroke="blue" d="M830.551,-213.677C805.179,-198.752 768.518,-177.187 741.721,-161.424"/>
<polygon fill="blue" stroke="blue" points="829.88,-215.313 835.077,-216.34 831.655,-212.296 829.88,-215.313"/>
<polygon fill="blue" stroke="blue" points="742.371,-159.776 737.174,-158.749 740.596,-162.793 742.371,-159.776"/>
</g>
<!-- testumiac -->
<g id="node22" class="node"><title>testumiac</title>
<polygon fill="none" stroke="brown" points="352.754,-236.562 314,-249 275.246,-236.562 275.283,-216.438 352.717,-216.438 352.754,-236.562"/>
<text text-anchor="middle" x="314" y="-227.9" font-family="Times Roman,serif" font-size="9.00">testumiac</text>
</g>
<!-- umiac&#45;&gt;testumiac -->
<g id="edge20" class="edge"><title>umiac&#45;&gt;testumiac</title>
<path fill="none" stroke="brown" d="M309.826,-305.303C310.608,-291.375 311.796,-270.237 312.704,-254.064"/>
<polygon fill="brown" stroke="brown" points="314.467,-253.877 313.001,-248.787 310.973,-253.681 314.467,-253.877"/>
</g>
<!-- umiac&#45;&gt;umiacload -->
<g id="edge22" class="edge"><title>umiac&#45;&gt;umiacload</title>
<path fill="none" stroke="brown" stroke-dasharray="1,5" d="M286.181,-305.389C281.2,-302.255 275.94,-298.989 271,-296 254.303,-285.899 249.17,-284.925 233,-274 220.942,-265.853 208.097,-255.89 197.855,-247.606"/>
<polygon fill="brown" stroke="brown" points="198.904,-246.204 193.922,-244.404 196.694,-248.918 198.904,-246.204"/>
</g>
<!-- dbtestumiac -->
<g id="node31" class="node"><title>dbtestumiac</title>
<image xlink:href="icons/db.jpg" width="54px" height="50px" preserveAspectRatio="xMinYMin meet" x="453" y="-166"/>
<polygon fill="none" stroke="black" stroke-width="0" points="507,-166 453,-166 453,-116 507,-116 507,-166"/>
<text text-anchor="middle" x="480" y="-157.9" font-family="Times Roman,serif" font-size="9.00">umiacv2</text>
</g>
<!-- testumiac&#45;&gt;dbtestumiac -->
<g id="edge30" class="edge"><title>testumiac&#45;&gt;dbtestumiac</title>
<path fill="none" stroke="blue" d="M335.66,-216.374C342.826,-212.121 351.014,-207.857 359,-205 395.049,-192.103 411.46,-211.175 444,-191 452.131,-185.959 458.974,-178.337 464.438,-170.554"/>
<polygon fill="blue" stroke="blue" points="466.005,-171.357 467.33,-166.228 463.096,-169.412 466.005,-171.357"/>
</g>
<!-- dbumiacload -->
<g id="node41" class="node"><title>dbumiacload</title>
<image xlink:href="icons/db.jpg" width="54px" height="50px" preserveAspectRatio="xMinYMin meet" x="188" y="-166"/>
<polygon fill="none" stroke="black" stroke-width="0" points="242,-166 188,-166 188,-116 242,-116 242,-166"/>
<text text-anchor="middle" x="215" y="-157.9" font-family="Times Roman,serif" font-size="9.00">umiacv2</text>
</g>
<!-- umiacload&#45;&gt;dbumiacload -->
<g id="edge42" class="edge"><title>umiacload&#45;&gt;dbumiacload</title>
<path fill="none" stroke="blue" d="M184.11,-216.138C189.169,-203.831 196.517,-185.958 202.777,-170.731"/>
<polygon fill="blue" stroke="blue" points="204.398,-171.39 204.681,-166.1 201.161,-170.059 204.398,-171.39"/>
</g>
<!-- testctools&#45;&gt;testumiac -->
<g id="edge26" class="edge"><title>testctools&#45;&gt;testumiac</title>
<path fill="none" stroke="brown" d="M379.616,-296.616C364.552,-281.552 345.284,-262.284 331.533,-248.533"/>
<polygon fill="brown" stroke="brown" points="332.582,-247.107 327.809,-244.809 330.107,-249.582 332.582,-247.107"/>
</g>
<!-- dbcttest -->
<g id="node29" class="node"><title>dbcttest</title>
<image xlink:href="icons/db.jpg" width="64px" height="50px" preserveAspectRatio="xMinYMin meet" x="366" y="-166"/>
<polygon fill="none" stroke="black" stroke-width="0" points="435,-166 361,-166 361,-116 435,-116 435,-166"/>
<text text-anchor="middle" x="398" y="-157.9" font-family="Times Roman,serif" font-size="9.00">ctools_convert</text>
</g>
<!-- testctools&#45;&gt;dbcttest -->
<g id="edge28" class="edge"><title>testctools&#45;&gt;dbcttest</title>
<path fill="none" stroke="blue" d="M351.11,-297.468C349.73,-296.963 348.358,-296.473 347,-296 311.77,-283.734 288.659,-303.634 266,-274 247.373,-249.639 246.134,-228.362 266,-205 291.087,-175.499 317.908,-209.369 352,-191 361.548,-185.855 370.172,-177.956 377.304,-169.944"/>
<polygon fill="blue" stroke="blue" points="350.53,-299.119 355.826,-299.233 351.757,-295.841 350.53,-299.119"/>
<polygon fill="blue" stroke="blue" points="378.75,-170.946 380.682,-166.013 376.096,-168.664 378.75,-170.946"/>
</g>
<!-- afscttest -->
<g id="node32" class="node"><title>afscttest</title>
<image xlink:href="icons/disk_subsystem.png" width="22px" height="22px" preserveAspectRatio="xMinYMin meet" x="387" y="-242"/>
<polygon fill="none" stroke="black" stroke-width="0" points="425,-249 371,-249 371,-213 425,-213 425,-249"/>
<text text-anchor="middle" x="398" y="-240.9" font-family="Times Roman,serif" font-size="9.00">/ctfstest</text>
</g>
<!-- testctools&#45;&gt;afscttest -->
<g id="edge32" class="edge"><title>testctools&#45;&gt;afscttest</title>
<path fill="none" stroke="red" d="M401.405,-291.615C400.728,-279.557 399.948,-265.673 399.305,-254.238"/>
<polygon fill="red" stroke="red" points="399.659,-291.722 401.686,-296.616 403.153,-291.526 399.659,-291.722"/>
<polygon fill="red" stroke="red" points="401.049,-254.065 399.021,-249.171 397.554,-254.262 401.049,-254.065"/>
</g>
<!-- afscttestsearch -->
<g id="node34" class="node"><title>afscttestsearch</title>
<image xlink:href="icons/disk_subsystem.png" width="22px" height="22px" preserveAspectRatio="xMinYMin meet" x="459" y="-242"/>
<polygon fill="none" stroke="black" stroke-width="0" points="497,-249 443,-249 443,-213 497,-213 497,-249"/>
<text text-anchor="middle" x="470" y="-240.9" font-family="Times Roman,serif" font-size="9.00">/ctpitest</text>
</g>
<!-- testctools&#45;&gt;afscttestsearch -->
<g id="edge34" class="edge"><title>testctools:sstest&#45;&gt;afscttestsearch</title>
<path fill="none" stroke="purple" d="M424.665,-292.261C429.07,-283.607 441.427,-267.056 452.129,-253.337"/>
<polygon fill="purple" stroke="purple" points="423.006,-291.703 423,-297 426.308,-292.863 423.006,-291.703"/>
<polygon fill="purple" stroke="purple" points="453.679,-254.197 455.387,-249.182 450.924,-252.037 453.679,-254.197"/>
</g>
<!-- voldbcttest -->
<g id="node64" class="node"><title>voldbcttest</title>
<image xlink:href="icons/disk_subsystem.png" width="22px" height="22px" preserveAspectRatio="xMinYMin meet" x="428" y="-62"/>
<polygon fill="none" stroke="black" stroke-width="0" points="469,-69 409,-69 409,-33 469,-33 469,-69"/>
<text text-anchor="middle" x="439" y="-60.9" font-family="Times Roman,serif" font-size="9.00">voldbcttest</text>
</g>
<!-- dbcttest&#45;&gt;voldbcttest -->
<g id="edge70" class="edge"><title>dbcttest&#45;&gt;voldbcttest</title>
<path fill="none" stroke="green" d="M411.533,-111.294C417.093,-99.0891 423.429,-85.1806 428.613,-73.7998"/>
<polygon fill="green" stroke="green" points="409.901,-110.654 409.421,-115.93 413.086,-112.105 409.901,-110.654"/>
<polygon fill="green" stroke="green" points="430.279,-74.365 430.759,-69.0894 427.094,-72.914 430.279,-74.365"/>
</g>
<!-- dbtestumiac&#45;&gt;voldbcttest -->
<g id="edge72" class="edge"><title>dbtestumiac&#45;&gt;voldbcttest</title>
<path fill="none" stroke="green" d="M466.467,-111.294C460.907,-99.0891 454.571,-85.1806 449.387,-73.7998"/>
<polygon fill="green" stroke="green" points="464.914,-112.105 468.579,-115.93 468.099,-110.654 464.914,-112.105"/>
<polygon fill="green" stroke="green" points="450.906,-72.914 447.241,-69.0894 447.721,-74.365 450.906,-72.914"/>
</g>
<!-- voldbctfsload -->
<g id="node44" class="node"><title>voldbctfsload</title>
<image xlink:href="icons/disk_subsystem.png" width="22px" height="22px" preserveAspectRatio="xMinYMin meet" x="345" y="-62"/>
<polygon fill="none" stroke="black" stroke-width="0" points="391,-69 321,-69 321,-33 391,-33 391,-69"/>
<text text-anchor="middle" x="356" y="-60.9" font-family="Times Roman,serif" font-size="9.00">voldbctfsload</text>
</g>
<!-- dbctload&#45;&gt;voldbctfsload -->
<g id="edge46" class="edge"><title>dbctload&#45;&gt;voldbctfsload</title>
<path fill="none" stroke="green" d="M166.404,-113.556C170.527,-111.408 174.765,-109.496 179,-108 235.043,-88.2012 258.208,-119.284 312,-94 322.301,-89.1583 331.65,-80.8967 339.055,-72.9013"/>
<polygon fill="green" stroke="green" points="165.532,-112.038 161.982,-115.971 167.209,-115.11 165.532,-112.038"/>
<polygon fill="green" stroke="green" points="340.502,-73.908 342.529,-69.0138 337.893,-71.5755 340.502,-73.908"/>
</g>
<!-- dbumiacload&#45;&gt;voldbctfsload -->
<g id="edge48" class="edge"><title>dbumiacload&#45;&gt;voldbctfsload</title>
<path fill="none" stroke="green" d="M246.836,-113.862C250.152,-111.692 253.568,-109.69 257,-108 279.629,-96.8559 290.005,-106.348 312,-94 321.605,-88.6077 330.611,-80.582 337.943,-72.9196"/>
<polygon fill="green" stroke="green" points="245.519,-112.642 242.382,-116.911 247.497,-115.53 245.519,-112.642"/>
<polygon fill="green" stroke="green" points="339.278,-74.0532 341.403,-69.2003 336.716,-71.6692 339.278,-74.0532"/>
</g>
<!-- ctdev&#45;&gt;heqaumiac -->
<g id="edge52" class="edge"><title>ctdev&#45;&gt;heqaumiac</title>
<path fill="none" stroke="brown" stroke-dasharray="5,2" d="M594.637,-308.972C609.829,-304.609 627.685,-299.751 644,-296 697.269,-283.752 712.822,-290.281 765,-274 788.898,-266.543 814.697,-254.596 833.37,-245.185"/>
<polygon fill="brown" stroke="brown" points="834.296,-246.678 837.959,-242.851 832.709,-243.558 834.296,-246.678"/>
</g>
<!-- ctdev&#45;&gt;testumiac -->
<g id="edge54" class="edge"><title>ctdev&#45;&gt;testumiac</title>
<path fill="none" stroke="brown" stroke-dasharray="5,2" d="M521.372,-310.924C502.722,-306.352 479.677,-300.78 459,-296 414.662,-285.75 399.161,-295.401 359,-274 347.691,-267.973 337.202,-258.302 329.201,-249.657"/>
<polygon fill="brown" stroke="brown" points="330.124,-248.065 325.481,-245.516 327.52,-250.405 330.124,-248.065"/>
</g>
<!-- dbctdev -->
<g id="node52" class="node"><title>dbctdev</title>
<image xlink:href="icons/db.jpg" width="60px" height="50px" preserveAspectRatio="xMinYMin meet" x="525" y="-166"/>
<polygon fill="none" stroke="black" stroke-width="0" points="585,-166 525,-166 525,-116 585,-116 585,-166"/>
<text text-anchor="middle" x="555" y="-157.9" font-family="Times Roman,serif" font-size="9.00">ctools_dev</text>
</g>
<!-- ctdev&#45;&gt;dbctdev -->
<g id="edge56" class="edge"><title>ctdev&#45;&gt;dbctdev</title>
<path fill="none" stroke="blue" d="M599.831,-308.01C613.844,-304.078 629.571,-299.756 644,-296 684.267,-285.517 709.266,-306.697 735,-274 753.966,-249.902 755.585,-227.731 735,-205 713.864,-181.661 621.577,-206.197 594,-191 585.214,-186.158 577.741,-178.428 571.76,-170.479"/>
<polygon fill="blue" stroke="blue" points="599.091,-306.4 594.751,-309.439 600.039,-309.77 599.091,-306.4"/>
<polygon fill="blue" stroke="blue" points="572.927,-169.103 568.592,-166.058 570.082,-171.141 572.927,-169.103"/>
</g>
<!-- afsctpilot -->
<g id="node55" class="node"><title>afsctpilot</title>
<image xlink:href="icons/disk_subsystem.png" width="22px" height="22px" preserveAspectRatio="xMinYMin meet" x="547" y="-242"/>
<polygon fill="none" stroke="black" stroke-width="0" points="601,-249 515,-249 515,-213 601,-213 601,-249"/>
<text text-anchor="middle" x="558" y="-240.9" font-family="Times Roman,serif" font-size="9.00">/ctpilot/fs10[1,2,3]</text>
</g>
<!-- ctdev&#45;&gt;afsctpilot -->
<g id="edge60" class="edge"><title>ctdev&#45;&gt;afsctpilot</title>
<path fill="none" stroke="red" d="M558,-296.736C558,-283.664 558,-267.397 558,-254.315"/>
<polygon fill="red" stroke="red" points="556.25,-296.989 558,-301.99 559.75,-296.99 556.25,-296.989"/>
<polygon fill="red" stroke="red" points="559.75,-254.289 558,-249.289 556.25,-254.289 559.75,-254.289"/>
</g>
<!-- dbctdev&#45;&gt;voldbcttest -->
<g id="edge74" class="edge"><title>dbctdev&#45;&gt;voldbcttest</title>
<path fill="none" stroke="green" d="M521.784,-112.647C519.837,-111.062 517.899,-109.504 516,-108 500.638,-95.8357 483.108,-82.7956 468.658,-72.2621"/>
<polygon fill="green" stroke="green" points="520.806,-114.109 525.782,-115.927 523.026,-111.403 520.806,-114.109"/>
<polygon fill="green" stroke="green" points="469.352,-70.6026 464.279,-69.0772 467.293,-73.4333 469.352,-70.6026"/>
</g>
<!-- dbheqaumiac&#45;&gt;voldbcttest -->
<g id="edge78" class="edge"><title>dbheqaumiac&#45;&gt;voldbcttest</title>
<path fill="none" stroke="green" d="M676.266,-112.911C673.568,-111.1 670.798,-109.432 668,-108 604.264,-75.3749 520.826,-60.7299 474.289,-54.7206"/>
<polygon fill="green" stroke="green" points="675.345,-114.403 680.437,-115.862 677.366,-111.546 675.345,-114.403"/>
<polygon fill="green" stroke="green" points="474.256,-52.9527 469.077,-54.0638 473.819,-56.4252 474.256,-52.9527"/>
</g>
<!-- ctint&#45;&gt;heqaumiac -->
<g id="edge64" class="edge"><title>ctint&#45;&gt;heqaumiac</title>
<path fill="none" stroke="brown" d="M756.083,-301.933C770.778,-293.816 787.998,-283.858 803,-274 815.438,-265.827 828.746,-255.862 839.373,-247.583"/>
<polygon fill="brown" stroke="brown" points="840.6,-248.846 843.455,-244.384 838.44,-246.091 840.6,-248.846"/>
</g>
<!-- dbctint -->
<g id="node61" class="node"><title>dbctint</title>
<image xlink:href="icons/db.jpg" width="56px" height="50px" preserveAspectRatio="xMinYMin meet" x="603" y="-166"/>
<polygon fill="none" stroke="black" stroke-width="0" points="659,-166 603,-166 603,-116 659,-116 659,-166"/>
<text text-anchor="middle" x="631" y="-157.9" font-family="Times Roman,serif" font-size="9.00">ctint_user</text>
</g>
<!-- ctint&#45;&gt;dbctint -->
<g id="edge66" class="edge"><title>ctint&#45;&gt;dbctint</title>
<path fill="none" stroke="blue" d="M742.92,-297.634C748.234,-290.592 753.221,-282.436 756,-274 765.596,-244.873 775.908,-228.326 756,-205 730.29,-174.877 701.85,-211.556 668,-191 659.667,-185.94 652.61,-178.23 646.965,-170.369"/>
<polygon fill="blue" stroke="blue" points="741.305,-296.856 739.587,-301.867 744.055,-299.022 741.305,-296.856"/>
<polygon fill="blue" stroke="blue" points="648.244,-169.139 643.975,-166.002 645.356,-171.116 648.244,-169.139"/>
</g>
<!-- afsctpilotint -->
<g id="node62" class="node"><title>afsctpilotint</title>
<image xlink:href="icons/disk_subsystem.png" width="22px" height="22px" preserveAspectRatio="xMinYMin meet" x="660" y="-242"/>
<polygon fill="none" stroke="black" stroke-width="0" points="723,-249 619,-249 619,-213 723,-213 723,-249"/>
<text text-anchor="middle" x="671" y="-240.9" font-family="Times Roman,serif" font-size="9.00">/ctpilot/ctint/fs10[1,2,3]</text>
</g>
<!-- ctint&#45;&gt;afsctpilotint -->
<g id="edge68" class="edge"><title>ctint&#45;&gt;afsctpilotint</title>
<path fill="none" stroke="red" d="M709.114,-297.512C701.433,-284.108 691.711,-267.144 684.009,-253.702"/>
<polygon fill="red" stroke="red" points="707.675,-298.521 711.679,-301.99 710.712,-296.781 707.675,-298.521"/>
<polygon fill="red" stroke="red" points="685.485,-252.757 681.48,-249.289 682.448,-254.497 685.485,-252.757"/>
</g>
<!-- dbctint&#45;&gt;voldbcttest -->
<g id="edge76" class="edge"><title>dbctint&#45;&gt;voldbcttest</title>
<path fill="none" stroke="green" d="M601.123,-112.751C598.785,-111.045 596.399,-109.439 594,-108 555.726,-85.0387 506.684,-68.9253 474.124,-59.8221"/>
<polygon fill="green" stroke="green" points="600.235,-114.275 605.271,-115.918 602.359,-111.493 600.235,-114.275"/>
<polygon fill="green" stroke="green" points="474.329,-58.0634 469.044,-58.4213 473.399,-61.4375 474.329,-58.0634"/>
</g>
<!-- dbctoolsarchive -->
<g id="node73" class="node"><title>dbctoolsarchive</title>
<image xlink:href="icons/db.jpg" width="64px" height="50px" preserveAspectRatio="xMinYMin meet" x="274" y="-166"/>
<polygon fill="none" stroke="black" stroke-width="0" points="343,-166 269,-166 269,-116 343,-116 343,-166"/>
<text text-anchor="middle" x="306" y="-157.9" font-family="Times Roman,serif" font-size="9.00">ctools_archive</text>
</g>
</g>
</svg>
