<?xml version="1.0" encoding="UTF-8" standalone="no"?>
<!DOCTYPE svg PUBLIC "-//W3C//DTD SVG 1.1//EN"
 "http://www.w3.org/Graphics/SVG/1.1/DTD/svg11.dtd">
<!-- Generated by graphviz version 2.26.3 (20100126.1600)
 -->
<!-- Title: ctools Pages: 1 -->
<svg width="446pt" height="628pt"
 viewBox="0.00 0.00 445.92 628.00" xmlns="http://www.w3.org/2000/svg" xmlns:xlink="http://www.w3.org/1999/xlink">
  <script type="text/javascript">
  <![CDATA[
    function Highlight(evt)
    {
       evt.target.setAttribute("opacity", "1.0");
    }
    function Unhighlight(evt)
    {
       evt.target.setAttribute("opacity", "0.4");
    }
    function ChangeColor(evt)
    {
       if (evt.type == "mousedown")
          evt.target.setAttribute("fill", "black");
       else if (evt.type == "mouseup")
          evt.target.setAttribute("fill", "yellowgreen");
    }
   function Magical(evt)
   {
   if (evt.type == "mouseover")
      evt.target.nextSibling.nextSibling.setAttribute("visibility", "hidden");
   else
      evt.target.nextSibling.nextSibling.removeAttribute("visibility");
   evt.stopPropagation ();
   }

  ]]>
  </script>
<g id="graph1" class="graph" transform="scale(1 1) rotate(0) translate(4 624)">
<title>ctools</title>
<polygon fill="white" stroke="white" points="-4,5 -4,-624 442.915,-624 442.915,5 -4,5"/>
<text text-anchor="middle" x="218.958" y="-7.4" font-family="Times Roman,serif" font-size="14.00">CTools backup systems</text>
<g id="graph2" class="cluster"><title>cluster_lb</title>
<polygon fill="none" stroke="black" points="235,-536 235,-612 405,-612 405,-536 235,-536"/>
<text text-anchor="middle" x="320" y="-595.4" font-family="Times Roman,serif" font-size="14.00">load balancers</text>
</g>
<g id="graph3" class="cluster"><title>cluster_storage</title>
<a xlink:href="http://ctstats.ds.itd.umich.edu/stats-bin/drraw.cgi?Mode=view&amp;Dashboard=1151462293.28892" xlink:title="boxcar netapp">
<polyline fill="none" stroke="black" points="55,-452 239,-452 "/>
<path fill="none" stroke="black" d="M239,-452C245,-452 251,-458 251,-464"/>
<polyline fill="none" stroke="black" points="251,-464 251,-516 "/>
<path fill="none" stroke="black" d="M251,-516C251,-522 245,-528 239,-528"/>
<polyline fill="none" stroke="black" points="239,-528 55,-528 "/>
<path fill="none" stroke="black" d="M55,-528C49,-528 43,-522 43,-516"/>
<polyline fill="none" stroke="black" points="43,-516 43,-464 "/>
<path fill="none" stroke="black" d="M43,-464C43,-458 49,-452 55,-452"/>
<text text-anchor="middle" x="147" y="-511.4" font-family="Times Roman,serif" font-size="14.00">boxcar netapp</text>
</a>
</g>
<g id="graph4" class="cluster"><title>cluster_macc_storage</title>
<a xlink:href="http://ctstats.os.itd.umich.edu/stats-bin/drraw.cgi?Mode=view;Dashboard=1233110962.16117" xlink:title="flatcar netapp">
<polyline fill="none" stroke="black" points="142,-88 404,-88 "/>
<path fill="none" stroke="black" d="M404,-88C410,-88 416,-94 416,-100"/>
<polyline fill="none" stroke="black" points="416,-100 416,-152 "/>
<path fill="none" stroke="black" d="M416,-152C416,-158 410,-164 404,-164"/>
<polyline fill="none" stroke="black" points="404,-164 142,-164 "/>
<path fill="none" stroke="black" d="M142,-164C136,-164 130,-158 130,-152"/>
<polyline fill="none" stroke="black" points="130,-152 130,-100 "/>
<path fill="none" stroke="black" d="M130,-100C130,-94 136,-88 142,-88"/>
<text text-anchor="middle" x="273" y="-147.4" font-family="Times Roman,serif" font-size="14.00">flatcar netapp</text>
</a>
</g>
<!-- UMNet -->
<g id="node1" class="node"><title>UMNet</title>
<image xlink:href="icons/router.png" width="22px" height="22px" preserveAspectRatio="xMinYMin meet" x="193" y="-345"/>
<polyline fill="none" stroke="black" stroke-width="0" stroke-dasharray="1,5" points="219,-352 189,-352 "/>
<path fill="none" stroke="black" stroke-width="0" stroke-dasharray="1,5" d="M189,-352C183,-352 177,-346 177,-340"/>
<polyline fill="none" stroke="black" stroke-width="0" stroke-dasharray="1,5" points="177,-340 177,-328 "/>
<path fill="none" stroke="black" stroke-width="0" stroke-dasharray="1,5" d="M177,-328C177,-322 183,-316 189,-316"/>
<polyline fill="none" stroke="black" stroke-width="0" stroke-dasharray="1,5" points="189,-316 219,-316 "/>
<path fill="none" stroke="black" stroke-width="0" stroke-dasharray="1,5" d="M219,-316C225,-316 231,-322 231,-328"/>
<polyline fill="none" stroke="black" stroke-width="0" stroke-dasharray="1,5" points="231,-328 231,-340 "/>
<path fill="none" stroke="black" stroke-width="0" stroke-dasharray="1,5" d="M231,-340C231,-346 225,-352 219,-352"/>
<text text-anchor="middle" x="204" y="-330.9" font-family="Times Roman,serif" font-size="9.00">ALDF</text>
</g>
<!-- UMNetMacc -->
<g id="node2" class="node"><title>UMNetMacc</title>
<image xlink:href="icons/router.png" width="22px" height="22px" preserveAspectRatio="xMinYMin meet" x="193" y="-273"/>
<polyline fill="none" stroke="black" stroke-width="0" stroke-dasharray="1,5" points="219,-280 189,-280 "/>
<path fill="none" stroke="black" stroke-width="0" stroke-dasharray="1,5" d="M189,-280C183,-280 177,-274 177,-268"/>
<polyline fill="none" stroke="black" stroke-width="0" stroke-dasharray="1,5" points="177,-268 177,-256 "/>
<path fill="none" stroke="black" stroke-width="0" stroke-dasharray="1,5" d="M177,-256C177,-250 183,-244 189,-244"/>
<polyline fill="none" stroke="black" stroke-width="0" stroke-dasharray="1,5" points="189,-244 219,-244 "/>
<path fill="none" stroke="black" stroke-width="0" stroke-dasharray="1,5" d="M219,-244C225,-244 231,-250 231,-256"/>
<polyline fill="none" stroke="black" stroke-width="0" stroke-dasharray="1,5" points="231,-256 231,-268 "/>
<path fill="none" stroke="black" stroke-width="0" stroke-dasharray="1,5" d="M231,-268C231,-274 225,-280 219,-280"/>
<text text-anchor="middle" x="204" y="-258.9" font-family="Times Roman,serif" font-size="9.00">MACC</text>
</g>
<!-- UMNet&#45;&gt;UMNetMacc -->
<g onmouseover="Highlight(evt);" onmouseout="Unhighlight(evt);" id="edge29" class="edge"><title>UMNet&#45;&gt;UMNetMacc</title>
<path fill="none" stroke="red" stroke-dasharray="5,2" d="M198.048,-315.831C197.149,-306.608 197.01,-295.295 197.63,-285.425"/>
<polygon fill="red" stroke="red" points="199.377,-285.535 198.024,-280.413 195.888,-285.261 199.377,-285.535"/>
</g>
<!-- UMNet&#45;&gt;UMNetMacc -->
<g onmouseover="Highlight(evt);" onmouseout="Unhighlight(evt);" id="edge35" class="edge"><title>UMNet&#45;&gt;UMNetMacc</title>
<path fill="none" stroke="blue" d="M209.952,-315.831C210.851,-306.608 210.99,-295.295 210.37,-285.425"/>
<polygon fill="blue" stroke="blue" points="212.112,-285.261 209.976,-280.413 208.623,-285.535 212.112,-285.261"/>
</g>
<!-- ns2 -->
<g id="node8" class="node"><title>ns2</title>
<a xlink:href="http://ctstats.ds.itd.umich.edu/stats-bin/drraw.cgi?Mode=view;Dashboard=1191545928.21917" xlink:title="ns2.ds lb">
<image xlink:href="icons/gswanson_Citrix_Netscaler_1.png" width="68px" height="30px" preserveAspectRatio="xMinYMin meet" x="243" y="-577"/>
<polygon fill="none" stroke="black" stroke-width="0" stroke-dasharray="1,5" points="311,-580 243,-580 243,-544 311,-544 311,-580"/>
<text text-anchor="middle" x="277" y="-558.9" font-family="Times Roman,serif" font-size="9.00">ns2.ds lb</text>
</a>
</g>
<!-- UMNet&#45;&gt;ns2 -->
<g onmouseover="Highlight(evt);" onmouseout="Unhighlight(evt);" id="edge24" class="edge"><title>UMNet&#45;&gt;ns2</title>
<path fill="none" stroke="brown" stroke-dasharray="1,5" d="M229.049,-356.187C237.684,-365.198 246.546,-376.253 252,-388 275.178,-437.922 278.106,-503.864 277.813,-538.476"/>
<polygon fill="brown" stroke="brown" points="230.128,-354.789 225.373,-352.454 227.635,-357.245 230.128,-354.789"/>
<polygon fill="brown" stroke="brown" points="276.059,-538.731 277.741,-543.755 279.559,-538.779 276.059,-538.731"/>
</g>
<!-- secctoolsdb -->
<g id="node5" class="node"><title>secctoolsdb</title>
<ellipse fill="none" stroke="blue" cx="60" cy="-114" rx="60.1208" ry="18"/>
<text text-anchor="middle" x="60" y="-110.9" font-family="Times Roman,serif" font-size="9.00">Secondary CTools DB</text>
</g>
<!-- UMNetMacc&#45;&gt;secctoolsdb -->
<g onmouseover="Highlight(evt);" onmouseout="Unhighlight(evt);" id="edge36" class="edge"><title>UMNetMacc&#45;&gt;secctoolsdb</title>
<path fill="none" stroke="blue" d="M185.817,-243.536C175.573,-233.119 162.553,-219.852 151,-208 126.624,-182.992 98.7034,-154.117 80.2888,-135.04"/>
<polygon fill="blue" stroke="blue" points="81.468,-133.742 76.7365,-131.36 78.9496,-136.173 81.468,-133.742"/>
</g>
<!-- reposnet -->
<g id="node31" class="node"><title>reposnet</title>
<ellipse fill="none" stroke="red" stroke-dasharray="5,2" cx="204" cy="-190" rx="43.9565" ry="18"/>
<text text-anchor="middle" x="204" y="-186.9" font-family="Times Roman,serif" font-size="9.00">192.168.254/29</text>
</g>
<!-- UMNetMacc&#45;&gt;reposnet -->
<g onmouseover="Highlight(evt);" onmouseout="Unhighlight(evt);" id="edge30" class="edge"><title>UMNetMacc&#45;&gt;reposnet</title>
<path fill="none" stroke="red" stroke-dasharray="5,2" d="M204,-243.831C204,-234.608 204,-223.295 204,-213.425"/>
<polygon fill="red" stroke="red" points="205.75,-213.413 204,-208.413 202.25,-213.413 205.75,-213.413"/>
</g>
<!-- ctoolsdb -->
<g id="node3" class="node"><title>ctoolsdb</title>
<a xlink:href="http://ctstats.ds.itd.umich.edu/stats-bin/drraw.cgi?Mode=view;Dashboard=1178035455.23662" xlink:title="CTools DB">
<ellipse fill="none" stroke="blue" cx="333" cy="-406" rx="34.0637" ry="18"/>
<text text-anchor="middle" x="333" y="-402.9" font-family="Times Roman,serif" font-size="9.00">CTools DB</text>
</a>
</g>
<!-- ctoolsdb&#45;&gt;UMNet -->
<g onmouseover="Highlight(evt);" onmouseout="Unhighlight(evt);" id="edge34" class="edge"><title>ctoolsdb&#45;&gt;UMNet</title>
<path fill="none" stroke="blue" d="M309.339,-392.794C288.609,-381.224 258.318,-364.317 235.534,-351.6"/>
<polygon fill="blue" stroke="blue" points="236.301,-350.024 231.082,-349.115 234.595,-353.08 236.301,-350.024"/>
</g>
<!-- volora -->
<g id="node16" class="node"><title>volora</title>
<image xlink:href="icons/disk_subsystem.png" width="22px" height="22px" preserveAspectRatio="xMinYMin meet" x="194" y="-489"/>
<polygon fill="none" stroke="blue" stroke-width="0" points="243,-496 167,-496 167,-460 243,-460 243,-496"/>
<text text-anchor="middle" x="205" y="-474.9" font-family="Times Roman,serif" font-size="9.00">Oracle DB vols</text>
</g>
<!-- ctoolsdb&#45;&gt;volora -->
<g onmouseover="Highlight(evt);" onmouseout="Unhighlight(evt);" id="edge13" class="edge"><title>ctoolsdb&#45;&gt;volora</title>
<path fill="none" stroke="green" stroke-dasharray="1,5" d="M308.109,-423.034C292.874,-431.506 273.284,-442.041 256,-452 253.172,-453.63 250.256,-455.349 247.312,-457.097"/>
<polygon fill="green" stroke="green" points="309.179,-424.441 312.69,-420.474 307.471,-421.386 309.179,-424.441"/>
<polygon fill="green" stroke="green" points="246.074,-455.796 242.67,-459.856 247.863,-458.805 246.074,-455.796"/>
</g>
<!-- umiac -->
<g id="node26" class="node"><title>umiac</title>
<ellipse fill="none" stroke="black" stroke-dasharray="1,5" cx="390" cy="-334" rx="27" ry="18"/>
<text text-anchor="middle" x="390" y="-330.9" font-family="Times Roman,serif" font-size="9.00">umiac</text>
</g>
<!-- ctoolsdb&#45;&gt;umiac -->
<g onmouseover="Highlight(evt);" onmouseout="Unhighlight(evt);" id="edge21" class="edge"><title>ctoolsdb&#45;&gt;umiac</title>
<path fill="none" stroke="black" d="M346.22,-389.301C354.539,-378.793 365.323,-365.171 374.106,-354.076"/>
<polygon fill="black" stroke="black" points="375.512,-355.12 377.244,-350.113 372.768,-352.947 375.512,-355.12"/>
</g>
<!-- appservers -->
<g id="node4" class="node"><title>appservers</title>
<a xlink:href="http://ctstats.ds.itd.umich.edu/stats-bin/drraw.cgi?Mode=view;Dashboard=1194322225.25790" xlink:title="CTools app servers">
<ellipse fill="none" stroke="black" stroke-dasharray="1,5" cx="353" cy="-478" rx="53.773" ry="18"/>
<text text-anchor="middle" x="353" y="-474.9" font-family="Times Roman,serif" font-size="9.00">CTools app servers</text>
</a>
</g>
<!-- appservers&#45;&gt;ctoolsdb -->
<g onmouseover="Highlight(evt);" onmouseout="Unhighlight(evt);" id="edge11" class="edge"><title>appservers&#45;&gt;ctoolsdb</title>
<path fill="none" stroke="blue" stroke-dasharray="1,5" d="M346.544,-454.757C344.242,-446.472 341.653,-437.153 339.36,-428.897"/>
<polygon fill="blue" stroke="blue" points="344.929,-455.482 347.953,-459.831 348.301,-454.545 344.929,-455.482"/>
<polygon fill="blue" stroke="blue" points="341,-428.263 337.976,-423.913 337.628,-429.199 341,-428.263"/>
</g>
<!-- volctfs -->
<g id="node15" class="node"><title>volctfs</title>
<image xlink:href="icons/disk_subsystem.png" width="22px" height="22px" preserveAspectRatio="xMinYMin meet" x="89" y="-489"/>
<polygon fill="none" stroke="red" stroke-width="0" points="149,-496 51,-496 51,-460 149,-460 149,-496"/>
<text text-anchor="middle" x="100" y="-474.9" font-family="Times Roman,serif" font-size="9.00">Sakai resources vols</text>
</g>
<!-- appservers&#45;&gt;volctfs -->
<g onmouseover="Highlight(evt);" onmouseout="Unhighlight(evt);" id="edge15" class="edge"><title>appservers&#45;&gt;volctfs</title>
<path fill="none" stroke="green" stroke-dasharray="1,5" d="M333.059,-498.854C318.702,-511.991 298.045,-527.322 276,-532 252.305,-537.028 190.695,-537.028 167,-532 162.718,-531.091 161.697,-530.343 158,-528 145.198,-519.887 132.297,-509.085 121.922,-499.597"/>
<polygon fill="green" stroke="green" points="334.487,-499.915 336.937,-495.218 332.093,-497.361 334.487,-499.915"/>
<polygon fill="green" stroke="green" points="123.077,-498.281 118.22,-496.168 120.699,-500.85 123.077,-498.281"/>
</g>
<!-- appservers&#45;&gt;umiac -->
<g onmouseover="Highlight(evt);" onmouseout="Unhighlight(evt);" id="edge19" class="edge"><title>appservers&#45;&gt;umiac</title>
<path fill="none" stroke="black" stroke-dasharray="1,5" d="M364.223,-455.147C368.468,-445.699 372.994,-434.512 376,-424 382.303,-401.955 385.957,-376.009 387.941,-357.654"/>
<polygon fill="black" stroke="black" points="362.53,-454.643 362.039,-459.917 365.712,-456.1 362.53,-454.643"/>
<polygon fill="black" stroke="black" points="389.73,-357.368 388.505,-352.214 386.249,-357.007 389.73,-357.368"/>
</g>
<!-- secappservers -->
<g id="node6" class="node"><title>secappservers</title>
<ellipse fill="none" stroke="black" stroke-dasharray="1,5" cx="204" cy="-42" rx="61.7765" ry="18"/>
<text text-anchor="middle" x="204" y="-38.9" font-family="Times Roman,serif" font-size="9.00">Secondary appservers</text>
</g>
<!-- secctoolsdb&#45;&gt;secappservers -->
<g onmouseover="Highlight(evt);" onmouseout="Unhighlight(evt);" id="edge44" class="edge"><title>secctoolsdb&#45;&gt;secappservers</title>
<path fill="none" stroke="brown" stroke-dasharray="5,2" d="M90.8916,-98.5542C113.514,-87.2428 144.28,-71.8599 168.014,-59.993"/>
<polygon fill="brown" stroke="brown" points="168.973,-61.4701 172.663,-57.6687 167.408,-58.3396 168.973,-61.4701"/>
</g>
<!-- flatcarvolora -->
<g id="node18" class="node"><title>flatcarvolora</title>
<image xlink:href="icons/disk_subsystem.png" width="22px" height="22px" preserveAspectRatio="xMinYMin meet" x="337" y="-125"/>
<polygon fill="none" stroke="blue" stroke-width="0" points="408,-132 288,-132 288,-96 408,-96 408,-132"/>
<text text-anchor="middle" x="348" y="-110.9" font-family="Times Roman,serif" font-size="9.00">Oracle DB vols secondary</text>
</g>
<!-- secctoolsdb&#45;&gt;flatcarvolora -->
<g onmouseover="Highlight(evt);" onmouseout="Unhighlight(evt);" id="edge37" class="edge"><title>secctoolsdb&#45;&gt;flatcarvolora</title>
<path fill="none" stroke="blue" d="M79.9523,-131.039C92.6229,-141.362 109.66,-154.354 126,-164 129.769,-166.225 130.718,-167.091 135,-168 149.673,-171.114 255.327,-171.114 270,-168 291.796,-163.375 312.337,-148.558 326.864,-135.613"/>
<polygon fill="blue" stroke="blue" points="328.285,-136.685 330.798,-132.022 325.925,-134.1 328.285,-136.685"/>
</g>
<!-- ns1 -->
<g id="node7" class="node"><title>ns1</title>
<a xlink:href="http://ctstats.ds.itd.umich.edu/stats-bin/drraw.cgi?Mode=view;Dashboard=1204922853.5498" xlink:title="ns1.ds lb">
<image xlink:href="icons/gswanson_Citrix_Netscaler_1.png" width="68px" height="30px" preserveAspectRatio="xMinYMin meet" x="329" y="-577"/>
<polygon fill="none" stroke="black" stroke-width="0" stroke-dasharray="1,5" points="397,-580 329,-580 329,-544 397,-544 397,-580"/>
<text text-anchor="middle" x="363" y="-558.9" font-family="Times Roman,serif" font-size="9.00">ns1.ds lb</text>
</a>
</g>
<!-- ns1&#45;&gt;appservers -->
<g onmouseover="Highlight(evt);" onmouseout="Unhighlight(evt);" id="edge2" class="edge"><title>ns1&#45;&gt;appservers</title>
<path fill="none" stroke="black" stroke-dasharray="1,5" d="M360.83,-543.773C359.349,-531.335 357.375,-514.748 355.779,-501.344"/>
<polygon fill="black" stroke="black" points="357.494,-500.949 355.166,-496.191 354.019,-501.363 357.494,-500.949"/>
</g>
<!-- ns2&#45;&gt;appservers -->
<g onmouseover="Highlight(evt);" onmouseout="Unhighlight(evt);" id="edge4" class="edge"><title>ns2&#45;&gt;appservers</title>
<path fill="none" stroke="black" stroke-dasharray="1,5" d="M287.812,-543.773C298.512,-530.453 314.794,-512.377 328.515,-498.545"/>
<polygon fill="black" stroke="black" points="330.003,-499.532 332.31,-494.764 327.533,-497.053 330.003,-499.532"/>
</g>
<!-- ns2&#45;&gt;appservers -->
<g onmouseover="Highlight(evt);" onmouseout="Unhighlight(evt);" id="edge25" class="edge"><title>ns2&#45;&gt;appservers</title>
<path fill="none" stroke="brown" stroke-dasharray="1,5" d="M302.919,-540.003C315.067,-527.658 328.958,-512.303 339.143,-499.963"/>
<polygon fill="brown" stroke="brown" points="301.455,-538.994 299.169,-543.773 303.936,-541.462 301.455,-538.994"/>
<polygon fill="brown" stroke="brown" points="340.649,-500.885 342.448,-495.903 337.934,-498.676 340.649,-500.885"/>
</g>
<!-- ns1os -->
<g id="node9" class="node"><title>ns1os</title>
<a xlink:href="http://ctstats.ds.itd.umich.edu/stats-bin/drraw.cgi?Mode=view;Dashboard=1204919004.3540" xlink:title="ns1.os lb">
<image xlink:href="icons/gswanson_Citrix_Netscaler_1.png" width="68px" height="30px" preserveAspectRatio="xMinYMin meet" x="268" y="-349"/>
<polygon fill="none" stroke="black" stroke-width="0" stroke-dasharray="1,5" points="336,-352 268,-352 268,-316 336,-316 336,-352"/>
<text text-anchor="middle" x="302" y="-330.9" font-family="Times Roman,serif" font-size="9.00">ns1.os lb</text>
</a>
</g>
<!-- ns1os&#45;&gt;UMNetMacc -->
<g onmouseover="Highlight(evt);" onmouseout="Unhighlight(evt);" id="edge41" class="edge"><title>ns1os&#45;&gt;UMNetMacc</title>
<path fill="none" stroke="black" stroke-dasharray="1,5" d="M272.994,-312.689C260.347,-303.398 245.555,-292.53 232.918,-283.246"/>
<polygon fill="black" stroke="black" points="272.205,-314.281 277.27,-315.831 274.277,-311.461 272.205,-314.281"/>
<polygon fill="black" stroke="black" points="233.787,-281.713 228.722,-280.163 231.715,-284.534 233.787,-281.713"/>
</g>
<!-- ns1os&#45;&gt;secappservers -->
<g onmouseover="Highlight(evt);" onmouseout="Unhighlight(evt);" id="edge39" class="edge"><title>ns1os&#45;&gt;secappservers</title>
<path fill="none" stroke="black" stroke-dasharray="1,5" d="M323.572,-315.708C371.928,-272.54 480.2,-162.371 420,-88 401.267,-64.8575 325.761,-52.8643 269.264,-47.0102"/>
<polygon fill="black" stroke="black" points="269.353,-45.2604 264.202,-46.4968 269,-48.7425 269.353,-45.2604"/>
</g>
<!-- searchserver -->
<g id="node13" class="node"><title>searchserver</title>
<ellipse fill="none" stroke="black" stroke-dasharray="1,5" cx="146" cy="-562" rx="39.8372" ry="18"/>
<text text-anchor="middle" x="146" y="-558.9" font-family="Times Roman,serif" font-size="9.00">searchserver</text>
</g>
<!-- searchserver&#45;&gt;appservers -->
<g onmouseover="Highlight(evt);" onmouseout="Unhighlight(evt);" id="edge7" class="edge"><title>searchserver&#45;&gt;appservers</title>
<path fill="none" stroke="purple" stroke-dasharray="1,5" d="M179.344,-551.911C208.681,-542.982 247.818,-530.928 255,-528 277.502,-518.828 301.841,-506.424 320.634,-496.265"/>
<polygon fill="purple" stroke="purple" points="321.732,-497.661 325.288,-493.734 320.06,-494.586 321.732,-497.661"/>
</g>
<!-- volctfs&#45;&gt;searchserver -->
<g onmouseover="Highlight(evt);" onmouseout="Unhighlight(evt);" id="edge17" class="edge"><title>volctfs&#45;&gt;searchserver</title>
<path fill="none" stroke="green" stroke-dasharray="1,5" d="M109.9,-496.078C116.9,-508.86 126.328,-526.078 133.794,-539.711"/>
<polygon fill="green" stroke="green" points="132.308,-540.641 136.245,-544.186 135.378,-538.96 132.308,-540.641"/>
</g>
<!-- repnet -->
<g id="node30" class="node"><title>repnet</title>
<ellipse fill="none" stroke="red" stroke-dasharray="5,2" cx="199" cy="-406" rx="43.9565" ry="18"/>
<text text-anchor="middle" x="199" y="-402.9" font-family="Times Roman,serif" font-size="9.00">192.168.248/29</text>
</g>
<!-- volctfs&#45;&gt;repnet -->
<g onmouseover="Highlight(evt);" onmouseout="Unhighlight(evt);" id="edge27" class="edge"><title>volctfs&#45;&gt;repnet</title>
<path fill="none" stroke="red" stroke-dasharray="5,2" d="M124.982,-459.831C139.747,-449.093 158.406,-435.523 173.295,-424.694"/>
<polygon fill="red" stroke="red" points="174.374,-426.073 177.389,-421.717 172.316,-423.243 174.374,-426.073"/>
</g>
<!-- volora&#45;&gt;ctoolsdb -->
<g onmouseover="Highlight(evt);" onmouseout="Unhighlight(evt);" id="edge33" class="edge"><title>volora&#45;&gt;ctoolsdb</title>
<path fill="none" stroke="blue" d="M224.88,-459.856C229.178,-457.176 233.69,-454.483 238,-452 258.287,-440.31 281.75,-427.828 300.457,-418.82"/>
<polygon fill="blue" stroke="blue" points="301.344,-420.336 305.106,-416.607 299.839,-417.176 301.344,-420.336"/>
</g>
<!-- flatcarvolctfs -->
<g id="node17" class="node"><title>flatcarvolctfs</title>
<image xlink:href="icons/disk_subsystem.png" width="22px" height="22px" preserveAspectRatio="xMinYMin meet" x="193" y="-125"/>
<polygon fill="none" stroke="red" stroke-width="0" points="270,-132 138,-132 138,-96 270,-96 270,-132"/>
<text text-anchor="middle" x="204" y="-110.9" font-family="Times Roman,serif" font-size="9.00">Sakai resources vols replicas</text>
</g>
<!-- flatcarvolctfs&#45;&gt;secappservers -->
<g onmouseover="Highlight(evt);" onmouseout="Unhighlight(evt);" id="edge48" class="edge"><title>flatcarvolctfs&#45;&gt;secappservers</title>
<path fill="none" stroke="green" stroke-dasharray="5,2" d="M204,-95.8314C204,-86.6078 204,-75.295 204,-65.4246"/>
<polygon fill="green" stroke="green" points="205.75,-65.4132 204,-60.4133 202.25,-65.4133 205.75,-65.4132"/>
</g>
<!-- flatcarvolora&#45;&gt;secctoolsdb -->
<g onmouseover="Highlight(evt);" onmouseout="Unhighlight(evt);" id="edge46" class="edge"><title>flatcarvolora&#45;&gt;secctoolsdb</title>
<path fill="none" stroke="green" stroke-dasharray="5,2" d="M330.798,-132.022C316.189,-145.682 293.845,-162.94 270,-168 255.327,-171.114 149.673,-171.114 135,-168 130.718,-167.091 129.769,-166.225 126,-164 111.319,-155.333 96.0763,-143.966 83.9427,-134.26"/>
<polygon fill="green" stroke="green" points="84.942,-132.818 79.9523,-131.039 82.7434,-135.541 84.942,-132.818"/>
</g>
<!-- end&#45;users -->
<g id="node28" class="node"><title>end&#45;users</title>
<image xlink:href="icons/cloud.png" width="22px" height="22px" preserveAspectRatio="xMinYMin meet" x="98" y="-417"/>
<polygon fill="none" stroke="black" stroke-width="0" stroke-dasharray="1,5" points="137,-424 81,-424 81,-388 137,-388 137,-424"/>
<text text-anchor="middle" x="109" y="-402.9" font-family="Times Roman,serif" font-size="9.00">end&#45;users</text>
</g>
<!-- end&#45;users&#45;&gt;UMNet -->
<g onmouseover="Highlight(evt);" onmouseout="Unhighlight(evt);" id="edge23" class="edge"><title>end&#45;users&#45;&gt;UMNet</title>
<path fill="none" stroke="brown" stroke-dasharray="1,5" d="M137.118,-384.689C149.378,-375.398 163.717,-364.53 175.967,-355.246"/>
<polygon fill="brown" stroke="brown" points="135.9,-383.417 132.973,-387.831 138.014,-386.206 135.9,-383.417"/>
<polygon fill="brown" stroke="brown" points="177.107,-356.578 180.035,-352.163 174.993,-353.788 177.107,-356.578"/>
</g>
<!-- repnet&#45;&gt;UMNet -->
<g onmouseover="Highlight(evt);" onmouseout="Unhighlight(evt);" id="edge28" class="edge"><title>repnet&#45;&gt;UMNet</title>
<path fill="none" stroke="red" stroke-dasharray="5,2" d="M200.262,-387.831C200.902,-378.608 201.688,-367.295 202.373,-357.425"/>
<polygon fill="red" stroke="red" points="204.121,-357.523 202.721,-352.413 200.629,-357.28 204.121,-357.523"/>
</g>
<!-- reposnet&#45;&gt;flatcarvolctfs -->
<g onmouseover="Highlight(evt);" onmouseout="Unhighlight(evt);" id="edge31" class="edge"><title>reposnet&#45;&gt;flatcarvolctfs</title>
<path fill="none" stroke="red" stroke-dasharray="5,2" d="M204,-171.989C204,-161.653 204,-148.559 204,-137.43"/>
<polygon fill="red" stroke="red" points="205.75,-137.145 204,-132.145 202.25,-137.145 205.75,-137.145"/>
</g>
</g>
</svg>
