<?xml version="1.0" encoding="UTF-8" standalone="no"?>
<!DOCTYPE svg PUBLIC "-//W3C//DTD SVG 1.1//EN"
 "http://www.w3.org/Graphics/SVG/1.1/DTD/svg11.dtd">
<!-- Generated by graphviz version 2.26.3 (20100126.1600)
 -->
<!-- Title: ctools Pages: 1 -->
<svg width="430pt" height="652pt"
 viewBox="0.00 0.00 429.51 652.00" xmlns="http://www.w3.org/2000/svg" xmlns:xlink="http://www.w3.org/1999/xlink">
<g id="graph1" class="graph" transform="scale(1 1) rotate(0) translate(4 648)">
<title>ctools</title>
<polygon fill="white" stroke="white" points="-4,5 -4,-648 426.515,-648 426.515,5 -4,5"/>
<text text-anchor="middle" x="210.757" y="-7.4" font-family="Times Roman,serif" font-size="14.00">CTools backup systems</text>
<g id="graph2" class="cluster"><title>cluster_lb</title>
<polygon fill="none" stroke="black" points="221,-560 221,-636 391,-636 391,-560 221,-560"/>
<text text-anchor="middle" x="306" y="-619.4" font-family="Times Roman,serif" font-size="14.00">load balancers</text>
</g>
<g id="graph3" class="cluster"><title>cluster_storage</title>
<a xlink:href="http://ctstats.ds.itd.umich.edu/stats-bin/drraw.cgi?Mode=view&amp;Dashboard=1151462293.28892" xlink:title="boxcar netapp">
<polyline fill="none" stroke="black" points="41,-476 225,-476 "/>
<path fill="none" stroke="black" d="M225,-476C231,-476 237,-482 237,-488"/>
<polyline fill="none" stroke="black" points="237,-488 237,-540 "/>
<path fill="none" stroke="black" d="M237,-540C237,-546 231,-552 225,-552"/>
<polyline fill="none" stroke="black" points="225,-552 41,-552 "/>
<path fill="none" stroke="black" d="M41,-552C35,-552 29,-546 29,-540"/>
<polyline fill="none" stroke="black" points="29,-540 29,-488 "/>
<path fill="none" stroke="black" d="M29,-488C29,-482 35,-476 41,-476"/>
<text text-anchor="middle" x="133" y="-535.4" font-family="Times Roman,serif" font-size="14.00">boxcar netapp</text>
</a>
</g>
<g id="graph4" class="cluster"><title>cluster_macc_storage</title>
<a xlink:href="http://ctstats.os.itd.umich.edu/stats-bin/drraw.cgi?Mode=view;Dashboard=1233110962.16117" xlink:title="flatcar netapp">
<polyline fill="none" stroke="black" points="126,-95 388,-95 "/>
<path fill="none" stroke="black" d="M388,-95C394,-95 400,-101 400,-107"/>
<polyline fill="none" stroke="black" points="400,-107 400,-159 "/>
<path fill="none" stroke="black" d="M400,-159C400,-165 394,-171 388,-171"/>
<polyline fill="none" stroke="black" points="388,-171 126,-171 "/>
<path fill="none" stroke="black" d="M126,-171C120,-171 114,-165 114,-159"/>
<polyline fill="none" stroke="black" points="114,-159 114,-107 "/>
<path fill="none" stroke="black" d="M114,-107C114,-101 120,-95 126,-95"/>
<text text-anchor="middle" x="257" y="-154.4" font-family="Times Roman,serif" font-size="14.00">flatcar netapp</text>
</a>
</g>
<!-- UMNet -->
<g id="node1" class="node"><title>UMNet</title>
<image xlink:href="icons/router.png" width="22px" height="22px" preserveAspectRatio="xMinYMin meet" x="177" y="-355"/>
<polyline fill="none" stroke="black" stroke-width="0" stroke-dasharray="1,5" points="203,-362 173,-362 "/>
<path fill="none" stroke="black" stroke-width="0" stroke-dasharray="1,5" d="M173,-362C167,-362 161,-356 161,-350"/>
<polyline fill="none" stroke="black" stroke-width="0" stroke-dasharray="1,5" points="161,-350 161,-338 "/>
<path fill="none" stroke="black" stroke-width="0" stroke-dasharray="1,5" d="M161,-338C161,-332 167,-326 173,-326"/>
<polyline fill="none" stroke="black" stroke-width="0" stroke-dasharray="1,5" points="173,-326 203,-326 "/>
<path fill="none" stroke="black" stroke-width="0" stroke-dasharray="1,5" d="M203,-326C209,-326 215,-332 215,-338"/>
<polyline fill="none" stroke="black" stroke-width="0" stroke-dasharray="1,5" points="215,-338 215,-350 "/>
<path fill="none" stroke="black" stroke-width="0" stroke-dasharray="1,5" d="M215,-350C215,-356 209,-362 203,-362"/>
<text text-anchor="middle" x="188" y="-353.9" font-family="Times Roman,serif" font-size="9.00">ALDF</text>
</g>
<!-- UMNetMacc -->
<g id="node2" class="node"><title>UMNetMacc</title>
<image xlink:href="icons/router.png" width="22px" height="22px" preserveAspectRatio="xMinYMin meet" x="177" y="-283"/>
<polyline fill="none" stroke="black" stroke-width="0" stroke-dasharray="1,5" points="203,-290 173,-290 "/>
<path fill="none" stroke="black" stroke-width="0" stroke-dasharray="1,5" d="M173,-290C167,-290 161,-284 161,-278"/>
<polyline fill="none" stroke="black" stroke-width="0" stroke-dasharray="1,5" points="161,-278 161,-266 "/>
<path fill="none" stroke="black" stroke-width="0" stroke-dasharray="1,5" d="M161,-266C161,-260 167,-254 173,-254"/>
<polyline fill="none" stroke="black" stroke-width="0" stroke-dasharray="1,5" points="173,-254 203,-254 "/>
<path fill="none" stroke="black" stroke-width="0" stroke-dasharray="1,5" d="M203,-254C209,-254 215,-260 215,-266"/>
<polyline fill="none" stroke="black" stroke-width="0" stroke-dasharray="1,5" points="215,-266 215,-278 "/>
<path fill="none" stroke="black" stroke-width="0" stroke-dasharray="1,5" d="M215,-278C215,-284 209,-290 203,-290"/>
<text text-anchor="middle" x="188" y="-281.9" font-family="Times Roman,serif" font-size="9.00">MACC</text>
</g>
<!-- UMNet&#45;&gt;UMNetMacc -->
<g id="edge29" class="edge"><title>UMNet&#45;&gt;UMNetMacc</title>
<path fill="none" stroke="red" d="M182.048,-325.831C181.149,-316.608 181.01,-305.295 181.63,-295.425"/>
<polygon fill="red" stroke="red" points="183.377,-295.535 182.024,-290.413 179.888,-295.261 183.377,-295.535"/>
</g>
<!-- UMNet&#45;&gt;UMNetMacc -->
<g id="edge35" class="edge"><title>UMNet&#45;&gt;UMNetMacc</title>
<path fill="none" stroke="blue" d="M193.952,-325.831C194.851,-316.608 194.99,-305.295 194.37,-295.425"/>
<polygon fill="blue" stroke="blue" points="196.112,-295.261 193.976,-290.413 192.623,-295.535 196.112,-295.261"/>
</g>
<!-- ns2 -->
<g id="node8" class="node"><title>ns2</title>
<a xlink:href="http://ctstats.ds.itd.umich.edu/stats-bin/drraw.cgi?Mode=view;Dashboard=1191545928.21917" xlink:title="ns2.ds lb">
<image xlink:href="icons/gswanson_Citrix_Netscaler_1.png" width="68px" height="30px" preserveAspectRatio="xMinYMin meet" x="229" y="-601"/>
<polygon fill="none" stroke="black" stroke-width="0" stroke-dasharray="1,5" points="297,-604 229,-604 229,-568 297,-568 297,-604"/>
<text text-anchor="middle" x="263" y="-569.9" font-family="Times Roman,serif" font-size="9.00">ns2.ds lb</text>
</a>
</g>
<!-- UMNet&#45;&gt;ns2 -->
<g id="edge24" class="edge"><title>UMNet&#45;&gt;ns2</title>
<path fill="none" stroke="brown" stroke-dasharray="1,5" d="M213.936,-365.755C223.011,-374.782 232.339,-385.961 238,-398 263.776,-452.811 265.417,-525.923 264.299,-562.734"/>
<polygon fill="brown" stroke="brown" points="214.885,-364.238 210.073,-362.022 212.452,-366.755 214.885,-364.238"/>
<polygon fill="brown" stroke="brown" points="262.544,-562.836 264.116,-567.895 266.042,-562.96 262.544,-562.836"/>
</g>
<!-- secctoolsdb -->
<g id="node5" class="node"><title>secctoolsdb</title>
<image xlink:href="icons/db.jpg" width="64px" height="50px" preserveAspectRatio="xMinYMin meet" x="20" y="-146"/>
<polygon fill="none" stroke="blue" stroke-width="0" points="104,-146 4.9738e-14,-146 0,-96 104,-96 104,-146"/>
<text text-anchor="middle" x="52" y="-137.9" font-family="Times Roman,serif" font-size="9.00">Secondary CTools DB</text>
</g>
<!-- UMNetMacc&#45;&gt;secctoolsdb -->
<g id="edge36" class="edge"><title>UMNetMacc&#45;&gt;secctoolsdb</title>
<path fill="none" stroke="blue" d="M169.531,-253.806C159.198,-243.473 146.184,-230.201 135,-218 114.672,-195.823 92.5672,-169.894 76.2841,-150.426"/>
<polygon fill="blue" stroke="blue" points="77.2406,-148.841 72.6928,-146.124 74.5538,-151.084 77.2406,-148.841"/>
</g>
<!-- reposnet -->
<g id="node31" class="node"><title>reposnet</title>
<ellipse fill="none" stroke="red" cx="188" cy="-200" rx="43.9565" ry="18"/>
<text text-anchor="middle" x="188" y="-196.9" font-family="Times Roman,serif" font-size="9.00">192.168.254/29</text>
</g>
<!-- UMNetMacc&#45;&gt;reposnet -->
<g id="edge30" class="edge"><title>UMNetMacc&#45;&gt;reposnet</title>
<path fill="none" stroke="red" d="M188,-253.831C188,-244.608 188,-233.295 188,-223.425"/>
<polygon fill="red" stroke="red" points="189.75,-223.413 188,-218.413 186.25,-223.413 189.75,-223.413"/>
</g>
<!-- ctoolsdb -->
<g id="node3" class="node"><title>ctoolsdb</title>
<a xlink:href="http://ctstats.ds.itd.umich.edu/stats-bin/drraw.cgi?Mode=view;Dashboard=1178035455.23662" xlink:title="CTools DB">
<image xlink:href="icons/db.jpg" width="58px" height="50px" preserveAspectRatio="xMinYMin meet" x="285" y="-448"/>
<polygon fill="none" stroke="blue" stroke-width="0" points="343,-448 285,-448 285,-398 343,-398 343,-448"/>
<text text-anchor="middle" x="314" y="-439.9" font-family="Times Roman,serif" font-size="9.00">CTools DB</text>
</a>
</g>
<!-- ctoolsdb&#45;&gt;UMNet -->
<g id="edge34" class="edge"><title>ctoolsdb&#45;&gt;UMNet</title>
<path fill="none" stroke="blue" d="M284.776,-404.677C265.311,-392.473 239.739,-376.439 219.77,-363.919"/>
<polygon fill="blue" stroke="blue" points="220.506,-362.315 215.34,-361.142 218.647,-365.281 220.506,-362.315"/>
</g>
<!-- volora -->
<g id="node16" class="node"><title>volora</title>
<image xlink:href="icons/disk_subsystem.png" width="22px" height="22px" preserveAspectRatio="xMinYMin meet" x="180" y="-513"/>
<polygon fill="none" stroke="blue" stroke-width="0" points="229,-520 153,-520 153,-484 229,-484 229,-520"/>
<text text-anchor="middle" x="191" y="-511.9" font-family="Times Roman,serif" font-size="9.00">Oracle DB vols</text>
</g>
<!-- ctoolsdb&#45;&gt;volora -->
<g id="edge13" class="edge"><title>ctoolsdb&#45;&gt;volora</title>
<path fill="none" stroke="green" stroke-dasharray="1,5" d="M280.248,-448.772C264.504,-459.268 245.748,-471.241 229.461,-481.17"/>
<polygon fill="green" stroke="green" points="281.424,-450.09 284.604,-445.853 279.476,-447.182 281.424,-450.09"/>
<polygon fill="green" stroke="green" points="228.367,-479.787 225,-483.876 230.182,-482.779 228.367,-479.787"/>
</g>
<!-- umiac -->
<g id="node26" class="node"><title>umiac</title>
<ellipse fill="none" stroke="black" stroke-dasharray="1,5" cx="367" cy="-344" rx="27" ry="18"/>
<text text-anchor="middle" x="367" y="-340.9" font-family="Times Roman,serif" font-size="9.00">umiac</text>
</g>
<!-- ctoolsdb&#45;&gt;umiac -->
<g id="edge21" class="edge"><title>ctoolsdb&#45;&gt;umiac</title>
<path fill="none" stroke="black" d="M331.061,-397.569C338.157,-386.992 346.292,-374.866 353.026,-364.829"/>
<polygon fill="black" stroke="black" points="354.486,-365.794 355.819,-360.666 351.58,-363.844 354.486,-365.794"/>
</g>
<!-- appservers -->
<g id="node4" class="node"><title>appservers</title>
<a xlink:href="http://ctstats.ds.itd.umich.edu/stats-bin/drraw.cgi?Mode=view;Dashboard=1194322225.25790" xlink:title="CTools app servers">
<ellipse fill="none" stroke="black" stroke-dasharray="1,5" cx="339" cy="-502" rx="53.773" ry="18"/>
<text text-anchor="middle" x="339" y="-498.9" font-family="Times Roman,serif" font-size="9.00">CTools app servers</text>
</a>
</g>
<!-- appservers&#45;&gt;ctoolsdb -->
<g id="edge11" class="edge"><title>appservers&#45;&gt;ctoolsdb</title>
<path fill="none" stroke="blue" stroke-dasharray="1,5" d="M331.768,-479.147C329.215,-471.08 326.303,-461.879 323.586,-453.293"/>
<polygon fill="blue" stroke="blue" points="330.15,-479.835 333.327,-484.074 333.487,-478.779 330.15,-479.835"/>
<polygon fill="blue" stroke="blue" points="325.102,-452.281 321.925,-448.042 321.765,-453.337 325.102,-452.281"/>
</g>
<!-- volctfs -->
<g id="node15" class="node"><title>volctfs</title>
<image xlink:href="icons/disk_subsystem.png" width="22px" height="22px" preserveAspectRatio="xMinYMin meet" x="75" y="-513"/>
<polygon fill="none" stroke="red" stroke-width="0" points="135,-520 37,-520 37,-484 135,-484 135,-520"/>
<text text-anchor="middle" x="86" y="-511.9" font-family="Times Roman,serif" font-size="9.00">Sakai resources vols</text>
</g>
<!-- appservers&#45;&gt;volctfs -->
<g id="edge15" class="edge"><title>appservers&#45;&gt;volctfs</title>
<path fill="none" stroke="green" stroke-dasharray="1,5" d="M319.059,-522.854C304.702,-535.991 284.045,-551.322 262,-556 238.305,-561.028 176.695,-561.028 153,-556 148.718,-555.091 147.697,-554.343 144,-552 131.198,-543.887 118.297,-533.085 107.922,-523.597"/>
<polygon fill="green" stroke="green" points="320.487,-523.915 322.937,-519.218 318.093,-521.361 320.487,-523.915"/>
<polygon fill="green" stroke="green" points="109.077,-522.281 104.22,-520.168 106.699,-524.85 109.077,-522.281"/>
</g>
<!-- appservers&#45;&gt;umiac -->
<g id="edge19" class="edge"><title>appservers&#45;&gt;umiac</title>
<path fill="none" stroke="black" stroke-dasharray="1,5" d="M345.153,-478.53C347.497,-469.086 350.066,-458.068 352,-448 357.297,-420.419 361.648,-388.399 364.275,-367.254"/>
<polygon fill="black" stroke="black" points="343.401,-478.322 343.88,-483.598 346.795,-479.175 343.401,-478.322"/>
<polygon fill="black" stroke="black" points="366.033,-367.298 364.905,-362.122 362.559,-366.871 366.033,-367.298"/>
</g>
<!-- secappservers -->
<g id="node6" class="node"><title>secappservers</title>
<ellipse fill="none" stroke="black" stroke-dasharray="1,5" cx="188" cy="-42" rx="61.7765" ry="18"/>
<text text-anchor="middle" x="188" y="-38.9" font-family="Times Roman,serif" font-size="9.00">Secondary appservers</text>
</g>
<!-- secctoolsdb&#45;&gt;secappservers -->
<g id="edge44" class="edge"><title>secctoolsdb&#45;&gt;secappservers</title>
<path fill="none" stroke="brown" stroke-dasharray="5,2" d="M95.4052,-95.7867C114.898,-84.4638 137.506,-71.3308 155.504,-60.8765"/>
<polygon fill="brown" stroke="brown" points="156.531,-62.3038 159.975,-58.279 154.773,-59.2773 156.531,-62.3038"/>
</g>
<!-- flatcarvolora -->
<g id="node18" class="node"><title>flatcarvolora</title>
<image xlink:href="icons/disk_subsystem.png" width="22px" height="22px" preserveAspectRatio="xMinYMin meet" x="321" y="-132"/>
<polygon fill="none" stroke="blue" stroke-width="0" points="392,-139 272,-139 272,-103 392,-103 392,-139"/>
<text text-anchor="middle" x="332" y="-130.9" font-family="Times Roman,serif" font-size="9.00">Oracle DB vols secondary</text>
</g>
<!-- secctoolsdb&#45;&gt;flatcarvolora -->
<g id="edge37" class="edge"><title>secctoolsdb&#45;&gt;flatcarvolora</title>
<path fill="none" stroke="blue" d="M72.6615,-146.055C84.6516,-158.269 100.936,-171.319 119,-176 133.52,-179.763 239.48,-179.763 254,-176 275.552,-170.415 295.968,-155.541 310.504,-142.668"/>
<polygon fill="blue" stroke="blue" points="311.912,-143.753 314.443,-139.099 309.563,-141.159 311.912,-143.753"/>
</g>
<!-- ns1 -->
<g id="node7" class="node"><title>ns1</title>
<a xlink:href="http://ctstats.ds.itd.umich.edu/stats-bin/drraw.cgi?Mode=view;Dashboard=1204922853.5498" xlink:title="ns1.ds lb">
<image xlink:href="icons/gswanson_Citrix_Netscaler_1.png" width="68px" height="30px" preserveAspectRatio="xMinYMin meet" x="315" y="-601"/>
<polygon fill="none" stroke="black" stroke-width="0" stroke-dasharray="1,5" points="383,-604 315,-604 315,-568 383,-568 383,-604"/>
<text text-anchor="middle" x="349" y="-569.9" font-family="Times Roman,serif" font-size="9.00">ns1.ds lb</text>
</a>
</g>
<!-- ns1&#45;&gt;appservers -->
<g id="edge2" class="edge"><title>ns1&#45;&gt;appservers</title>
<path fill="none" stroke="black" stroke-dasharray="1,5" d="M346.83,-567.773C345.349,-555.335 343.375,-538.748 341.779,-525.344"/>
<polygon fill="black" stroke="black" points="343.494,-524.949 341.166,-520.191 340.019,-525.363 343.494,-524.949"/>
</g>
<!-- ns2&#45;&gt;appservers -->
<g id="edge4" class="edge"><title>ns2&#45;&gt;appservers</title>
<path fill="none" stroke="black" stroke-dasharray="1,5" d="M273.812,-567.773C284.512,-554.453 300.794,-536.377 314.515,-522.545"/>
<polygon fill="black" stroke="black" points="316.003,-523.532 318.31,-518.764 313.533,-521.053 316.003,-523.532"/>
</g>
<!-- ns2&#45;&gt;appservers -->
<g id="edge25" class="edge"><title>ns2&#45;&gt;appservers</title>
<path fill="none" stroke="brown" stroke-dasharray="1,5" d="M288.919,-564.003C301.067,-551.658 314.958,-536.303 325.143,-523.963"/>
<polygon fill="brown" stroke="brown" points="287.455,-562.994 285.169,-567.773 289.936,-565.462 287.455,-562.994"/>
<polygon fill="brown" stroke="brown" points="326.649,-524.885 328.448,-519.903 323.934,-522.676 326.649,-524.885"/>
</g>
<!-- ns1os -->
<g id="node9" class="node"><title>ns1os</title>
<a xlink:href="http://ctstats.ds.itd.umich.edu/stats-bin/drraw.cgi?Mode=view;Dashboard=1204919004.3540" xlink:title="ns1.os lb">
<image xlink:href="icons/gswanson_Citrix_Netscaler_1.png" width="68px" height="30px" preserveAspectRatio="xMinYMin meet" x="247" y="-359"/>
<polygon fill="none" stroke="black" stroke-width="0" stroke-dasharray="1,5" points="315,-362 247,-362 247,-326 315,-326 315,-362"/>
<text text-anchor="middle" x="281" y="-327.9" font-family="Times Roman,serif" font-size="9.00">ns1.os lb</text>
</a>
</g>
<!-- ns1os&#45;&gt;UMNetMacc -->
<g id="edge41" class="edge"><title>ns1os&#45;&gt;UMNetMacc</title>
<path fill="none" stroke="black" stroke-dasharray="1,5" d="M253.474,-322.689C241.472,-313.398 227.435,-302.53 215.443,-293.246"/>
<polygon fill="black" stroke="black" points="252.507,-324.154 257.532,-325.831 254.65,-321.387 252.507,-324.154"/>
<polygon fill="black" stroke="black" points="216.485,-291.84 211.46,-290.163 214.343,-294.608 216.485,-291.84"/>
</g>
<!-- ns1os&#45;&gt;secappservers -->
<g id="edge39" class="edge"><title>ns1os&#45;&gt;secappservers</title>
<path fill="none" stroke="black" stroke-dasharray="1,5" d="M302.765,-325.987C352.223,-282.912 464.255,-171.827 404,-95 385.264,-71.1111 308.043,-56.5723 251.257,-48.9105"/>
<polygon fill="black" stroke="black" points="251.361,-47.159 246.174,-48.2355 250.9,-50.6285 251.361,-47.159"/>
</g>
<!-- searchserver -->
<g id="node13" class="node"><title>searchserver</title>
<ellipse fill="none" stroke="black" stroke-dasharray="1,5" cx="132" cy="-586" rx="39.8372" ry="18"/>
<text text-anchor="middle" x="132" y="-582.9" font-family="Times Roman,serif" font-size="9.00">searchserver</text>
</g>
<!-- searchserver&#45;&gt;appservers -->
<g id="edge7" class="edge"><title>searchserver&#45;&gt;appservers</title>
<path fill="none" stroke="purple" stroke-dasharray="1,5" d="M165.344,-575.911C194.681,-566.982 233.818,-554.928 241,-552 263.502,-542.828 287.841,-530.424 306.634,-520.265"/>
<polygon fill="purple" stroke="purple" points="307.732,-521.661 311.288,-517.734 306.06,-518.586 307.732,-521.661"/>
</g>
<!-- volctfs&#45;&gt;searchserver -->
<g id="edge17" class="edge"><title>volctfs&#45;&gt;searchserver</title>
<path fill="none" stroke="green" stroke-dasharray="1,5" d="M95.8999,-520.078C102.9,-532.86 112.328,-550.078 119.794,-563.711"/>
<polygon fill="green" stroke="green" points="118.308,-564.641 122.245,-568.186 121.378,-562.96 118.308,-564.641"/>
</g>
<!-- repnet -->
<g id="node30" class="node"><title>repnet</title>
<ellipse fill="none" stroke="red" cx="185" cy="-423" rx="43.9565" ry="18"/>
<text text-anchor="middle" x="185" y="-419.9" font-family="Times Roman,serif" font-size="9.00">192.168.248/29</text>
</g>
<!-- volctfs&#45;&gt;repnet -->
<g id="edge27" class="edge"><title>volctfs&#45;&gt;repnet</title>
<path fill="none" stroke="red" d="M108.961,-483.677C124.548,-471.239 145.119,-454.824 160.934,-442.204"/>
<polygon fill="red" stroke="red" points="162.03,-443.569 164.847,-439.082 159.847,-440.833 162.03,-443.569"/>
</g>
<!-- volora&#45;&gt;ctoolsdb -->
<g id="edge33" class="edge"><title>volora&#45;&gt;ctoolsdb</title>
<path fill="none" stroke="blue" d="M213.438,-483.876C232.14,-471.032 258.858,-453.874 280.128,-441.047"/>
<polygon fill="blue" stroke="blue" points="281.19,-442.451 284.579,-438.379 279.391,-439.449 281.19,-442.451"/>
</g>
<!-- flatcarvolctfs -->
<g id="node17" class="node"><title>flatcarvolctfs</title>
<image xlink:href="icons/disk_subsystem.png" width="22px" height="22px" preserveAspectRatio="xMinYMin meet" x="177" y="-132"/>
<polygon fill="none" stroke="red" stroke-width="0" points="254,-139 122,-139 122,-103 254,-103 254,-139"/>
<text text-anchor="middle" x="188" y="-130.9" font-family="Times Roman,serif" font-size="9.00">Sakai resources vols replicas</text>
</g>
<!-- flatcarvolctfs&#45;&gt;secappservers -->
<g id="edge48" class="edge"><title>flatcarvolctfs&#45;&gt;secappservers</title>
<path fill="none" stroke="green" stroke-dasharray="5,2" d="M188,-102.677C188,-91.6096 188,-77.3928 188,-65.5029"/>
<polygon fill="green" stroke="green" points="189.75,-65.2234 188,-60.2234 186.25,-65.2234 189.75,-65.2234"/>
</g>
<!-- flatcarvolora&#45;&gt;secctoolsdb -->
<g id="edge46" class="edge"><title>flatcarvolora&#45;&gt;secctoolsdb</title>
<path fill="none" stroke="green" stroke-dasharray="5,2" d="M314.443,-139.099C299.797,-152.662 277.579,-169.89 254,-176 239.48,-179.763 133.52,-179.763 119,-176 102.77,-171.794 87.9777,-160.833 76.445,-149.793"/>
<polygon fill="green" stroke="green" points="77.4485,-148.324 72.6615,-146.055 74.9887,-150.814 77.4485,-148.324"/>
</g>
<!-- end&#45;users -->
<g id="node28" class="node"><title>end&#45;users</title>
<image xlink:href="icons/cloud.png" width="22px" height="22px" preserveAspectRatio="xMinYMin meet" x="84" y="-434"/>
<polygon fill="none" stroke="black" stroke-width="0" stroke-dasharray="1,5" points="123,-441 67,-441 67,-405 123,-405 123,-441"/>
<text text-anchor="middle" x="95" y="-432.9" font-family="Times Roman,serif" font-size="9.00">end&#45;users</text>
</g>
<!-- end&#45;users&#45;&gt;UMNet -->
<g id="edge23" class="edge"><title>end&#45;users&#45;&gt;UMNet</title>
<path fill="none" stroke="brown" stroke-dasharray="1,5" d="M120.546,-401.299C133.633,-390.182 149.52,-376.687 162.588,-365.586"/>
<polygon fill="brown" stroke="brown" points="119.248,-400.106 116.57,-404.677 121.514,-402.774 119.248,-400.106"/>
<polygon fill="brown" stroke="brown" points="163.869,-366.794 166.547,-362.223 161.603,-364.127 163.869,-366.794"/>
</g>
<!-- repnet&#45;&gt;UMNet -->
<g id="edge28" class="edge"><title>repnet&#45;&gt;UMNet</title>
<path fill="none" stroke="red" d="M185.696,-404.677C186.116,-393.61 186.656,-379.393 187.107,-367.503"/>
<polygon fill="red" stroke="red" points="188.867,-367.286 187.308,-362.223 185.369,-367.153 188.867,-367.286"/>
</g>
<!-- reposnet&#45;&gt;flatcarvolctfs -->
<g id="edge31" class="edge"><title>reposnet&#45;&gt;flatcarvolctfs</title>
<path fill="none" stroke="red" d="M188,-181.677C188,-170.61 188,-156.393 188,-144.503"/>
<polygon fill="red" stroke="red" points="189.75,-144.223 188,-139.223 186.25,-144.223 189.75,-144.223"/>
</g>
</g>
</svg>
