<?xml version="1.0" encoding="UTF-8" standalone="no"?>
<!DOCTYPE svg PUBLIC "-//W3C//DTD SVG 1.1//EN"
 "http://www.w3.org/Graphics/SVG/1.1/DTD/svg11.dtd">
<!-- Generated by graphviz version 2.26.3 (20100126.1600)
 -->
<!-- Title: ctoolssystem Pages: 1 -->
<svg width="702pt" height="718pt"
 viewBox="0.00 0.00 702.00 718.00" xmlns="http://www.w3.org/2000/svg" xmlns:xlink="http://www.w3.org/1999/xlink">
<g id="graph1" class="graph" transform="scale(1 1) rotate(0) translate(4 714)">
<title>ctoolssystem</title>
<a xlink:href="../ctstats/ctools-executive-overview-042810-0819.html" xlink:title="CTools (Prod) System">
<polygon fill="white" stroke="white" points="-4,5 -4,-714 699,-714 699,5 -4,5"/>
<text text-anchor="middle" x="347" y="-5.8" font-family="Times Roman,serif" font-size="8.00">CTools (Prod) System</text>
</a>
<g id="graph2" class="cluster"><title>cluster_appsever</title>
<a xlink:href="../ctstats/ctools-appservers-042810-0826.html" xlink:title="CTools appserver (Redhat 5.2 x86_64)\nalaking, kungpao, potpie, sirloin, turducken">
<polygon fill="none" stroke="black" points="88,-236 88,-532 338,-532 338,-236 88,-236"/>
<text text-anchor="middle" x="213" y="-520.8" font-family="Times Roman,serif" font-size="8.00">CTools appserver (Redhat 5.2 x86_64)</text>
<text text-anchor="middle" x="213" y="-511.8" font-family="Times Roman,serif" font-size="8.00">alaking, kungpao, potpie, sirloin, turducken</text>
</a>
</g>
<g id="graph3" class="cluster"><title>cluster_searchserver</title>
<a xlink:href="../ctstats/ctools-executive-overview-042810-0819.html" xlink:title="CTools searchserver (Redhat 5.2 x86_64)\nribeye">
<polygon fill="none" stroke="black" points="427,-111 427,-314 594,-314 594,-111 427,-111"/>
<text text-anchor="middle" x="510.5" y="-302.8" font-family="Times Roman,serif" font-size="8.00">CTools searchserver (Redhat 5.2 x86_64)</text>
<text text-anchor="middle" x="510.5" y="-293.8" font-family="Times Roman,serif" font-size="8.00">ribeye</text>
</a>
</g>
<g id="graph4" class="cluster"><title>cluster_maisdb</title>
<a xlink:href="../ctstats/ctools-executive-overview-042810-0819.html" xlink:title="MAIS">
<polygon fill="none" stroke="black" points="607,-342 607,-530 681,-530 681,-342 607,-342"/>
<text text-anchor="middle" x="644" y="-518.8" font-family="Times Roman,serif" font-size="8.00">MAIS</text>
</a>
</g>
<g id="graph5" class="cluster"><title>cluster_ctsupport</title>
<a xlink:href="../ctstats/ctools-executive-overview-042810-0819.html" xlink:title="CTsupport\nfeet">
<polygon fill="none" stroke="black" points="602,-235 602,-315 686,-315 686,-235 602,-235"/>
<text text-anchor="middle" x="644" y="-303.8" font-family="Times Roman,serif" font-size="8.00">CTsupport</text>
<text text-anchor="middle" x="644" y="-294.8" font-family="Times Roman,serif" font-size="8.00">feet</text>
</a>
</g>
<g id="graph6" class="cluster"><title>cluster_afs</title>
<a xlink:href="../ctstats/ctools-executive-overview-042810-0819.html" xlink:title="CTools search index\n/afs/umich.edu/group">
<polygon fill="none" stroke="black" points="453,-25 453,-103 547,-103 547,-25 453,-25"/>
<text text-anchor="middle" x="500" y="-91.8" font-family="Times Roman,serif" font-size="8.00">CTools search index</text>
<text text-anchor="middle" x="500" y="-82.8" font-family="Times Roman,serif" font-size="8.00">/afs/umich.edu/group</text>
</a>
</g>
<g id="graph7" class="cluster"><title>cluster_cosign</title>
<a xlink:href="../ctstats/ctools-executive-overview-042810-0819.html" xlink:title="Cosign">
<polygon fill="none" stroke="black" points="8,-235 8,-306 80,-306 80,-235 8,-235"/>
<text text-anchor="middle" x="44" y="-294.8" font-family="Times Roman,serif" font-size="8.00">Cosign</text>
</a>
</g>
<g id="graph8" class="cluster"><title>cluster_storage</title>
<a xlink:href="../ctstats/netapp-boxcar-042810-0829.html" xlink:title="Netapp 3020\nboxcar">
<polygon fill="none" stroke="black" points="95,-25 95,-103 313,-103 313,-25 95,-25"/>
<text text-anchor="middle" x="204" y="-91.8" font-family="Times Roman,serif" font-size="8.00">Netapp 3020</text>
<text text-anchor="middle" x="204" y="-82.8" font-family="Times Roman,serif" font-size="8.00">boxcar</text>
</a>
</g>
<g id="graph9" class="cluster"><title>cluster_dbserver</title>
<a xlink:href="../ctstats/ctools-executive-overview-042810-0819.html" xlink:title="Oracle 10g DB (Solaris 10)\nadb01">
<polygon fill="none" stroke="black" points="175,-123 175,-215 419,-215 419,-123 175,-123"/>
<text text-anchor="middle" x="297" y="-203.8" font-family="Times Roman,serif" font-size="8.00">Oracle 10g DB (Solaris 10)</text>
<text text-anchor="middle" x="297" y="-194.8" font-family="Times Roman,serif" font-size="8.00">adb01</text>
</a>
</g>
<g id="graph10" class="cluster"><title>cluster_eyeballs</title>
<a xlink:href="../ctstats/ctools-executive-overview-042810-0819.html" xlink:title="Traffic sources">
<polygon fill="none" stroke="black" points="301,-633 301,-702 503,-702 503,-633 301,-633"/>
<text text-anchor="middle" x="402" y="-690.8" font-family="Times Roman,serif" font-size="8.00">Traffic sources</text>
</a>
</g>
<!-- lbs -->
<g id="node1" class="node"><title>lbs</title>
<a xlink:href="../ctstats/netscaler-ns2.ds-042810-0830.html" xlink:title="load balancers\nns1.ds, ns2.ds">
<image xlink:href="icons/gswanson_Citrix_Netscaler_1.png" width="74px" height="30px" preserveAspectRatio="xMinYMin meet" x="386" y="-383"/>
<polygon fill="none" stroke="black" stroke-width="0" points="460,-386 386,-386 386,-350 460,-350 460,-386"/>
<text text-anchor="middle" x="423" y="-361.9" font-family="Times Roman,serif" font-size="9.00">load balancers</text>
<text text-anchor="middle" x="423" y="-351.9" font-family="Times Roman,serif" font-size="9.00">ns1.ds, ns2.ds</text>
</a>
</g>
<!-- https -->
<g id="node2" class="node"><title>https</title>
<ellipse fill="none" stroke="black" cx="239" cy="-480" rx="27" ry="18"/>
<text text-anchor="middle" x="239" y="-476.9" font-family="Times Roman,serif" font-size="9.00">apache</text>
</g>
<!-- lbs&#45;&gt;https -->
<g id="edge50" class="edge"><title>lbs&#45;&gt;https</title>
<path fill="none" stroke="green" d="M382.844,-388.535C351.348,-405.181 306.831,-429.919 270,-455 266.7,-457.247 263.311,-459.753 260.041,-462.286"/>
<polygon fill="green" stroke="green" points="383.785,-390.017 387.393,-386.138 382.154,-386.92 383.785,-390.017"/>
<polygon fill="green" stroke="green" points="258.514,-461.262 255.676,-465.736 260.684,-464.008 258.514,-461.262"/>
</g>
<!-- smtp -->
<g id="node4" class="node"><title>smtp</title>
<ellipse fill="none" stroke="black" cx="299" cy="-262" rx="27" ry="18"/>
<text text-anchor="middle" x="299" y="-258.9" font-family="Times Roman,serif" font-size="9.00">postfix</text>
</g>
<!-- lbs&#45;&gt;smtp -->
<g id="edge55" class="edge"><title>lbs&#45;&gt;smtp</title>
<path fill="none" stroke="blue" stroke-dasharray="5,2" d="M401.684,-349.778C378.738,-330.163 342.481,-299.169 319.755,-279.742"/>
<polygon fill="blue" stroke="blue" points="320.613,-278.173 315.675,-276.254 318.338,-280.834 320.613,-278.173"/>
</g>
<!-- sshttp -->
<g id="node9" class="node"><title>sshttp</title>
<ellipse fill="none" stroke="black" cx="538" cy="-262" rx="27" ry="18"/>
<text text-anchor="middle" x="538" y="-258.9" font-family="Times Roman,serif" font-size="9.00">apache</text>
</g>
<!-- lbs&#45;&gt;sshttp -->
<g id="edge5" class="edge"><title>lbs&#45;&gt;sshttp</title>
<path fill="none" stroke="purple" stroke-dasharray="5,2" d="M460.146,-347.228C474.166,-338.367 489.688,-327.242 502,-315 511.387,-305.667 519.825,-293.559 526.169,-283.272"/>
<polygon fill="purple" stroke="purple" points="459.168,-345.775 455.849,-349.904 461.018,-348.746 459.168,-345.775"/>
<polygon fill="purple" stroke="purple" points="527.67,-284.173 528.757,-278.988 524.674,-282.363 527.67,-284.173"/>
</g>
<!-- jvm -->
<g id="node3" class="node"><title>jvm</title>
<a xlink:href="../ctstats/ctools-app-misc-1yr.html" xlink:title="{JVM|&lt;tomcat&gt; tomcat|&lt;ctools&gt; sakai|{&lt;webdav&gt; WebDAV|&lt;dbpool&gt; DBCP|&lt;mua&gt; James MUA}}">
<polygon fill="none" stroke="black" points="96,-332 96,-404 256,-404 256,-332 96,-332"/>
<text text-anchor="middle" x="176" y="-391.9" font-family="Times Roman,serif" font-size="9.00">JVM</text>
<polyline fill="none" stroke="black" points="96,-386 256,-386 "/>
<text text-anchor="middle" x="176" y="-373.9" font-family="Times Roman,serif" font-size="9.00">tomcat</text>
<polyline fill="none" stroke="black" points="96,-368 256,-368 "/>
<text text-anchor="middle" x="176" y="-355.9" font-family="Times Roman,serif" font-size="9.00">sakai</text>
<polyline fill="none" stroke="black" points="96,-350 256,-350 "/>
<text text-anchor="middle" x="122.5" y="-337.9" font-family="Times Roman,serif" font-size="9.00">WebDAV</text>
<polyline fill="none" stroke="black" points="149,-332 149,-350 "/>
<text text-anchor="middle" x="170" y="-337.9" font-family="Times Roman,serif" font-size="9.00">DBCP</text>
<polyline fill="none" stroke="black" points="191,-332 191,-350 "/>
<text text-anchor="middle" x="223.5" y="-337.9" font-family="Times Roman,serif" font-size="9.00">James MUA</text>
</a>
</g>
<!-- https&#45;&gt;jvm -->
<g id="edge25" class="edge"><title>https&#45;&gt;jvm:tomcat</title>
<path fill="none" stroke="green" d="M246.166,-457.173C255.451,-430.954 268.38,-389.236 260.649,-379.216"/>
<polygon fill="green" stroke="green" points="244.419,-456.859 244.379,-462.157 247.714,-458.041 244.419,-456.859"/>
<polygon fill="green" stroke="green" points="261.267,-377.572 256,-377 259.761,-380.731 261.267,-377.572"/>
</g>
<!-- localdisk -->
<g id="node6" class="node"><title>localdisk</title>
<image xlink:href="icons/disk_subsystem.png" width="22px" height="22px" preserveAspectRatio="xMinYMin meet" x="291" y="-379"/>
<polygon fill="none" stroke="black" stroke-width="0" points="330,-386 274,-386 274,-350 330,-350 330,-386"/>
<text text-anchor="middle" x="302" y="-377.9" font-family="Times Roman,serif" font-size="9.00">localdisk</text>
<text text-anchor="middle" x="302" y="-367.9" font-family="Times Roman,serif" font-size="9.00">static files</text>
</g>
<!-- https&#45;&gt;localdisk -->
<g id="edge35" class="edge"><title>https&#45;&gt;localdisk</title>
<path fill="none" stroke="green" stroke-dasharray="1,5" d="M251.135,-458.427C262.041,-439.037 278.01,-410.65 289.135,-390.871"/>
<polygon fill="green" stroke="green" points="249.494,-457.774 248.568,-462.99 252.545,-459.49 249.494,-457.774"/>
<polygon fill="green" stroke="green" points="290.786,-391.505 291.712,-386.289 287.736,-389.789 290.786,-391.505"/>
</g>
<!-- cosign -->
<g id="node28" class="node"><title>cosign</title>
<polygon fill="none" stroke="black" points="16,-244 16,-280 72,-280 72,-244 16,-244"/>
<text text-anchor="middle" x="44" y="-267.9" font-family="Times Roman,serif" font-size="9.00">Weblogin</text>
<polyline fill="none" stroke="black" points="16,-262 72,-262 "/>
<text text-anchor="middle" x="44" y="-249.9" font-family="Times Roman,serif" font-size="9.00">Check cgi</text>
</g>
<!-- https&#45;&gt;cosign -->
<g id="edge29" class="edge"><title>https&#45;&gt;cosign:weblogin</title>
<path fill="none" stroke="orange" d="M208.602,-472.531C174.442,-462.63 119.526,-441.945 87,-405 49.3154,-362.195 44.2745,-340.068 44.0115,-285.071"/>
<polygon fill="orange" stroke="orange" points="208.198,-474.236 213.486,-473.914 209.152,-470.868 208.198,-474.236"/>
<polygon fill="orange" stroke="orange" points="45.7615,-284.996 44,-280 42.2615,-285.004 45.7615,-284.996"/>
</g>
<!-- jvm&#45;&gt;lbs -->
<g id="edge4" class="edge"><title>jvm&#45;&gt;lbs</title>
<path fill="none" stroke="purple" stroke-dasharray="5,2" d="M260.186,-361.873C265.182,-370.595 262.704,-396.685 265,-405 268.143,-416.383 264.338,-423.21 274,-430 306.362,-452.745 326.581,-445.436 363,-430 381.873,-422.001 397.713,-404.838 408.37,-390.593"/>
<polygon fill="purple" stroke="purple" points="261.113,-360.386 256,-359 259.132,-363.272 261.113,-360.386"/>
<polygon fill="purple" stroke="purple" points="409.982,-391.352 411.509,-386.28 407.152,-389.293 409.982,-391.352"/>
</g>
<!-- jvm&#45;&gt;smtp -->
<g id="edge58" class="edge"><title>jvm:ctools&#45;&gt;smtp</title>
<path fill="none" stroke="cyan" stroke-dasharray="5,2" d="M257,-359C269.942,-359 260.343,-343.076 265,-331 271.291,-314.687 280.04,-297.013 287.087,-283.636"/>
<polygon fill="cyan" stroke="cyan" points="288.796,-284.149 289.599,-278.913 285.706,-282.506 288.796,-284.149"/>
</g>
<!-- umiac -->
<g id="node5" class="node"><title>umiac</title>
<a xlink:href="../ctstats/ctools-overview-brief-042810-0828.html" xlink:title="umiac">
<polygon fill="none" stroke="brown" points="245.763,-267.562 217,-280 188.237,-267.562 188.263,-247.438 245.737,-247.438 245.763,-267.562"/>
<text text-anchor="middle" x="217" y="-258.9" font-family="Times Roman,serif" font-size="9.00">umiac</text>
</a>
</g>
<!-- jvm&#45;&gt;umiac -->
<g id="edge37" class="edge"><title>jvm:ctools&#45;&gt;umiac</title>
<path fill="none" stroke="brown" d="M261.421,-356.554C266.571,-346.169 243.497,-305.147 228.674,-280.678"/>
<polygon fill="brown" stroke="brown" points="260.528,-355.048 257,-359 262.222,-358.111 260.528,-355.048"/>
<polygon fill="brown" stroke="brown" points="230.109,-279.67 226.011,-276.313 227.121,-281.493 230.109,-279.67"/>
</g>
<!-- ctoolsdb -->
<g id="node26" class="node"><title>ctoolsdb</title>
<a xlink:href="../ctstats/db-ctools-042810-0826.html" xlink:title="ctools_user@CTOOLS">
<image xlink:href="icons/db.jpg" width="64px" height="50px" preserveAspectRatio="xMinYMin meet" x="205" y="-181"/>
<polygon fill="none" stroke="black" stroke-width="0" points="291,-181 183,-181 183,-131 291,-131 291,-181"/>
<text text-anchor="middle" x="237" y="-172.9" font-family="Times Roman,serif" font-size="9.00">ctools_user@CTOOLS</text>
</a>
</g>
<!-- jvm&#45;&gt;ctoolsdb -->
<g id="edge27" class="edge"><title>jvm:dbpool&#45;&gt;ctoolsdb</title>
<path fill="none" stroke="black" d="M169.967,-326.581C169.493,-287.517 164.29,-273.737 179,-235 185.901,-216.825 198.196,-199.137 209.695,-185.122"/>
<polygon fill="black" stroke="black" points="168.219,-327.011 170,-332 171.719,-326.989 168.219,-327.011"/>
<polygon fill="black" stroke="black" points="211.051,-186.229 212.912,-181.269 208.364,-183.985 211.051,-186.229"/>
</g>
<!-- jvm&#45;&gt;cosign -->
<g id="edge31" class="edge"><title>jvm:webdav&#45;&gt;cosign:authcgi</title>
<path fill="none" stroke="olive" d="M89.2817,-338.825C78.1921,-326.65 87.825,-267.075 76.6482,-255.099"/>
<polygon fill="olive" stroke="olive" points="88.7266,-340.496 94,-341 90.192,-337.317 88.7266,-340.496"/>
<polygon fill="olive" stroke="olive" points="77.2772,-253.463 72,-253 75.8365,-256.653 77.2772,-253.463"/>
</g>
<!-- volctfs -->
<g id="node32" class="node"><title>volctfs</title>
<image xlink:href="icons/disk_subsystem.png" width="22px" height="22px" preserveAspectRatio="xMinYMin meet" x="144" y="-62"/>
<polygon fill="none" stroke="black" stroke-width="0" points="207,-69 103,-69 103,-33 207,-33 207,-69"/>
<text text-anchor="middle" x="155" y="-60.9" font-family="Times Roman,serif" font-size="9.00">CTools Resource files</text>
</g>
<!-- jvm&#45;&gt;volctfs -->
<g id="edge33" class="edge"><title>jvm:tomcat&#45;&gt;volctfs</title>
<path fill="none" stroke="red" d="M90.44,-374.625C71.5568,-350.21 128.201,-144.369 148.249,-74.2694"/>
<polygon fill="red" stroke="red" points="89.757,-376.242 95,-377 91.3739,-373.138 89.757,-376.242"/>
<polygon fill="red" stroke="red" points="149.932,-74.7499 149.628,-69.4612 146.567,-73.7852 149.932,-74.7499"/>
</g>
<!-- smtp&#45;&gt;jvm -->
<g id="edge56" class="edge"><title>smtp&#45;&gt;jvm:mua</title>
<path fill="none" stroke="blue" stroke-dasharray="5,2" d="M290.641,-279.533C281.517,-298.443 267.293,-327.202 260.426,-337.322"/>
<polygon fill="blue" stroke="blue" points="259.127,-336.148 257,-341 261.688,-338.534 259.127,-336.148"/>
</g>
<!-- UMNet -->
<g id="node48" class="node"><title>UMNet</title>
<ellipse fill="none" stroke="black" cx="396" cy="-573" rx="27" ry="18"/>
<text text-anchor="middle" x="396" y="-569.9" font-family="Times Roman,serif" font-size="9.00">UMNet</text>
</g>
<!-- smtp&#45;&gt;UMNet -->
<g id="edge59" class="edge"><title>smtp&#45;&gt;UMNet</title>
<path fill="none" stroke="cyan" stroke-dasharray="5,2" d="M310.49,-278.588C319.408,-292.142 331.481,-312.085 339,-331 369.642,-408.088 386.401,-505.822 392.852,-549.756"/>
<polygon fill="cyan" stroke="cyan" points="391.14,-550.144 393.588,-554.842 394.604,-549.643 391.14,-550.144"/>
</g>
<!-- umiacdb -->
<g id="node16" class="node"><title>umiacdb</title>
<image xlink:href="icons/db.jpg" width="64px" height="50px" preserveAspectRatio="xMinYMin meet" x="328" y="-181"/>
<polygon fill="none" stroke="black" stroke-width="0" points="411,-181 309,-181 309,-131 411,-131 411,-181"/>
<text text-anchor="middle" x="360" y="-172.9" font-family="Times Roman,serif" font-size="9.00">umiacv2@LESSONS</text>
</g>
<!-- umiac&#45;&gt;umiacdb -->
<g id="edge39" class="edge"><title>umiac&#45;&gt;umiacdb</title>
<path fill="none" stroke="black" d="M246.312,-244.588C251.836,-241.365 257.58,-238.054 263,-235 279.285,-225.823 284.965,-226.107 300,-215 311.93,-206.186 323.835,-195.083 333.858,-184.893"/>
<polygon fill="black" stroke="black" points="245.167,-243.23 241.736,-247.266 246.935,-246.251 245.167,-243.23"/>
<polygon fill="black" stroke="black" points="335.231,-185.991 337.462,-181.186 332.722,-183.551 335.231,-185.991"/>
</g>
<!-- ssjvm -->
<g id="node8" class="node"><title>ssjvm</title>
<polygon fill="none" stroke="black" points="435.5,-120 435.5,-192 584.5,-192 584.5,-120 435.5,-120"/>
<text text-anchor="middle" x="510" y="-179.9" font-family="Times Roman,serif" font-size="9.00">JVM</text>
<polyline fill="none" stroke="black" points="435.5,-174 584.5,-174 "/>
<text text-anchor="middle" x="510" y="-161.9" font-family="Times Roman,serif" font-size="9.00">tomcat</text>
<polyline fill="none" stroke="black" points="435.5,-156 584.5,-156 "/>
<text text-anchor="middle" x="510" y="-143.9" font-family="Times Roman,serif" font-size="9.00">sakai</text>
<polyline fill="none" stroke="black" points="435.5,-138 584.5,-138 "/>
<text text-anchor="middle" x="456.5" y="-125.9" font-family="Times Roman,serif" font-size="9.00">DBCP</text>
<polyline fill="none" stroke="black" points="477.5,-120 477.5,-138 "/>
<text text-anchor="middle" x="500.5" y="-125.9" font-family="Times Roman,serif" font-size="9.00">Lucene</text>
<polyline fill="none" stroke="black" points="523.5,-120 523.5,-138 "/>
<text text-anchor="middle" x="554" y="-125.9" font-family="Times Roman,serif" font-size="9.00">Eval import</text>
</g>
<!-- afsctsearch -->
<g id="node14" class="node"><title>afsctsearch</title>
<image xlink:href="icons/disk_subsystem.png" width="22px" height="22px" preserveAspectRatio="xMinYMin meet" x="489" y="-62"/>
<polygon fill="none" stroke="black" stroke-width="0" points="539,-69 461,-69 461,-33 539,-33 539,-69"/>
<text text-anchor="middle" x="500" y="-60.9" font-family="Times Roman,serif" font-size="9.00">/ctsearch/fs201</text>
</g>
<!-- ssjvm&#45;&gt;afsctsearch -->
<g id="edge8" class="edge"><title>ssjvm:lucene&#45;&gt;afsctsearch</title>
<path fill="none" stroke="green" d="M500,-114.678C500,-100.92 500,-86.1943 500,-74.3729"/>
<polygon fill="green" stroke="green" points="498.25,-115 500,-120 501.75,-115 498.25,-115"/>
<polygon fill="green" stroke="green" points="501.75,-74.1596 500,-69.1597 498.25,-74.1597 501.75,-74.1596"/>
</g>
<!-- ssjvm&#45;&gt;ctoolsdb -->
<g id="edge21" class="edge"><title>ssjvm:dbpool&#45;&gt;ctoolsdb</title>
<path fill="none" stroke="black" d="M430.134,-130.995C418.597,-142.389 430.317,-199.283 423,-215 420.476,-220.421 419.462,-222.567 414,-225 392.685,-234.493 330.651,-233.699 309,-225 288.882,-216.917 271.218,-200.231 258.421,-185.293"/>
<polygon fill="black" stroke="black" points="431.038,-132.516 435,-129 429.71,-129.278 431.038,-132.516"/>
<polygon fill="black" stroke="black" points="259.493,-183.847 254.942,-181.135 256.808,-186.093 259.493,-183.847"/>
</g>
<!-- sshttp&#45;&gt;ssjvm -->
<g id="edge6" class="edge"><title>sshttp&#45;&gt;ssjvm:tomcat</title>
<path fill="none" stroke="purple" stroke-dasharray="5,2" d="M554.802,-242.033C578.448,-215.695 614.557,-170.676 590.257,-165.491"/>
<polygon fill="purple" stroke="purple" points="553.268,-241.12 551.208,-246 555.862,-243.469 553.268,-241.12"/>
<polygon fill="purple" stroke="purple" points="590.141,-163.723 585,-165 589.815,-167.208 590.141,-163.723"/>
</g>
<!-- ssumiac -->
<g id="node10" class="node"><title>ssumiac</title>
<polygon fill="none" stroke="brown" points="492.763,-267.562 464,-280 435.237,-267.562 435.263,-247.438 492.737,-247.438 492.763,-267.562"/>
<text text-anchor="middle" x="464" y="-258.9" font-family="Times Roman,serif" font-size="9.00">umiac</text>
</g>
<!-- ssumiac&#45;&gt;ssjvm -->
<g id="edge10" class="edge"><title>ssumiac&#45;&gt;ssjvm:ctools</title>
<path fill="none" stroke="brown" d="M455.552,-247.327C448.662,-233.843 438.914,-212.418 435,-192.5 431.497,-174.672 417.965,-152.152 429.918,-147.761"/>
<polygon fill="brown" stroke="brown" points="430.314,-149.471 435,-147 429.796,-146.01 430.314,-149.471"/>
</g>
<!-- umiacdb&#45;&gt;ssumiac -->
<g id="edge12" class="edge"><title>umiacdb&#45;&gt;ssumiac</title>
<path fill="none" stroke="black" d="M384.729,-181.205C403.512,-200.349 428.915,-226.24 445.849,-243.5"/>
<polygon fill="black" stroke="black" points="444.788,-244.918 449.539,-247.261 447.287,-242.466 444.788,-244.918"/>
</g>
<!-- volora -->
<g id="node40" class="node"><title>volora</title>
<image xlink:href="icons/disk_subsystem.png" width="22px" height="22px" preserveAspectRatio="xMinYMin meet" x="254" y="-62"/>
<polygon fill="none" stroke="black" stroke-width="0" points="305,-69 225,-69 225,-33 305,-33 305,-69"/>
<text text-anchor="middle" x="265" y="-60.9" font-family="Times Roman,serif" font-size="9.00">Oracle data vols</text>
</g>
<!-- umiacdb&#45;&gt;volora -->
<g id="edge44" class="edge"><title>umiacdb&#45;&gt;volora</title>
<path fill="none" stroke="green" d="M333.525,-126.738C318.084,-109.672 298.931,-88.5022 284.802,-72.8863"/>
<polygon fill="green" stroke="green" points="332.593,-128.316 337.245,-130.85 335.188,-125.968 332.593,-128.316"/>
<polygon fill="green" stroke="green" points="285.976,-71.5753 281.323,-69.0417 283.38,-73.9236 285.976,-71.5753"/>
</g>
<!-- HEPROD -->
<g id="node18" class="node"><title>HEPROD</title>
<image xlink:href="icons/db.jpg" width="54px" height="50px" preserveAspectRatio="xMinYMin meet" x="617" y="-505"/>
<polygon fill="none" stroke="black" stroke-width="0" points="671,-505 617,-505 617,-455 671,-455 671,-505"/>
<text text-anchor="middle" x="644" y="-496.9" font-family="Times Roman,serif" font-size="9.00">HEPROD</text>
</g>
<!-- flamingo -->
<g id="node20" class="node"><title>flamingo</title>
<ellipse fill="none" stroke="black" cx="644" cy="-368" rx="28.8675" ry="18"/>
<text text-anchor="middle" x="644" y="-364.9" font-family="Times Roman,serif" font-size="9.00">flamingo</text>
</g>
<!-- HEPROD&#45;&gt;flamingo -->
<g id="edge16" class="edge"><title>HEPROD&#45;&gt;flamingo</title>
<path fill="none" stroke="magenta" d="M644,-454.865C644,-435.764 644,-409.697 644,-391.113"/>
<polygon fill="magenta" stroke="magenta" points="645.75,-391.082 644,-386.082 642.25,-391.082 645.75,-391.082"/>
</g>
<!-- ctsupport -->
<g id="node21" class="node"><title>ctsupport</title>
<a xlink:href="https://ctoolstest.ds.itd.umich.edu/stats/ctools/support" xlink:title="{&lt;forprod&gt; for_prod | &lt;evaluploader&gt; evalUploader}">
<polygon fill="none" stroke="black" points="609.5,-244 609.5,-280 678.5,-280 678.5,-244 609.5,-244"/>
<text text-anchor="middle" x="644" y="-267.9" font-family="Times Roman,serif" font-size="9.00">for_prod</text>
<polyline fill="none" stroke="black" points="609.5,-262 678.5,-262 "/>
<text text-anchor="middle" x="644" y="-249.9" font-family="Times Roman,serif" font-size="9.00">evalUploader</text>
</a>
</g>
<!-- flamingo&#45;&gt;ctsupport -->
<g id="edge17" class="edge"><title>flamingo&#45;&gt;ctsupport:forprod</title>
<path fill="none" stroke="magenta" d="M644,-349.798C644,-333.254 644,-308.007 644,-285.142"/>
<polygon fill="magenta" stroke="magenta" points="645.75,-285 644,-280 642.25,-285 645.75,-285"/>
</g>
<!-- ctsupport&#45;&gt;ssjvm -->
<g id="edge19" class="edge"><title>ctsupport:evaluploader&#45;&gt;ssjvm:evalport</title>
<path fill="none" stroke="magenta" d="M607,-253C594.428,-253 597.983,-152.908 588.687,-132.577"/>
<polygon fill="magenta" stroke="magenta" points="589.807,-131.226 585,-129 587.37,-133.738 589.807,-131.226"/>
</g>
<!-- ctoolsdb&#45;&gt;volora -->
<g id="edge42" class="edge"><title>ctoolsdb&#45;&gt;volora</title>
<path fill="none" stroke="green" d="M245.053,-125.8C249.451,-109.308 254.811,-89.2086 258.867,-73.9998"/>
<polygon fill="green" stroke="green" points="243.304,-125.568 243.707,-130.85 246.686,-126.47 243.304,-125.568"/>
<polygon fill="green" stroke="green" points="260.591,-74.3239 260.189,-69.0417 257.21,-73.422 260.591,-74.3239"/>
</g>
<!-- enduser -->
<g id="node45" class="node"><title>enduser</title>
<image xlink:href="icons/cloud.png" width="22px" height="22px" preserveAspectRatio="xMinYMin meet" x="436" y="-670"/>
<polygon fill="none" stroke="black" stroke-width="0" points="495,-677 399,-677 399,-641 495,-641 495,-677"/>
<text text-anchor="middle" x="447" y="-668.9" font-family="Times Roman,serif" font-size="9.00">end&#45;user browser(s)</text>
</g>
<!-- enduser&#45;&gt;UMNet -->
<g id="edge48" class="edge"><title>enduser&#45;&gt;UMNet</title>
<path fill="none" stroke="green" d="M433.578,-636.366C425.856,-623.345 416.213,-607.085 408.629,-594.296"/>
<polygon fill="green" stroke="green" points="432.129,-637.354 436.184,-640.762 435.139,-635.568 432.129,-637.354"/>
<polygon fill="green" stroke="green" points="409.991,-593.162 405.935,-589.754 406.981,-594.947 409.991,-593.162"/>
</g>
<!-- mta -->
<g id="node46" class="node"><title>mta</title>
<image xlink:href="icons/cloud.png" width="22px" height="22px" preserveAspectRatio="xMinYMin meet" x="334" y="-670"/>
<polygon fill="none" stroke="black" stroke-width="0" points="381,-677 309,-677 309,-641 381,-641 381,-677"/>
<text text-anchor="middle" x="345" y="-668.9" font-family="Times Roman,serif" font-size="9.00">SMTP mailers</text>
</g>
<!-- mta&#45;&gt;UMNet -->
<g id="edge52" class="edge"><title>mta&#45;&gt;UMNet</title>
<path fill="none" stroke="blue" stroke-dasharray="5,2" d="M350.18,-640.762C357.115,-626.642 368.647,-607.118 378.572,-592.653"/>
<polygon fill="blue" stroke="blue" points="380.159,-593.437 381.593,-588.338 377.292,-591.43 380.159,-593.437"/>
</g>
<!-- UMNet&#45;&gt;lbs -->
<g id="edge49" class="edge"><title>UMNet&#45;&gt;lbs</title>
<path fill="none" stroke="green" d="M399.06,-549.766C404.257,-510.309 414.748,-430.657 419.943,-391.214"/>
<polygon fill="green" stroke="green" points="397.314,-549.622 398.396,-554.808 400.784,-550.079 397.314,-549.622"/>
<polygon fill="green" stroke="green" points="421.691,-391.337 420.609,-386.152 418.221,-390.88 421.691,-391.337"/>
</g>
<!-- UMNet&#45;&gt;mta -->
<g id="edge60" class="edge"><title>UMNet&#45;&gt;mta</title>
<path fill="none" stroke="cyan" stroke-dasharray="5,2" d="M390.978,-590.917C384.503,-604.155 373.9,-622.269 364.369,-636.485"/>
<polygon fill="cyan" stroke="cyan" points="362.824,-635.645 361.452,-640.762 365.715,-637.617 362.824,-635.645"/>
</g>
<!-- virusscan -->
<g id="node49" class="node"><title>virusscan</title>
<ellipse fill="none" stroke="black" cx="482" cy="-480" rx="57.814" ry="18"/>
<text text-anchor="middle" x="482" y="-476.9" font-family="Times Roman,serif" font-size="9.00">UM SMTP virus scan</text>
</g>
<!-- UMNet&#45;&gt;virusscan -->
<g id="edge53" class="edge"><title>UMNet&#45;&gt;virusscan</title>
<path fill="none" stroke="blue" stroke-dasharray="5,2" d="M410.201,-557.643C424.394,-542.295 446.334,-518.569 462.227,-501.383"/>
<polygon fill="blue" stroke="blue" points="463.613,-502.461 465.723,-497.602 461.043,-500.085 463.613,-502.461"/>
</g>
<!-- virusscan&#45;&gt;lbs -->
<g id="edge54" class="edge"><title>virusscan&#45;&gt;lbs</title>
<path fill="none" stroke="blue" stroke-dasharray="5,2" d="M472.521,-462.005C462.345,-442.689 446.153,-411.951 435.073,-390.919"/>
<polygon fill="blue" stroke="blue" points="436.531,-389.93 432.652,-386.322 433.434,-391.562 436.531,-389.93"/>
</g>
</g>
</svg>
