<?xml version="1.0" encoding="UTF-8" standalone="no"?>
<!DOCTYPE svg PUBLIC "-//W3C//DTD SVG 1.1//EN"
 "http://www.w3.org/Graphics/SVG/1.1/DTD/svg11.dtd">
<!-- Generated by graphviz version 2.26.3 (20100126.1600)
 -->
<!-- Title: ctools Pages: 1 -->
<svg width="299pt" height="511pt"
 viewBox="0.00 0.00 299.00 511.00" xmlns="http://www.w3.org/2000/svg" xmlns:xlink="http://www.w3.org/1999/xlink">
<g id="graph1" class="graph" transform="scale(1 1) rotate(0) translate(4 507)">
<title>ctools</title>
<polygon fill="white" stroke="white" points="-4,5 -4,-507 296,-507 296,5 -4,5"/>
<text text-anchor="middle" x="145.5" y="-5.8" font-family="Times Roman,serif" font-size="8.00">CTools Overview</text>
<g id="graph2" class="cluster"><title>cluster_storage</title>
<a xlink:href="http://ctstats.ds.itd.umich.edu/stats-bin/drraw.cgi?Mode=view&amp;Dashboard=1151462293.28892" xlink:title="boxcar netapp">
<polygon fill="none" stroke="black" points="75,-25 75,-94 283,-94 283,-25 75,-25"/>
<text text-anchor="middle" x="179" y="-82.8" font-family="Times Roman,serif" font-size="8.00">boxcar netapp</text>
</a>
</g>
<g id="graph3" class="cluster"><title>cluster_servers</title>
<a xlink:href="http://ctstats.ds.itd.umich.edu/stats-bin/drraw.cgi?Mode=view;Dashboard=1194322225.25790" xlink:title="Servers">
<polygon fill="none" stroke="black" points="82,-169 82,-384 234,-384 234,-169 82,-169"/>
<text text-anchor="middle" x="158" y="-372.8" font-family="Times Roman,serif" font-size="8.00">Servers</text>
</a>
</g>
<!-- ctoolsdb -->
<g id="node1" class="node"><title>ctoolsdb</title>
<a xlink:href="http://ctstats.ds.itd.umich.edu/stats-bin/drraw.cgi?Mode=view;Dashboard=1178035455.23662" xlink:title="CTools DB">
<ellipse fill="none" stroke="black" cx="121" cy="-123" rx="34.0637" ry="18"/>
<text text-anchor="middle" x="121" y="-119.9" font-family="Times Roman,serif" font-size="9.00">CTools DB</text>
</a>
</g>
<!-- volora -->
<g id="node8" class="node"><title>volora</title>
<image xlink:href="icons/disk_subsystem.png" width="22px" height="22px" preserveAspectRatio="xMinYMin meet" x="110" y="-62"/>
<polygon fill="none" stroke="blue" points="159,-69 83,-69 83,-33 159,-33 159,-69"/>
<text text-anchor="middle" x="121" y="-47.9" font-family="Times Roman,serif" font-size="9.00">Oracle DB vols</text>
</g>
<!-- ctoolsdb&#45;&#45;volora -->
<g id="edge7" class="edge"><title>ctoolsdb&#45;&#45;volora</title>
<path fill="none" stroke="green" d="M121,-104.831C121,-94 121,-80.2876 121,-69.4133"/>
</g>
<!-- appservers -->
<g id="node2" class="node"><title>appservers</title>
<a xlink:href="http://ctstats.ds.itd.umich.edu/stats-bin/drraw.cgi?Mode=view;Dashboard=1194322225.25790" xlink:title="{CTools app servers|{&lt;apache&gt; Apache|&lt;ctools&gt; Tomcat|postfix}}">
<polygon fill="none" stroke="black" points="89.5,-250 89.5,-286 226.5,-286 226.5,-250 89.5,-250"/>
<text text-anchor="middle" x="158" y="-273.9" font-family="Times Roman,serif" font-size="9.00">CTools app servers</text>
<polyline fill="none" stroke="black" points="89.5,-268 226.5,-268 "/>
<text text-anchor="middle" x="113.5" y="-255.9" font-family="Times Roman,serif" font-size="9.00">Apache</text>
<polyline fill="none" stroke="black" points="137.5,-250 137.5,-268 "/>
<text text-anchor="middle" x="160.5" y="-255.9" font-family="Times Roman,serif" font-size="9.00">Tomcat</text>
<polyline fill="none" stroke="black" points="183.5,-250 183.5,-268 "/>
<text text-anchor="middle" x="205" y="-255.9" font-family="Times Roman,serif" font-size="9.00">postfix</text>
</a>
</g>
<!-- appservers&#45;&#45;ctoolsdb -->
<g id="edge5" class="edge"><title>appservers&#45;&#45;ctoolsdb:ctools</title>
<path fill="none" stroke="blue" d="M160.612,-249.896C162.83,-229.592 164.341,-195.973 155,-169 151.165,-157.927 143.642,-147.289 136.645,-139.037"/>
</g>
<!-- volctfs -->
<g id="node7" class="node"><title>volctfs</title>
<image xlink:href="icons/disk_subsystem.png" width="22px" height="22px" preserveAspectRatio="xMinYMin meet" x="215" y="-62"/>
<polygon fill="none" stroke="red" points="275,-69 177,-69 177,-33 275,-33 275,-69"/>
<text text-anchor="middle" x="226" y="-47.9" font-family="Times Roman,serif" font-size="9.00">Sakai resources vols</text>
</g>
<!-- appservers&#45;&#45;volctfs -->
<g id="edge9" class="edge"><title>appservers:ctools&#45;&#45;volctfs</title>
<path fill="none" stroke="green" d="M161,-250C161,-225.783 189.63,-234.382 201,-213 226.119,-165.762 227.827,-100.537 226.962,-69.2195"/>
</g>
<!-- umiac -->
<g id="node15" class="node"><title>umiac</title>
<ellipse fill="none" stroke="black" cx="119" cy="-195" rx="27" ry="18"/>
<text text-anchor="middle" x="119" y="-191.9" font-family="Times Roman,serif" font-size="9.00">umiac</text>
</g>
<!-- appservers&#45;&#45;umiac -->
<g id="edge13" class="edge"><title>appservers:ctools&#45;&#45;umiac</title>
<path fill="none" stroke="black" d="M161,-250C161,-233.42 148.795,-218.733 137.544,-208.716"/>
</g>
<!-- UMNet -->
<g id="node3" class="node"><title>UMNet</title>
<image xlink:href="icons/router.png" width="22px" height="22px" preserveAspectRatio="xMinYMin meet" x="26" y="-424"/>
<polyline fill="none" stroke="black" stroke-width="0" stroke-dasharray="1,5" points="52,-431 22,-431 "/>
<path fill="none" stroke="black" stroke-width="0" stroke-dasharray="1,5" d="M22,-431C16,-431 10,-425 10,-419"/>
<polyline fill="none" stroke="black" stroke-width="0" stroke-dasharray="1,5" points="10,-419 10,-407 "/>
<path fill="none" stroke="black" stroke-width="0" stroke-dasharray="1,5" d="M10,-407C10,-401 16,-395 22,-395"/>
<polyline fill="none" stroke="black" stroke-width="0" stroke-dasharray="1,5" points="22,-395 52,-395 "/>
<path fill="none" stroke="black" stroke-width="0" stroke-dasharray="1,5" d="M52,-395C58,-395 64,-401 64,-407"/>
<polyline fill="none" stroke="black" stroke-width="0" stroke-dasharray="1,5" points="64,-407 64,-419 "/>
<path fill="none" stroke="black" stroke-width="0" stroke-dasharray="1,5" d="M64,-419C64,-425 58,-431 52,-431"/>
<text text-anchor="middle" x="37" y="-422.9" font-family="Times Roman,serif" font-size="9.00">ALDF</text>
</g>
<!-- lbs -->
<g id="node4" class="node"><title>lbs</title>
<a xlink:href="http://ctstats.ds.itd.umich.edu/stats-bin/drraw.cgi?Mode=view;Dashboard=1191545928.21917" xlink:title="load balancers">
<image xlink:href="icons/gswanson_Citrix_Netscaler_1.png" width="74px" height="30px" preserveAspectRatio="xMinYMin meet" x="0" y="-356"/>
<polygon fill="none" stroke="black" stroke-width="0" points="74,-359 3.55271e-14,-359 0,-323 74,-323 74,-359"/>
<text text-anchor="middle" x="37" y="-324.9" font-family="Times Roman,serif" font-size="9.00">load balancers</text>
</a>
</g>
<!-- UMNet&#45;&#45;lbs -->
<g id="edge19" class="edge"><title>UMNet&#45;&#45;lbs</title>
<path fill="none" stroke="cyan" d="M37,-394.831C37,-384 37,-370.288 37,-359.413"/>
</g>
<!-- lbs&#45;&#45;appservers -->
<g id="edge20" class="edge"><title>lbs&#45;&#45;appservers:apache</title>
<path fill="none" stroke="cyan" d="M39.2418,-322.822C44.8369,-299.045 58.7504,-259 89,-259"/>
</g>
<!-- searchserver -->
<g id="node5" class="node"><title>searchserver</title>
<ellipse fill="none" stroke="black" cx="173" cy="-341" rx="39.8372" ry="18"/>
<text text-anchor="middle" x="173" y="-337.9" font-family="Times Roman,serif" font-size="9.00">searchserver</text>
</g>
<!-- searchserver&#45;&#45;appservers -->
<g id="edge2" class="edge"><title>searchserver&#45;&#45;appservers:ctools</title>
<path fill="none" stroke="purple" d="M192.644,-325.133C215.697,-305.98 248.138,-272.481 226,-250 215.864,-239.707 161,-234.554 161,-249"/>
</g>
<!-- searchserver&#45;&#45;volctfs -->
<g id="edge11" class="edge"><title>searchserver&#45;&#45;volctfs</title>
<path fill="none" stroke="green" d="M197.836,-326.612C211.461,-317.235 227.143,-303.653 235,-287 269.99,-212.835 244.815,-110.51 232.127,-69.2916"/>
</g>
<!-- umiac&#45;&#45;ctoolsdb -->
<g id="edge15" class="edge"><title>umiac&#45;&#45;ctoolsdb</title>
<path fill="none" stroke="black" d="M119.505,-176.831C119.806,-166 120.186,-152.288 120.489,-141.413"/>
</g>
<!-- end&#45;users -->
<g id="node18" class="node"><title>end&#45;users</title>
<ellipse fill="none" stroke="black" cx="37" cy="-485" rx="32.909" ry="18"/>
<text text-anchor="middle" x="37" y="-481.9" font-family="Times Roman,serif" font-size="9.00">end&#45;users</text>
</g>
<!-- end&#45;users&#45;&#45;UMNet -->
<g id="edge18" class="edge"><title>end&#45;users&#45;&#45;UMNet</title>
<path fill="none" stroke="cyan" d="M37,-466.831C37,-456 37,-442.288 37,-431.413"/>
</g>
</g>
</svg>
