<?xml version="1.0" encoding="UTF-8" standalone="no"?>
<!DOCTYPE svg PUBLIC "-//W3C//DTD SVG 1.1//EN"
 "http://www.w3.org/Graphics/SVG/1.1/DTD/svg11.dtd">
<!-- Generated by graphviz version 2.26.3 (20100126.1600)
 -->
<!-- Title: ctstatsSimple Pages: 1 -->
<svg width="695pt" height="586pt"
 viewBox="0.00 0.00 695.00 586.00" xmlns="http://www.w3.org/2000/svg" xmlns:xlink="http://www.w3.org/1999/xlink">
<g id="graph1" class="graph" transform="scale(1 1) rotate(0) translate(4 582)">
<title>ctstatsSimple</title>
<polygon fill="white" stroke="white" points="-4,5 -4,-582 692,-582 692,5 -4,5"/>
<text text-anchor="middle" x="343.5" y="-7.4" font-family="Times Roman,serif" font-size="14.00">CTstats basic setup</text>
<g id="graph2" class="cluster"><title>cluster_frontend</title>
<a xlink:href="https://ctstats.ds.itd.umich.edu/">
<polygon fill="none" stroke="black" points="8,-32 8,-164 172,-164 172,-32 8,-32"/>
</a>
</g>
<g id="graph4" class="cluster"><title>cluster_input</title>
<polygon fill="none" stroke="black" stroke-dasharray="5,2" points="27,-454 27,-570 679,-570 679,-454 27,-454"/>
<text text-anchor="middle" x="353" y="-558.8" font-family="Times Roman,serif" font-size="8.00">Sources of</text>
<text text-anchor="middle" x="353" y="-549.8" font-family="Times Roman,serif" font-size="8.00">Performance and usage statistics</text>
</g>
<g id="graph5" class="cluster"><title>cluster_procs</title>
<polygon fill="none" stroke="black" stroke-dasharray="1,5" points="136,-190 136,-346 372,-346 372,-190 136,-190"/>
<text text-anchor="middle" x="254" y="-197.4" font-family="Times Roman,serif" font-size="14.00">Processors</text>
</g>
<!-- end&#45;users -->
<g id="node1" class="node"><title>end&#45;users</title>
<image xlink:href="icons/cloud.png" width="22px" height="22px" preserveAspectRatio="xMinYMin meet" x="69" y="-251"/>
<polygon fill="none" stroke="black" stroke-width="0" points="108,-258 52,-258 52,-222 108,-222 108,-258"/>
<text text-anchor="middle" x="80" y="-249.9" font-family="Times Roman,serif" font-size="9.00">end&#45;users</text>
</g>
<!-- apache -->
<g id="node2" class="node"><title>apache</title>
<ellipse fill="none" stroke="black" cx="94" cy="-138" rx="61.1991" ry="18"/>
<text text-anchor="middle" x="94" y="-134.9" font-family="Times Roman,serif" font-size="9.00">Apache (presentation)</text>
</g>
<!-- end&#45;users&#45;&gt;apache -->
<g id="edge2" class="edge"><title>end&#45;users&#45;&gt;apache</title>
<path fill="none" stroke="navy" d="M69.9166,-221.758C63.8468,-208.327 58.3006,-189.742 64,-174 65.866,-168.846 68.8278,-163.911 72.1793,-159.438"/>
<polygon fill="navy" stroke="navy" points="73.5976,-160.466 75.3465,-155.465 70.861,-158.284 73.5976,-160.466"/>
<text text-anchor="middle" x="76" y="-175.7" font-family="Times Roman,serif" font-size="7.00">request</text>
</g>
<!-- apache&#45;&gt;end&#45;users -->
<g id="edge6" class="edge"><title>apache&#45;&gt;end&#45;users</title>
<path fill="none" stroke="lime" d="M91.4957,-156.412C90.4221,-164.293 89.1523,-173.598 88,-182 86.4214,-193.51 84.6577,-206.304 83.1889,-216.941"/>
<polygon fill="lime" stroke="lime" points="81.4443,-216.782 82.4936,-221.974 84.9114,-217.261 81.4443,-216.782"/>
<text text-anchor="middle" x="103.5" y="-175.7" font-family="Times Roman,serif" font-size="7.00">response</text>
</g>
<!-- drraw -->
<g id="node4" class="node"><title>drraw</title>
<a xlink:href="http://web.taranis.org/drraw" xlink:title="drraw cgi (graphical reports)">
<ellipse fill="none" stroke="black" cx="90" cy="-58" rx="73.9008" ry="18"/>
<text text-anchor="middle" x="90" y="-54.9" font-family="Times Roman,serif" font-size="9.00">drraw cgi (graphical reports)</text>
</a>
</g>
<!-- apache&#45;&gt;drraw -->
<g id="edge3" class="edge"><title>apache&#45;&gt;drraw</title>
<path fill="none" stroke="navy" d="M75.9593,-120.442C71.5098,-114.996 67.349,-108.66 65,-102 62.3381,-94.4523 64.736,-86.7049 68.93,-79.8555"/>
<polygon fill="navy" stroke="navy" points="70.3799,-80.8354 71.7442,-75.7167 67.4855,-78.8674 70.3799,-80.8354"/>
<text text-anchor="middle" x="77" y="-95.7" font-family="Times Roman,serif" font-size="7.00">request</text>
</g>
<!-- drraw&#45;&gt;apache -->
<g id="edge5" class="edge"><title>drraw&#45;&gt;apache</title>
<path fill="none" stroke="lime" d="M90.7956,-76.4128C91.1468,-84.2941 91.5757,-93.5993 92,-102 92.2042,-106.044 92.433,-110.343 92.6608,-114.51"/>
<polygon fill="lime" stroke="lime" points="90.9236,-114.792 92.9469,-119.688 94.4183,-114.599 90.9236,-114.792"/>
<text text-anchor="middle" x="106.5" y="-95.7" font-family="Times Roman,serif" font-size="7.00">response</text>
</g>
<!-- rrd -->
<g id="node6" class="node"><title>rrd</title>
<a xlink:href="http://rrdtool.org" xlink:title="RRD files (timeseries data store)">
<ellipse fill="none" stroke="black" cx="264" cy="-138" rx="83.7944" ry="18"/>
<text text-anchor="middle" x="264" y="-134.9" font-family="Times Roman,serif" font-size="9.00">RRD files (timeseries data store)</text>
</a>
</g>
<!-- rrd&#45;&gt;drraw -->
<g id="edge8" class="edge"><title>rrd&#45;&gt;drraw</title>
<path fill="none" stroke="navy" d="M228.369,-121.618C199.584,-108.383 159.11,-89.7748 129.371,-76.1014"/>
<polygon fill="navy" stroke="navy" points="129.967,-74.4496 124.693,-73.9508 128.505,-77.6296 129.967,-74.4496"/>
</g>
<!-- appservers -->
<g id="node10" class="node"><title>appservers</title>
<polygon fill="none" stroke="black" points="331,-463 331,-535 545,-535 545,-463 331,-463"/>
<text text-anchor="middle" x="438" y="-522.9" font-family="Times Roman,serif" font-size="9.00">CTools appservers</text>
<polyline fill="none" stroke="black" points="331,-517 545,-517 "/>
<text text-anchor="middle" x="364" y="-486.9" font-family="Times Roman,serif" font-size="9.00">UCD snmpd</text>
<polyline fill="none" stroke="black" points="397,-463 397,-517 "/>
<text text-anchor="middle" x="471" y="-504.9" font-family="Times Roman,serif" font-size="9.00">JVM</text>
<polyline fill="none" stroke="black" points="397,-499 545,-499 "/>
<text text-anchor="middle" x="420" y="-477.9" font-family="Times Roman,serif" font-size="9.00">Tomcat</text>
<polyline fill="none" stroke="black" points="443,-463 443,-499 "/>
<text text-anchor="middle" x="465" y="-477.9" font-family="Times Roman,serif" font-size="9.00">snmpd</text>
<polyline fill="none" stroke="black" points="487,-463 487,-499 "/>
<text text-anchor="middle" x="516" y="-486.9" font-family="Times Roman,serif" font-size="9.00">DBCP</text>
<polyline fill="none" stroke="black" points="487,-481 545,-481 "/>
<text text-anchor="middle" x="516" y="-468.9" font-family="Times Roman,serif" font-size="9.00">Sakai JSP</text>
</g>
<!-- snmp -->
<g id="node17" class="node"><title>snmp</title>
<ellipse fill="none" stroke="black" cx="326" cy="-320" rx="38.1051" ry="18"/>
<text text-anchor="middle" x="326" y="-316.9" font-family="Times Roman,serif" font-size="9.00">SNMP client</text>
</g>
<!-- appservers&#45;&gt;snmp -->
<g id="edge34" class="edge"><title>appservers:snmpd&#45;&gt;snmp</title>
<path fill="none" stroke="black" d="M364,-463C364,-419.229 347.165,-370.373 335.906,-342.593"/>
<polygon fill="black" stroke="black" points="337.395,-341.615 333.874,-337.658 334.159,-342.947 337.395,-341.615"/>
</g>
<!-- appservers&#45;&gt;snmp -->
<g id="edge36" class="edge"><title>appservers:jvmsnmpd&#45;&gt;snmp</title>
<path fill="none" stroke="black" d="M465,-463C465,-401.95 399.053,-357.157 358.007,-335.19"/>
<polygon fill="black" stroke="black" points="358.37,-333.404 353.131,-332.625 356.741,-336.502 358.37,-333.404"/>
</g>
<!-- scr -->
<g id="node18" class="node"><title>scr</title>
<ellipse fill="none" stroke="black" cx="322" cy="-240" rx="42.2213" ry="18"/>
<text text-anchor="middle" x="322" y="-236.9" font-family="Times Roman,serif" font-size="9.00">custom scripts</text>
</g>
<!-- appservers&#45;&gt;scr -->
<g id="edge22" class="edge"><title>appservers:jsp&#45;&gt;scr</title>
<path fill="none" stroke="black" d="M516,-463C516,-364.923 407.865,-288.993 353.06,-256.809"/>
<polygon fill="black" stroke="black" points="353.771,-255.197 348.568,-254.198 352.012,-258.224 353.771,-255.197"/>
<text text-anchor="middle" x="485" y="-357.7" font-family="Times Roman,serif" font-size="7.00">https</text>
</g>
<!-- netscaler -->
<g id="node11" class="node"><title>netscaler</title>
<polygon fill="none" stroke="black" points="313,-517 243,-517 243,-481 313,-481 313,-517"/>
<text text-anchor="middle" x="278" y="-495.9" font-family="Times Roman,serif" font-size="9.00">Loadbalancer</text>
</g>
<!-- netscaler&#45;&gt;snmp -->
<g id="edge30" class="edge"><title>netscaler&#45;&gt;snmp</title>
<path fill="none" stroke="black" d="M292.167,-480.704C299.33,-470.47 307.449,-457.155 312,-444 323.638,-410.359 326.104,-368.819 326.377,-343.378"/>
<polygon fill="black" stroke="black" points="328.128,-343.212 326.405,-338.203 324.628,-343.193 328.128,-343.212"/>
</g>
<!-- weblogs -->
<g id="node34" class="node"><title>weblogs</title>
<ellipse fill="none" stroke="black" cx="269" cy="-400" rx="28.9458" ry="18"/>
<text text-anchor="middle" x="269" y="-396.9" font-family="Times Roman,serif" font-size="9.00">weblogs</text>
</g>
<!-- netscaler&#45;&gt;weblogs -->
<g id="edge38" class="edge"><title>netscaler&#45;&gt;weblogs</title>
<path fill="none" stroke="black" d="M276.349,-480.842C274.878,-464.654 272.715,-440.868 271.117,-423.285"/>
<polygon fill="black" stroke="black" points="272.836,-422.864 270.64,-418.043 269.35,-423.181 272.836,-422.864"/>
<text text-anchor="middle" x="279" y="-437.7" font-family="Times Roman,serif" font-size="7.00">udp</text>
</g>
<!-- netapp -->
<g id="node12" class="node"><title>netapp</title>
<polygon fill="none" stroke="black" points="225,-517 171,-517 171,-481 225,-481 225,-517"/>
<text text-anchor="middle" x="198" y="-495.9" font-family="Times Roman,serif" font-size="9.00">NAS (nfs)</text>
</g>
<!-- netapp&#45;&gt;snmp -->
<g id="edge32" class="edge"><title>netapp&#45;&gt;snmp</title>
<path fill="none" stroke="black" d="M198.19,-480.595C199.317,-455.928 204.482,-411.803 226,-382 230.824,-375.319 269.299,-352.426 297.086,-336.414"/>
<polygon fill="black" stroke="black" points="297.984,-337.916 301.447,-333.907 296.24,-334.882 297.984,-337.916"/>
</g>
<!-- ctoolsdb -->
<g id="node13" class="node"><title>ctoolsdb</title>
<polygon fill="none" stroke="black" points="35,-481 35,-517 153,-517 153,-481 35,-481"/>
<text text-anchor="middle" x="94" y="-504.9" font-family="Times Roman,serif" font-size="9.00">CTools Oracle DB</text>
<polyline fill="none" stroke="black" points="35,-499 153,-499 "/>
<text text-anchor="middle" x="68" y="-486.9" font-family="Times Roman,serif" font-size="9.00">Sakai tables</text>
<polyline fill="none" stroke="black" points="101,-481 101,-499 "/>
<text text-anchor="middle" x="127" y="-486.9" font-family="Times Roman,serif" font-size="9.00">Data dict</text>
</g>
<!-- jsp -->
<g id="node19" class="node"><title>jsp</title>
<ellipse fill="none" stroke="black" cx="171" cy="-320" rx="27" ry="18"/>
<text text-anchor="middle" x="171" y="-316.9" font-family="Times Roman,serif" font-size="9.00">jsp</text>
</g>
<!-- ctoolsdb&#45;&gt;jsp -->
<g id="edge18" class="edge"><title>ctoolsdb:sakai&#45;&gt;jsp</title>
<path fill="none" stroke="black" d="M68,-481C68,-418.986 86.5525,-400.25 130,-356 136.155,-349.731 143.232,-343.279 149.755,-337.6"/>
<polygon fill="black" stroke="black" points="151.087,-338.762 153.732,-334.172 148.802,-336.111 151.087,-338.762"/>
<text text-anchor="middle" x="112" y="-397.7" font-family="Times Roman,serif" font-size="7.00">jdbc</text>
</g>
<!-- ctoolsdb&#45;&gt;jsp -->
<g id="edge20" class="edge"><title>ctoolsdb:dbmon&#45;&gt;jsp</title>
<path fill="none" stroke="black" d="M127,-481C127,-429.841 147.928,-372.669 160.918,-342.112"/>
<polygon fill="black" stroke="black" points="162.559,-342.725 162.93,-337.441 159.344,-341.34 162.559,-342.725"/>
<text text-anchor="middle" x="153" y="-397.7" font-family="Times Roman,serif" font-size="7.00">jdbc</text>
</g>
<!-- umiac -->
<g id="node14" class="node"><title>umiac</title>
<polygon fill="none" stroke="black" points="671,-517 563,-517 563,-481 671,-481 671,-517"/>
<text text-anchor="middle" x="617" y="-495.9" font-family="Times Roman,serif" font-size="9.00">Enrollment info (umiac)</text>
</g>
<!-- umiac&#45;&gt;scr -->
<g id="edge28" class="edge"><title>umiac&#45;&gt;scr</title>
<path fill="none" stroke="black" d="M605.84,-480.812C582.071,-443.283 523.032,-356.245 455,-302 426.661,-279.404 388.744,-262.775 360.646,-252.459"/>
<polygon fill="black" stroke="black" points="361.17,-250.787 355.872,-250.732 359.979,-254.078 361.17,-250.787"/>
<text text-anchor="middle" x="526" y="-357.7" font-family="Times Roman,serif" font-size="7.00">https</text>
</g>
<!-- snmp&#45;&gt;scr -->
<g id="edge14" class="edge"><title>snmp&#45;&gt;scr</title>
<path fill="none" stroke="black" d="M325.092,-301.847C324.52,-290.391 323.774,-275.486 323.159,-263.179"/>
<polygon fill="black" stroke="black" points="324.902,-262.988 322.904,-258.081 321.406,-263.163 324.902,-262.988"/>
</g>
<!-- scr&#45;&gt;rrd -->
<g id="edge26" class="edge"><title>scr&#45;&gt;rrd</title>
<path fill="none" stroke="black" d="M311.897,-222.233C302.143,-205.079 287.337,-179.042 276.771,-160.459"/>
<polygon fill="black" stroke="black" points="278.174,-159.387 274.182,-155.906 275.132,-161.117 278.174,-159.387"/>
</g>
<!-- jsp&#45;&gt;scr -->
<g id="edge24" class="edge"><title>jsp&#45;&gt;scr</title>
<path fill="none" stroke="black" d="M192.314,-308.708C218.011,-295.094 261.407,-272.102 290.855,-256.501"/>
<polygon fill="black" stroke="black" points="291.858,-257.95 295.457,-254.063 290.219,-254.857 291.858,-257.95"/>
<text text-anchor="middle" x="260" y="-277.7" font-family="Times Roman,serif" font-size="7.00">https</text>
</g>
<!-- toolprof -->
<g id="node20" class="node"><title>toolprof</title>
<ellipse fill="none" stroke="black" cx="243" cy="-320" rx="27" ry="18"/>
<text text-anchor="middle" x="243" y="-316.9" font-family="Times Roman,serif" font-size="9.00">toolprof</text>
</g>
<!-- toolprof&#45;&gt;rrd -->
<g id="edge16" class="edge"><title>toolprof&#45;&gt;rrd</title>
<path fill="none" stroke="black" d="M245.09,-301.884C248.927,-268.633 257.086,-197.917 261.323,-161.204"/>
<polygon fill="black" stroke="black" points="263.083,-161.211 261.918,-156.043 259.606,-160.809 263.083,-161.211"/>
</g>
<!-- weblogs&#45;&gt;toolprof -->
<g id="edge40" class="edge"><title>weblogs&#45;&gt;toolprof</title>
<path fill="none" stroke="black" d="M263.23,-382.245C259.426,-370.542 254.411,-355.112 250.327,-342.544"/>
<polygon fill="black" stroke="black" points="251.964,-341.919 248.754,-337.705 248.635,-343.001 251.964,-341.919"/>
</g>
</g>
</svg>
