<?xml version="1.0" encoding="UTF-8" standalone="no"?>
<!DOCTYPE svg PUBLIC "-//W3C//DTD SVG 1.1//EN"
 "http://www.w3.org/Graphics/SVG/1.1/DTD/svg11.dtd">
<!-- Generated by graphviz version 2.26.3 (20100126.1600)
 -->
<!-- Title: ctstats Pages: 1 -->
<svg width="761pt" height="590pt"
 viewBox="0.00 0.00 760.56 590.00" xmlns="http://www.w3.org/2000/svg" xmlns:xlink="http://www.w3.org/1999/xlink">
<g id="graph1" class="graph" transform="scale(1 1) rotate(0) translate(4 586)">
<title>ctstats</title>
<polygon fill="white" stroke="white" points="-4,5 -4,-586 757.563,-586 757.563,5 -4,5"/>
<text text-anchor="middle" x="376.282" y="-7.4" font-family="Times Roman,serif" font-size="14.00">CTools stats collection</text>
<g id="graph3" class="cluster"><title>cluster_lb</title>
<polygon fill="none" stroke="black" points="308.563,-366 308.563,-442 478.563,-442 478.563,-366 308.563,-366"/>
<text text-anchor="middle" x="393.563" y="-425.4" font-family="Times Roman,serif" font-size="14.00">load balancers</text>
</g>
<g id="graph4" class="cluster"><title>cluster_storage</title>
<polygon fill="none" stroke="black" points="29.5632,-32 29.5632,-110 419.563,-110 419.563,-32 29.5632,-32"/>
<text text-anchor="middle" x="224.563" y="-93.4" font-family="Times Roman,serif" font-size="14.00">NAS</text>
</g>
<!-- UMNet -->
<g id="node1" class="node"><title>UMNet</title>
<image xlink:href="icons/router.png" width="22px" height="22px" preserveAspectRatio="xMinYMin meet" x="371.563" y="-500"/>
<polyline fill="none" stroke="black" stroke-width="0" stroke-dasharray="1,5" points="397.563,-507 367.563,-507 "/>
<path fill="none" stroke="black" stroke-width="0" stroke-dasharray="1,5" d="M367.563,-507C361.563,-507 355.563,-501 355.563,-495"/>
<polyline fill="none" stroke="black" stroke-width="0" stroke-dasharray="1,5" points="355.563,-495 355.563,-483 "/>
<path fill="none" stroke="black" stroke-width="0" stroke-dasharray="1,5" d="M355.563,-483C355.563,-477 361.563,-471 367.563,-471"/>
<polyline fill="none" stroke="black" stroke-width="0" stroke-dasharray="1,5" points="367.563,-471 397.563,-471 "/>
<path fill="none" stroke="black" stroke-width="0" stroke-dasharray="1,5" d="M397.563,-471C403.563,-471 409.563,-477 409.563,-483"/>
<polyline fill="none" stroke="black" stroke-width="0" stroke-dasharray="1,5" points="409.563,-483 409.563,-495 "/>
<path fill="none" stroke="black" stroke-width="0" stroke-dasharray="1,5" d="M409.563,-495C409.563,-501 403.563,-507 397.563,-507"/>
<text text-anchor="middle" x="382.563" y="-498.9" font-family="Times Roman,serif" font-size="9.00">ALDF</text>
</g>
<!-- AFS -->
<g id="node2" class="node"><title>AFS</title>
<polygon fill="none" stroke="black" points="445.563,-471 445.563,-507 499.563,-507 499.563,-471 445.563,-471"/>
<text text-anchor="middle" x="472.563" y="-494.9" font-family="Times Roman,serif" font-size="9.00">AFS</text>
<polyline fill="none" stroke="black" points="445.563,-489 499.563,-489 "/>
<text text-anchor="middle" x="472.563" y="-476.9" font-family="Times Roman,serif" font-size="9.00">ctlogs</text>
</g>
<!-- UMNet&#45;&gt;AFS -->
<g id="edge2" class="edge"><title>UMNet&#45;&gt;AFS</title>
</g>
<!-- ns2 -->
<g id="node13" class="node"><title>ns2</title>
<a xlink:href="http://ctstats.ds.itd.umich.edu/stats-bin/drraw.cgi?Mode=view;Dashboard=1191545928.21917" xlink:title="ns2.ds lb">
<image xlink:href="icons/gswanson_Citrix_Netscaler_1.png" width="68px" height="30px" preserveAspectRatio="xMinYMin meet" x="402.563" y="-407"/>
<polygon fill="none" stroke="black" stroke-width="0" stroke-dasharray="1,5" points="470.563,-410 402.563,-410 402.563,-374 470.563,-374 470.563,-410"/>
<text text-anchor="middle" x="436.563" y="-375.9" font-family="Times Roman,serif" font-size="9.00">ns2.ds lb</text>
</a>
</g>
<!-- UMNet&#45;&gt;ns2 -->
<g id="edge59" class="edge"><title>UMNet&#45;&gt;ns2</title>
<path fill="none" stroke="brown" stroke-dasharray="1,5" d="M395.309,-466.105C403.929,-450.621 415.266,-430.256 423.874,-414.794"/>
<polygon fill="brown" stroke="brown" points="393.623,-465.535 392.72,-470.755 396.681,-467.238 393.623,-465.535"/>
<polygon fill="brown" stroke="brown" points="425.549,-415.383 426.452,-410.163 422.491,-413.681 425.549,-415.383"/>
</g>
<!-- feet -->
<g id="node20" class="node"><title>feet</title>
<polygon fill="none" stroke="black" points="7.06316,-154 7.06316,-190 232.063,-190 232.063,-154 7.06316,-154"/>
<text text-anchor="middle" x="119.563" y="-177.9" font-family="Times Roman,serif" font-size="9.00">ctsupport (feet)</text>
<polyline fill="none" stroke="black" points="7.06316,-172 232.063,-172 "/>
<text text-anchor="middle" x="34.5632" y="-159.9" font-family="Times Roman,serif" font-size="9.00">nsweblog</text>
<polyline fill="none" stroke="black" points="62.0632,-154 62.0632,-172 "/>
<text text-anchor="middle" x="95.0632" y="-159.9" font-family="Times Roman,serif" font-size="9.00">rrdtoolprofile</text>
<polyline fill="none" stroke="black" points="128.063,-154 128.063,-172 "/>
<text text-anchor="middle" x="156.063" y="-159.9" font-family="Times Roman,serif" font-size="9.00">nettracker</text>
<polyline fill="none" stroke="black" points="184.063,-154 184.063,-172 "/>
<text text-anchor="middle" x="208.063" y="-159.9" font-family="Times Roman,serif" font-size="9.00">DB JSP</text>
</g>
<!-- AFS&#45;&gt;feet -->
<g id="edge26" class="edge"><title>AFS:ctlogs&#45;&gt;feet:nettracker</title>
<path fill="none" stroke="green" d="M444.563,-480C432.182,-480 430.376,-473.706 418.563,-470 368.783,-454.382 341.85,-478.492 304.563,-442 224.97,-364.104 263.573,-308.749 239.563,-200 235.089,-179.737 247.355,-167.463 231.563,-154 226.162,-149.396 175.573,-145.864 160.673,-150.064"/>
<polygon fill="green" stroke="green" points="159.614,-148.67 156.563,-153 161.649,-151.518 159.614,-148.67"/>
</g>
<!-- nagios -->
<g id="node4" class="node"><title>nagios</title>
<polygon fill="none" stroke="black" points="517.063,-471 517.063,-507 662.063,-507 662.063,-471 517.063,-471"/>
<text text-anchor="middle" x="589.563" y="-494.9" font-family="Times Roman,serif" font-size="9.00">Nagios</text>
<polyline fill="none" stroke="black" points="517.063,-489 662.063,-489 "/>
<text text-anchor="middle" x="553.063" y="-476.9" font-family="Times Roman,serif" font-size="9.00">service check</text>
<polyline fill="none" stroke="black" points="589.063,-471 589.063,-489 "/>
<text text-anchor="middle" x="625.563" y="-476.9" font-family="Times Roman,serif" font-size="9.00">event_handler</text>
</g>
<!-- appservers -->
<g id="node9" class="node"><title>appservers</title>
<a xlink:href="http://ctstats.ds.itd.umich.edu/stats-bin/drraw.cgi?Mode=view;Dashboard=1194322225.25790" xlink:title="{CTools app servers|{&lt;snmpd&gt; snmpd|{&lt;tomcat&gt; Tomcat|{&lt;sakai&gt; Sakai JSP|&lt;jvmsnmpd&gt; snmpd}}}}">
<polygon fill="none" stroke="black" points="392.563,-145 392.563,-199 538.563,-199 538.563,-145 392.563,-145"/>
<text text-anchor="middle" x="465.563" y="-186.9" font-family="Times Roman,serif" font-size="9.00">CTools app servers</text>
<polyline fill="none" stroke="black" points="392.563,-181 538.563,-181 "/>
<text text-anchor="middle" x="414.563" y="-159.9" font-family="Times Roman,serif" font-size="9.00">snmpd</text>
<polyline fill="none" stroke="black" points="436.563,-145 436.563,-181 "/>
<text text-anchor="middle" x="487.563" y="-168.9" font-family="Times Roman,serif" font-size="9.00">Tomcat</text>
<polyline fill="none" stroke="black" points="436.563,-163 538.563,-163 "/>
<text text-anchor="middle" x="465.563" y="-150.9" font-family="Times Roman,serif" font-size="9.00">Sakai JSP</text>
<polyline fill="none" stroke="black" points="494.563,-145 494.563,-163 "/>
<text text-anchor="middle" x="516.563" y="-150.9" font-family="Times Roman,serif" font-size="9.00">snmpd</text>
</a>
</g>
<!-- nagios&#45;&gt;appservers -->
<g id="edge16" class="edge"><title>nagios:check&#45;&gt;appservers</title>
<path fill="none" stroke="green" stroke-dasharray="1,5" d="M515.563,-480C500.947,-480 495.923,-231.951 491.563,-218 490.086,-213.272 488.074,-208.492 485.821,-203.892"/>
<polygon fill="green" stroke="green" points="487.336,-203.011 483.497,-199.36 484.221,-204.608 487.336,-203.011"/>
<text text-anchor="middle" x="549.563" y="-349.7" font-family="Times Roman,serif" font-size="7.00">check/5m timeout/15s retry/30s</text>
</g>
<!-- nagios&#45;&gt;appservers -->
<g id="edge18" class="edge"><title>nagios:event&#45;&gt;appservers</title>
<path fill="none" stroke="red" stroke-dasharray="5,2" d="M663.563,-480C666.215,-480 691.804,-435.421 648.563,-348 617.609,-285.419 554.904,-232.903 511.588,-201.955"/>
<polygon fill="red" stroke="red" points="512.55,-200.491 507.459,-199.027 510.526,-203.346 512.55,-200.491"/>
<text text-anchor="middle" x="702.063" y="-349.7" font-family="Times Roman,serif" font-size="7.00">restart app after 5 check failures</text>
</g>
<!-- nagios&#45;&gt;ns2 -->
<g id="edge13" class="edge"><title>nagios:check&#45;&gt;ns2</title>
<path fill="none" stroke="green" stroke-dasharray="1,5" d="M515.563,-480C510.138,-480 512.246,-473.983 508.563,-470 495.273,-455.627 488.132,-456.11 474.563,-442 466.51,-433.626 458.576,-423.559 452.059,-414.661"/>
<polygon fill="green" stroke="green" points="453.326,-413.426 448.979,-410.399 450.489,-415.477 453.326,-413.426"/>
</g>
<!-- ctoolsdb -->
<g id="node6" class="node"><title>ctoolsdb</title>
<a xlink:href="http://ctstats.ds.itd.umich.edu/stats-bin/drraw.cgi?Mode=view;Dashboard=1178035455.23662" xlink:title="CTools DB">
<image xlink:href="icons/db.jpg" width="58px" height="50px" preserveAspectRatio="xMinYMin meet" x="458.563" y="-84"/>
<polygon fill="none" stroke="blue" stroke-width="0" points="516.563,-84 458.563,-84 458.563,-34 516.563,-34 516.563,-84"/>
<text text-anchor="middle" x="487.563" y="-75.9" font-family="Times Roman,serif" font-size="9.00">CTools DB</text>
</a>
</g>
<!-- ctoolsdb&#45;&gt;AFS -->
<g id="edge28" class="edge"><title>ctoolsdb&#45;&gt;AFS:ctlogs</title>
<path fill="none" stroke="black" d="M516.606,-66.9552C559.446,-80.6613 634.563,-113.093 634.563,-172 634.563,-392 634.563,-392 634.563,-392 634.563,-457.862 557.853,-426.316 508.563,-470 506.167,-472.124 505.736,-475.022 504.805,-477.152"/>
<polygon fill="black" stroke="black" points="503.739,-475.76 500.563,-480 505.69,-478.666 503.739,-475.76"/>
</g>
<!-- volora -->
<g id="node8" class="node"><title>volora</title>
<image xlink:href="icons/disk_subsystem.png" width="22px" height="22px" preserveAspectRatio="xMinYMin meet" x="362.563" y="-70"/>
<polygon fill="none" stroke="blue" stroke-width="0" points="411.563,-77 335.563,-77 335.563,-41 411.563,-41 411.563,-77"/>
<text text-anchor="middle" x="373.563" y="-68.9" font-family="Times Roman,serif" font-size="9.00">Oracle DB vols</text>
</g>
<!-- ctoolsdb&#45;&gt;volora -->
<g id="edge5" class="edge"><title>ctoolsdb&#45;&gt;volora</title>
<path fill="none" stroke="green" d="M458.287,-59C444.504,-59 430.721,-59 416.938,-59"/>
<polygon fill="green" stroke="green" points="416.86,-57.2501 411.86,-59 416.86,-60.7501 416.86,-57.2501"/>
</g>
<!-- appservers&#45;&gt;ctoolsdb -->
<g id="edge7" class="edge"><title>appservers:tomcat&#45;&gt;ctoolsdb</title>
<path fill="none" stroke="blue" d="M544.823,-171.587C572.704,-166.725 539.526,-119.962 513.294,-88.2532"/>
<polygon fill="blue" stroke="blue" points="544.411,-169.864 539.563,-172 544.685,-173.353 544.411,-169.864"/>
<polygon fill="blue" stroke="blue" points="514.357,-86.7952 509.809,-84.0784 511.67,-89.0382 514.357,-86.7952"/>
<text text-anchor="middle" x="549.063" y="-119.7" font-family="Times Roman,serif" font-size="7.00">dbcp</text>
</g>
<!-- voladmin -->
<g id="node11" class="node"><title>voladmin</title>
<polygon fill="none" stroke="black" points="37.5632,-41 37.5632,-77 219.563,-77 219.563,-41 37.5632,-41"/>
<text text-anchor="middle" x="128.563" y="-64.9" font-family="Times Roman,serif" font-size="9.00">voladmin</text>
<polyline fill="none" stroke="black" points="37.5632,-59 219.563,-59 "/>
<text text-anchor="middle" x="63.5632" y="-46.9" font-family="Times Roman,serif" font-size="9.00">Weblogs</text>
<polyline fill="none" stroke="black" points="89.5632,-41 89.5632,-59 "/>
<text text-anchor="middle" x="116.563" y="-46.9" font-family="Times Roman,serif" font-size="9.00">RRD files</text>
<polyline fill="none" stroke="black" points="143.563,-41 143.563,-59 "/>
<text text-anchor="middle" x="181.563" y="-46.9" font-family="Times Roman,serif" font-size="9.00">Nettracker files</text>
</g>
<!-- tau -->
<g id="node19" class="node"><title>tau</title>
<polygon fill="none" stroke="black" points="295.563,-239 295.563,-329 381.563,-329 381.563,-239 295.563,-239"/>
<text text-anchor="middle" x="338.563" y="-316.9" font-family="Times Roman,serif" font-size="9.00">ctstats.ds (tau)</text>
<polyline fill="none" stroke="black" points="295.563,-311 381.563,-311 "/>
<text text-anchor="middle" x="338.563" y="-298.9" font-family="Times Roman,serif" font-size="9.00">Apache</text>
<polyline fill="none" stroke="black" points="295.563,-293 381.563,-293 "/>
<text text-anchor="middle" x="338.563" y="-280.9" font-family="Times Roman,serif" font-size="9.00">drraw.cgi</text>
<polyline fill="none" stroke="black" points="295.563,-275 381.563,-275 "/>
<text text-anchor="middle" x="317.063" y="-262.9" font-family="Times Roman,serif" font-size="9.00">SNMP</text>
<polyline fill="none" stroke="black" points="338.563,-257 338.563,-275 "/>
<text text-anchor="middle" x="360.063" y="-262.9" font-family="Times Roman,serif" font-size="9.00">scripts</text>
<polyline fill="none" stroke="black" points="295.563,-257 381.563,-257 "/>
<text text-anchor="middle" x="338.563" y="-244.9" font-family="Times Roman,serif" font-size="9.00">RRD</text>
</g>
<!-- voladmin&#45;&gt;tau -->
<g id="edge42" class="edge"><title>voladmin:rrd&#45;&gt;tau:drraw</title>
<path fill="none" stroke="red" d="M116.563,-40C116.563,-31.2215 43.7311,-34.7535 37.5632,-41 26.1651,-52.5432 27.7219,-64.6039 37.5632,-77.5 95.1587,-152.974 170.645,-79.7733 240.563,-144 268.576,-169.733 270.671,-182.213 283.563,-218 292.973,-244.12 268.481,-278.994 289.385,-283.511"/>
<polygon fill="red" stroke="red" points="289.421,-285.272 294.563,-284 289.75,-281.788 289.421,-285.272"/>
</g>
<!-- voladmin&#45;&gt;feet -->
<g id="edge30" class="edge"><title>voladmin:weblog&#45;&gt;feet:toolprof</title>
<path fill="none" stroke="green" d="M63.5632,-40C63.5632,-28.4359 45.5815,-32.6673 37.5632,-41 26.3149,-52.6892 32.4088,-62.1184 37.5632,-77.5 50.3481,-115.653 90.8687,-111.421 94.3273,-147.841"/>
<polygon fill="green" stroke="green" points="92.5865,-148.085 94.5632,-153 96.0829,-147.925 92.5865,-148.085"/>
</g>
<!-- ns1 -->
<g id="node12" class="node"><title>ns1</title>
<a xlink:href="http://ctstats.ds.itd.umich.edu/stats-bin/drraw.cgi?Mode=view;Dashboard=1204922853.5498" xlink:title="ns1.ds lb">
<image xlink:href="icons/gswanson_Citrix_Netscaler_1.png" width="68px" height="30px" preserveAspectRatio="xMinYMin meet" x="316.563" y="-407"/>
<polygon fill="none" stroke="black" stroke-width="0" stroke-dasharray="1,5" points="384.563,-410 316.563,-410 316.563,-374 384.563,-374 384.563,-410"/>
<text text-anchor="middle" x="350.563" y="-375.9" font-family="Times Roman,serif" font-size="9.00">ns1.ds lb</text>
</a>
</g>
<!-- ns1&#45;&gt;appservers -->
<g id="edge9" class="edge"><title>ns1&#45;&gt;appservers</title>
<path fill="none" stroke="black" stroke-dasharray="1,5" d="M363.104,-373.935C371.328,-361.767 382.088,-345.22 390.563,-330 414.287,-287.395 437.762,-236.063 451.964,-203.721"/>
<polygon fill="black" stroke="black" points="453.589,-204.373 453.991,-199.091 450.383,-202.969 453.589,-204.373"/>
</g>
<!-- ns1&#45;&gt;tau -->
<g id="edge44" class="edge"><title>ns1&#45;&gt;tau:snmp</title>
<path fill="none" stroke="brown" d="M328.206,-373.79C316.111,-362.614 302.125,-346.919 295.563,-329.5 286.275,-304.843 269.731,-270.879 290.54,-266.477"/>
<polygon fill="brown" stroke="brown" points="290.751,-268.215 295.563,-266 290.42,-264.73 290.751,-268.215"/>
</g>
<!-- ns1&#45;&gt;feet -->
<g id="edge50" class="edge"><title>ns1&#45;&gt;feet:nslog</title>
<path fill="none" stroke="blue" d="M316.393,-389.245C259.869,-385.792 149.918,-376.586 117.563,-356 43.0464,-308.589 33.0981,-275.049 7.56316,-190.5 2.87305,-174.971 -3.6934,-165.681 7.56316,-154 14.4635,-146.839 28.4515,-142.618 33.056,-148.198"/>
<polygon fill="blue" stroke="blue" points="31.3962,-148.753 34.5632,-153 34.7357,-147.705 31.3962,-148.753"/>
</g>
<!-- ns2&#45;&gt;appservers -->
<g id="edge60" class="edge"><title>ns2&#45;&gt;appservers</title>
<path fill="none" stroke="brown" stroke-dasharray="1,5" d="M430.936,-368.992C430.111,-329.554 440.333,-248.965 451.476,-204.048"/>
<polygon fill="brown" stroke="brown" points="429.188,-369.061 431.113,-373.996 432.686,-368.938 429.188,-369.061"/>
<polygon fill="brown" stroke="brown" points="453.219,-204.296 452.768,-199.018 449.829,-203.425 453.219,-204.296"/>
</g>
<!-- ns2&#45;&gt;appservers -->
<g id="edge11" class="edge"><title>ns2&#45;&gt;appservers</title>
<path fill="none" stroke="black" stroke-dasharray="1,5" d="M438.936,-373.996C443.844,-336.767 455.165,-250.883 461.347,-203.985"/>
<polygon fill="black" stroke="black" points="463.083,-204.203 462.002,-199.018 459.613,-203.746 463.083,-204.203"/>
</g>
<!-- ns2&#45;&gt;appservers -->
<g id="edge14" class="edge"><title>ns2&#45;&gt;appservers</title>
<path fill="none" stroke="green" stroke-dasharray="1,5" d="M446.76,-373.996C458.46,-336.843 470.434,-251.231 471.198,-204.27"/>
<polygon fill="green" stroke="green" points="472.95,-204.03 471.236,-199.018 469.45,-204.005 472.95,-204.03"/>
</g>
<!-- ns2&#45;&gt;tau -->
<g id="edge46" class="edge"><title>ns2&#45;&gt;tau:snmp</title>
<path fill="none" stroke="brown" d="M408.391,-373.865C403.535,-371.082 398.461,-368.346 393.563,-366 372.604,-355.96 308.821,-348.586 295.563,-329.5 280.531,-307.861 268.968,-271.28 290.464,-266.517"/>
<polygon fill="brown" stroke="brown" points="290.765,-268.245 295.563,-266 290.412,-264.763 290.765,-268.245"/>
</g>
<!-- ns2&#45;&gt;feet -->
<g id="edge48" class="edge"><title>ns2&#45;&gt;feet:nslog</title>
<path fill="none" stroke="blue" d="M410.476,-373.775C405.06,-370.795 399.263,-368.014 393.563,-366 366.004,-356.263 356.36,-365.037 328.563,-356 290.401,-343.593 28.448,-224.765 7.56316,-190.5 -0.879763,-176.648 -3.6934,-165.681 7.56316,-154 14.4635,-146.839 28.4515,-142.618 33.056,-148.198"/>
<polygon fill="blue" stroke="blue" points="31.3962,-148.753 34.5632,-153 34.7357,-147.705 31.3962,-148.753"/>
</g>
<!-- tau&#45;&gt;appservers -->
<g id="edge34" class="edge"><title>tau:snmp&#45;&gt;appservers:snmpd</title>
<path fill="none" stroke="brown" d="M293.563,-266C281.309,-266 289.785,-249.307 295.563,-238.5 307.688,-215.823 358.742,-168.931 387.473,-163.514"/>
<polygon fill="brown" stroke="brown" points="387.764,-165.243 392.563,-163 387.413,-161.761 387.764,-165.243"/>
</g>
<!-- tau&#45;&gt;appservers -->
<g id="edge36" class="edge"><title>tau:snmp&#45;&gt;appservers:jvmsnmpd</title>
<path fill="none" stroke="brown" d="M294.563,-266C239.987,-266 217.015,-247.339 386.563,-218 420.092,-212.198 516.003,-224.973 538.563,-199.5 554.623,-181.367 555.297,-162.512 538.563,-145 533.492,-139.693 523.652,-136.278 519.05,-139.032"/>
<polygon fill="brown" stroke="brown" points="517.236,-138.745 516.563,-144 520.366,-140.312 517.236,-138.745"/>
</g>
<!-- tau&#45;&gt;appservers -->
<g id="edge38" class="edge"><title>tau:scr&#45;&gt;appservers:sakai</title>
<path fill="none" stroke="black" d="M382.563,-266C396.283,-266 388.337,-249.663 395.563,-238 401.559,-228.324 401.686,-223.66 411.563,-218 461.054,-189.64 501.25,-242.643 538.563,-199.5 554.408,-181.179 555.573,-162.245 538.563,-145 533.757,-140.127 485.091,-136.99 470.001,-141.002"/>
<polygon fill="black" stroke="black" points="468.726,-139.751 465.563,-144 470.686,-142.651 468.726,-139.751"/>
</g>
<!-- tau&#45;&gt;feet -->
<g id="edge40" class="edge"><title>tau:scr&#45;&gt;feet:dbjsp</title>
<path fill="none" stroke="black" d="M381.563,-266C393.785,-266 389.336,-247.932 381.563,-238.5 354.208,-205.304 324.264,-240.712 286.563,-220 257.651,-204.116 266.33,-167.327 237.887,-163.35"/>
<polygon fill="black" stroke="black" points="237.667,-161.582 232.563,-163 237.437,-165.075 237.667,-161.582"/>
</g>
<!-- boxcar -->
<g id="node38" class="node"><title>boxcar</title>
<polygon fill="none" stroke="black" points="237.563,-41 237.563,-77 317.563,-77 317.563,-41 237.563,-41"/>
<text text-anchor="middle" x="277.563" y="-64.9" font-family="Times Roman,serif" font-size="9.00">boxcar</text>
<polyline fill="none" stroke="black" points="237.563,-59 317.563,-59 "/>
<text text-anchor="middle" x="259.563" y="-46.9" font-family="Times Roman,serif" font-size="9.00">snmpd</text>
<polyline fill="none" stroke="black" points="281.563,-41 281.563,-59 "/>
<text text-anchor="middle" x="299.563" y="-46.9" font-family="Times Roman,serif" font-size="9.00">sshd</text>
</g>
<!-- tau&#45;&gt;boxcar -->
<g id="edge53" class="edge"><title>tau:snmp&#45;&gt;boxcar:snmpd</title>
<path fill="none" stroke="brown" d="M293.563,-266C270.513,-266 220.49,-79.3071 233.493,-53.0534"/>
<polygon fill="brown" stroke="brown" points="234.614,-54.4003 237.563,-50 232.513,-51.6005 234.614,-54.4003"/>
</g>
<!-- tau&#45;&gt;boxcar -->
<g id="edge55" class="edge"><title>tau:scr&#45;&gt;boxcar:sshd</title>
<path fill="none" stroke="brown" d="M381.563,-266C402.314,-266 381.471,-239.186 373.563,-220 355.008,-174.979 358.861,-159.608 333.563,-118 331.109,-113.963 328.549,-114.287 326.563,-110 321.692,-99.487 328.504,-62.7317 321.959,-52.6022"/>
<polygon fill="brown" stroke="brown" points="322.757,-51.0412 317.563,-50 320.974,-54.0531 322.757,-51.0412"/>
</g>
<!-- feet&#45;&gt;ctoolsdb -->
<g id="edge20" class="edge"><title>feet:dbjsp&#45;&gt;ctoolsdb</title>
<path fill="none" stroke="black" d="M233.563,-163C321.231,-163 345.498,-149.894 423.563,-110 435.29,-104.007 446.916,-95.6675 456.976,-87.4665"/>
<polygon fill="black" stroke="black" points="458.166,-88.7533 460.896,-84.2137 455.931,-86.0598 458.166,-88.7533"/>
<text text-anchor="middle" x="412.563" y="-119.7" font-family="Times Roman,serif" font-size="7.00">jdbc</text>
</g>
<!-- feet&#45;&gt;voladmin -->
<g id="edge22" class="edge"><title>feet:nslog&#45;&gt;voladmin:weblog</title>
<path fill="none" stroke="green" d="M33.5632,-153C33.5632,-109.156 -4.73308,-54.8936 32.1327,-50.3113"/>
<polygon fill="green" stroke="green" points="32.6715,-52.0334 37.5632,-50 32.4712,-48.5391 32.6715,-52.0334"/>
</g>
<!-- feet&#45;&gt;voladmin -->
<g id="edge24" class="edge"><title>feet:nettracker&#45;&gt;voladmin:nettracker</title>
<path fill="none" stroke="green" d="M156.563,-153C156.563,-109.297 204.672,-118.588 219.563,-77.5 225.091,-62.2485 230.882,-52.6207 219.563,-41 214.866,-36.1779 193.525,-33.0419 185.048,-36.2414"/>
<polygon fill="green" stroke="green" points="183.68,-35.1437 181.563,-40 186.246,-37.5235 183.68,-35.1437"/>
</g>
<!-- feet&#45;&gt;voladmin -->
<g id="edge32" class="edge"><title>feet:toolprof&#45;&gt;voladmin:rrd</title>
<path fill="none" stroke="purple" d="M94.5632,-153C94.5632,-137.444 101.698,-131.823 94.5632,-118 80.3085,-90.3851 51.8179,-105.115 37.5632,-77.5 30.1222,-63.085 26.1651,-52.5432 37.5632,-41 42.8155,-35.6807 96.41,-32.3299 112.205,-36.8732"/>
<polygon fill="purple" stroke="purple" points="111.48,-38.5071 116.563,-40 113.521,-35.6633 111.48,-38.5071"/>
</g>
<!-- end&#45;users -->
<g id="node42" class="node"><title>end&#45;users</title>
<image xlink:href="icons/cloud.png" width="22px" height="22px" preserveAspectRatio="xMinYMin meet" x="371.563" y="-575"/>
<polygon fill="none" stroke="black" stroke-width="0" points="410.563,-582 354.563,-582 354.563,-546 410.563,-546 410.563,-582"/>
<text text-anchor="middle" x="382.563" y="-573.9" font-family="Times Roman,serif" font-size="9.00">end&#45;users</text>
</g>
<!-- end&#45;users&#45;&gt;UMNet -->
<g id="edge58" class="edge"><title>end&#45;users&#45;&gt;UMNet</title>
<path fill="none" stroke="brown" stroke-dasharray="1,5" d="M382.563,-540.72C382.563,-531.71 382.563,-521.414 382.563,-512.393"/>
<polygon fill="brown" stroke="brown" points="380.813,-540.845 382.563,-545.845 384.313,-540.845 380.813,-540.845"/>
<polygon fill="brown" stroke="brown" points="384.313,-512.248 382.563,-507.248 380.813,-512.248 384.313,-512.248"/>
</g>
</g>
</svg>
