<?xml version="1.0" encoding="UTF-8" standalone="no"?>
<!DOCTYPE svg PUBLIC "-//W3C//DTD SVG 1.1//EN"
 "http://www.w3.org/Graphics/SVG/1.1/DTD/svg11.dtd">
<!-- Generated by graphviz version 2.26.3 (20100126.1600)
 -->
<!-- Title: lessons Pages: 1 -->
<svg width="438pt" height="663pt"
 viewBox="0.00 0.00 438.00 663.00" xmlns="http://www.w3.org/2000/svg" xmlns:xlink="http://www.w3.org/1999/xlink">
<g id="graph1" class="graph" transform="scale(1 1) rotate(0) translate(4 659)">
<title>lessons</title>
<polygon fill="white" stroke="white" points="-4,5 -4,-659 435,-659 435,5 -4,5"/>
<text text-anchor="middle" x="215" y="-5.8" font-family="Times Roman,serif" font-size="8.00">UM Lessons (Prod) System</text>
<g id="graph2" class="cluster"><title>cluster_buddha</title>
<polygon fill="none" stroke="black" points="8,-212 8,-406 153,-406 153,-212 8,-212"/>
<text text-anchor="middle" x="80.5" y="-394.8" font-family="Times Roman,serif" font-size="8.00">Lessons appservers (Redhat 3 x86)</text>
<text text-anchor="middle" x="80.5" y="-385.8" font-family="Times Roman,serif" font-size="8.00">(2) buddha, socrates</text>
<text text-anchor="middle" x="80.5" y="-376.8" font-family="Times Roman,serif" font-size="8.00">Dell 2650</text>
</g>
<g id="graph3" class="cluster"><title>cluster_afs</title>
<polygon fill="none" stroke="black" points="37,-25 37,-103 173,-103 173,-25 37,-25"/>
<text text-anchor="middle" x="105" y="-91.8" font-family="Times Roman,serif" font-size="8.00">Lessons AFS storage</text>
<text text-anchor="middle" x="105" y="-82.8" font-family="Times Roman,serif" font-size="8.00">/afs/umich.edu/group</text>
</g>
<g id="graph4" class="cluster"><title>cluster_cosign</title>
<polygon fill="none" stroke="black" points="273,-211 273,-282 345,-282 345,-211 273,-211"/>
<text text-anchor="middle" x="309" y="-270.8" font-family="Times Roman,serif" font-size="8.00">Cosign</text>
</g>
<g id="graph5" class="cluster"><title>cluster_storage</title>
<polygon fill="none" stroke="black" points="249,-25 249,-103 345,-103 345,-25 249,-25"/>
<text text-anchor="middle" x="297" y="-91.8" font-family="Times Roman,serif" font-size="8.00">Netapp 3020</text>
<text text-anchor="middle" x="297" y="-82.8" font-family="Times Roman,serif" font-size="8.00">boxcar</text>
</g>
<g id="graph6" class="cluster"><title>cluster_dbserver</title>
<polygon fill="none" stroke="black" points="164,-111 164,-203 422,-203 422,-111 164,-111"/>
<text text-anchor="middle" x="293" y="-191.8" font-family="Times Roman,serif" font-size="8.00">Oracle 10g DB (Solaris 10)</text>
<text text-anchor="middle" x="293" y="-182.8" font-family="Times Roman,serif" font-size="8.00">adb01</text>
</g>
<g id="graph7" class="cluster"><title>cluster_eyeballs</title>
<polygon fill="none" stroke="black" points="30,-578 30,-647 142,-647 142,-578 30,-578"/>
<text text-anchor="middle" x="86" y="-635.8" font-family="Times Roman,serif" font-size="8.00">Traffic sources</text>
</g>
<!-- lbs -->
<g id="node1" class="node"><title>lbs</title>
<a xlink:href="http://ctstats.ds.itd.umich.edu/stats-bin/drraw.cgi?Mode=view;Dashboard=1191545928.21917" xlink:title="load balancers\nns1.ds, ns2.ds">
<image xlink:href="icons/gswanson_Citrix_Netscaler_1.png" width="74px" height="30px" preserveAspectRatio="xMinYMin meet" x="49" y="-447"/>
<polygon fill="none" stroke="black" stroke-width="0" points="123,-450 49,-450 49,-414 123,-414 123,-450"/>
<text text-anchor="middle" x="86" y="-425.9" font-family="Times Roman,serif" font-size="9.00">load balancers</text>
<text text-anchor="middle" x="86" y="-415.9" font-family="Times Roman,serif" font-size="9.00">ns1.ds, ns2.ds</text>
</a>
</g>
<!-- buddha -->
<g id="node2" class="node"><title>buddha</title>
<polygon fill="none" stroke="black" points="26.5,-308 26.5,-362 145.5,-362 145.5,-308 26.5,-308"/>
<text text-anchor="middle" x="86" y="-349.9" font-family="Times Roman,serif" font-size="9.00">apache</text>
<polyline fill="none" stroke="black" points="26.5,-344 145.5,-344 "/>
<text text-anchor="middle" x="53.5" y="-331.9" font-family="Times Roman,serif" font-size="9.00">mod_perl</text>
<polyline fill="none" stroke="black" points="80.5,-326 80.5,-344 "/>
<text text-anchor="middle" x="113" y="-331.9" font-family="Times Roman,serif" font-size="9.00">mod_cosign</text>
<polyline fill="none" stroke="black" points="26.5,-326 145.5,-326 "/>
<text text-anchor="middle" x="86" y="-313.9" font-family="Times Roman,serif" font-size="9.00">Mason</text>
</g>
<!-- lbs&#45;&gt;buddha -->
<g id="edge29" class="edge"><title>lbs&#45;&gt;buddha:apache</title>
<path fill="none" stroke="green" d="M86,-408.669C86,-396.546 86,-381.338 86,-367.167"/>
<polygon fill="green" stroke="green" points="84.2501,-408.87 86,-413.87 87.7501,-408.87 84.2501,-408.87"/>
<polygon fill="green" stroke="green" points="87.7501,-367 86,-362 84.2501,-367 87.7501,-367"/>
</g>
<!-- umiac -->
<g id="node3" class="node"><title>umiac</title>
<polygon fill="none" stroke="brown" points="262.884,-243.562 212,-256 161.116,-243.562 161.164,-223.438 262.836,-223.438 262.884,-243.562"/>
<text text-anchor="middle" x="212" y="-234.9" font-family="Times Roman,serif" font-size="9.00">umiac&#45;service</text>
</g>
<!-- buddha&#45;&gt;umiac -->
<g id="edge11" class="edge"><title>buddha:modperl&#45;&gt;umiac</title>
<path fill="none" stroke="brown" d="M20.1704,-333.524C14.6641,-329.005 19.4177,-315.198 26,-307.5 64.5485,-262.419 103.171,-306.915 157,-282 170.519,-275.742 183.627,-265.476 193.653,-256.433"/>
<polygon fill="brown" stroke="brown" points="19.7068,-335.212 25,-335 20.7296,-331.865 19.7068,-335.212"/>
<polygon fill="brown" stroke="brown" points="194.987,-257.585 197.477,-252.909 192.614,-255.011 194.987,-257.585"/>
</g>
<!-- blocaldisk -->
<g id="node4" class="node"><title>blocaldisk</title>
<image xlink:href="icons/disk_subsystem.png" width="22px" height="22px" preserveAspectRatio="xMinYMin meet" x="38" y="-249"/>
<polygon fill="none" stroke="black" stroke-width="0" points="77,-256 21,-256 21,-220 77,-220 77,-256"/>
<text text-anchor="middle" x="49" y="-247.9" font-family="Times Roman,serif" font-size="9.00">localdisk</text>
<text text-anchor="middle" x="49" y="-237.9" font-family="Times Roman,serif" font-size="9.00">static files</text>
</g>
<!-- buddha&#45;&gt;blocaldisk -->
<g id="edge9" class="edge"><title>buddha:modperl&#45;&gt;blocaldisk</title>
<path fill="none" stroke="green" stroke-dasharray="1,5" d="M19.9516,-334.493C-2.67398,-329.434 18.1886,-287.654 34.3344,-260.754"/>
<polygon fill="green" stroke="green" points="19.8501,-336.242 25,-335 20.1999,-332.759 19.8501,-336.242"/>
<polygon fill="green" stroke="green" points="35.9743,-261.426 37.0798,-256.245 32.9848,-259.606 35.9743,-261.426"/>
</g>
<!-- afslessons -->
<g id="node6" class="node"><title>afslessons</title>
<image xlink:href="icons/disk_subsystem.png" width="22px" height="22px" preserveAspectRatio="xMinYMin meet" x="94" y="-62"/>
<polygon fill="none" stroke="black" stroke-width="0" points="165,-69 45,-69 45,-33 165,-33 165,-69"/>
<text text-anchor="middle" x="105" y="-60.9" font-family="Times Roman,serif" font-size="9.00">/ct/lessons (~4.3GB used)</text>
</g>
<!-- buddha&#45;&gt;afslessons -->
<g id="edge3" class="edge"><title>buddha:modperl&#45;&gt;afslessons</title>
<path fill="none" stroke="green" d="M19.9567,-333.326C15.1537,-328.724 20.3675,-315.687 26,-307.5 42.4236,-283.629 69.0351,-305.489 86,-282 131.712,-218.708 119.048,-118.665 110.236,-73.9334"/>
<polygon fill="green" stroke="green" points="19.7033,-335.085 25,-335 20.8061,-331.764 19.7033,-335.085"/>
<polygon fill="green" stroke="green" points="111.947,-73.5656 109.238,-69.0134 108.517,-74.2615 111.947,-73.5656"/>
</g>
<!-- cosign -->
<g id="node9" class="node"><title>cosign</title>
<polygon fill="none" stroke="black" points="281,-220 281,-256 337,-256 337,-220 281,-220"/>
<text text-anchor="middle" x="309" y="-243.9" font-family="Times Roman,serif" font-size="9.00">Weblogin</text>
<polyline fill="none" stroke="black" points="281,-238 337,-238 "/>
<text text-anchor="middle" x="309" y="-225.9" font-family="Times Roman,serif" font-size="9.00">Check cgi</text>
</g>
<!-- buddha&#45;&gt;cosign -->
<g id="edge7" class="edge"><title>buddha:modcosign&#45;&gt;cosign:weblogin</title>
<path fill="none" stroke="orange" d="M151.08,-334.992C210.463,-334.801 240.026,-330.63 277,-282 280.628,-277.229 276.456,-259.247 277.815,-251.08"/>
<polygon fill="orange" stroke="orange" points="150.997,-333.242 146,-335 151.003,-336.742 150.997,-333.242"/>
<polygon fill="orange" stroke="orange" points="279.303,-252.018 281,-247 276.544,-249.865 279.303,-252.018"/>
</g>
<!-- lessonsdb -->
<g id="node18" class="node"><title>lessonsdb</title>
<image xlink:href="icons/db.jpg" width="64px" height="50px" preserveAspectRatio="xMinYMin meet" x="321" y="-169"/>
<polygon fill="none" stroke="black" stroke-width="0" points="414,-169 292,-169 292,-119 414,-119 414,-169"/>
<text text-anchor="middle" x="353" y="-160.9" font-family="Times Roman,serif" font-size="9.00">lessons_user@LESSONS</text>
</g>
<!-- buddha&#45;&gt;lessonsdb -->
<g id="edge18" class="edge"><title>buddha:modperl&#45;&gt;lessonsdb</title>
<path fill="none" stroke="black" d="M20.1326,-333.49C14.5177,-328.873 18.9918,-314.812 26,-307.5 75.8208,-255.519 299.371,-334.164 349,-282 375.973,-253.649 370.169,-205.331 362.424,-174.045"/>
<polygon fill="black" stroke="black" points="19.706,-335.19 25,-335 20.743,-331.847 19.706,-335.19"/>
<polygon fill="black" stroke="black" points="364.111,-173.581 361.169,-169.176 360.722,-174.455 364.111,-173.581"/>
</g>
<!-- umiacdb -->
<g id="node15" class="node"><title>umiacdb</title>
<image xlink:href="icons/db.jpg" width="64px" height="50px" preserveAspectRatio="xMinYMin meet" x="191" y="-169"/>
<polygon fill="none" stroke="black" stroke-width="0" points="274,-169 172,-169 172,-119 274,-119 274,-169"/>
<text text-anchor="middle" x="223" y="-160.9" font-family="Times Roman,serif" font-size="9.00">umiacv2@LESSONS</text>
</g>
<!-- umiac&#45;&gt;umiacdb -->
<g id="edge13" class="edge"><title>umiac&#45;&gt;umiacdb</title>
<path fill="none" stroke="black" d="M214.305,-218.302C215.793,-205.585 217.759,-188.785 219.445,-174.378"/>
<polygon fill="black" stroke="black" points="212.562,-218.143 213.719,-223.312 216.038,-218.55 212.562,-218.143"/>
<polygon fill="black" stroke="black" points="221.209,-174.36 220.052,-169.19 217.733,-173.953 221.209,-174.36"/>
</g>
<!-- volora -->
<g id="node16" class="node"><title>volora</title>
<image xlink:href="icons/disk_subsystem.png" width="22px" height="22px" preserveAspectRatio="xMinYMin meet" x="286" y="-62"/>
<polygon fill="none" stroke="black" stroke-width="0" points="337,-69 257,-69 257,-33 337,-33 337,-69"/>
<text text-anchor="middle" x="297" y="-60.9" font-family="Times Roman,serif" font-size="9.00">Oracle data vols</text>
</g>
<!-- umiacdb&#45;&gt;volora -->
<g id="edge20" class="edge"><title>umiacdb&#45;&gt;volora</title>
<path fill="none" stroke="green" d="M246.509,-114.455C257.181,-101.043 269.588,-85.4504 279.432,-73.0785"/>
<polygon fill="green" stroke="green" points="244.965,-113.585 243.221,-118.587 247.703,-115.764 244.965,-113.585"/>
<polygon fill="green" stroke="green" points="280.922,-74.0162 282.666,-69.014 278.184,-71.8369 280.922,-74.0162"/>
</g>
<!-- lessonsdb&#45;&gt;volora -->
<g id="edge16" class="edge"><title>lessonsdb&#45;&gt;volora</title>
<path fill="none" stroke="green" d="M334.978,-114.071C327.017,-100.849 317.817,-85.5709 310.466,-73.3632"/>
<polygon fill="green" stroke="green" points="333.619,-115.207 337.698,-118.587 336.618,-113.401 333.619,-115.207"/>
<polygon fill="green" stroke="green" points="311.926,-72.3947 307.847,-69.014 308.927,-74.2002 311.926,-72.3947"/>
</g>
<!-- enduser -->
<g id="node24" class="node"><title>enduser</title>
<image xlink:href="icons/cloud.png" width="22px" height="22px" preserveAspectRatio="xMinYMin meet" x="75" y="-615"/>
<polygon fill="none" stroke="black" stroke-width="0" points="134,-622 38,-622 38,-586 134,-586 134,-622"/>
<text text-anchor="middle" x="86" y="-613.9" font-family="Times Roman,serif" font-size="9.00">end&#45;user browser(s)</text>
</g>
<!-- UMNet -->
<g id="node28" class="node"><title>UMNet</title>
<ellipse fill="none" stroke="black" cx="86" cy="-518" rx="27" ry="18"/>
<text text-anchor="middle" x="86" y="-514.9" font-family="Times Roman,serif" font-size="9.00">UMNet</text>
</g>
<!-- enduser&#45;&gt;UMNet -->
<g id="edge26" class="edge"><title>enduser&#45;&gt;UMNet</title>
<path fill="none" stroke="green" d="M86,-580.411C86,-568.215 86,-553.382 86,-541.237"/>
<polygon fill="green" stroke="green" points="84.2501,-580.762 86,-585.762 87.7501,-580.762 84.2501,-580.762"/>
<polygon fill="green" stroke="green" points="87.7501,-541.212 86,-536.212 84.2501,-541.212 87.7501,-541.212"/>
</g>
<!-- UMNet&#45;&gt;lbs -->
<g id="edge27" class="edge"><title>UMNet&#45;&gt;lbs</title>
<path fill="none" stroke="green" d="M86,-494.411C86,-482.215 86,-467.382 86,-455.237"/>
<polygon fill="green" stroke="green" points="84.2501,-494.762 86,-499.762 87.7501,-494.762 84.2501,-494.762"/>
<polygon fill="green" stroke="green" points="87.7501,-455.212 86,-450.212 84.2501,-455.212 87.7501,-455.212"/>
</g>
</g>
</svg>
